<svg width="36" height="36" viewBox="0 0 36 36" fill="none" xmlns="http://www.w3.org/2000/svg">
<g clip-path="url(#clip0_0_647)">
<path d="M19 35.9998C28.9411 35.9998 37 27.9409 37 17.9998C37 8.05863 28.9411 -0.000244141 19 -0.000244141C9.05884 -0.000244141 0.999969 8.05863 0.999969 17.9998C0.999969 27.9409 9.05884 35.9998 19 35.9998Z" fill="#007AB9"/>
<path d="M29.7548 19.4483V26.8693H25.4523V19.9456C25.4523 18.2071 24.8311 17.0199 23.2733 17.0199C22.0845 17.0199 21.3783 17.8192 21.0664 18.5931C20.9531 18.8697 20.9239 19.2538 20.9239 19.6417V26.8689H16.6211C16.6211 26.8689 16.6788 15.1425 16.6211 13.9287H20.9242V15.7625C20.9156 15.7769 20.9034 15.791 20.8957 15.8048H20.9242V15.7625C21.496 14.8826 22.5157 13.6248 24.8019 13.6248C27.6326 13.6248 29.7548 15.4743 29.7548 19.4483ZM12.12 7.69104C10.6481 7.69104 9.68521 8.65717 9.68521 9.92652C9.68521 11.1689 10.6202 12.163 12.0635 12.163H12.0914C13.5921 12.163 14.5252 11.1689 14.5252 9.92652C14.4966 8.65717 13.5921 7.69104 12.12 7.69104ZM9.94094 26.8693H14.2422V13.9287H9.94094V26.8693Z" fill="#F1F2F2"/>
</g>
<defs>
<clipPath id="clip0_0_647">
<rect width="36" height="36" fill="white"/>
</clipPath>
</defs>
</svg>
