<svg width="36" height="36" viewBox="0 0 36 36" fill="none" xmlns="http://www.w3.org/2000/svg">
<g clip-path="url(#clip0_19_1909)">
<path d="M19 35.9998C28.9411 35.9998 37 27.9409 37 17.9998C37 8.05863 28.9411 -0.000244141 19 -0.000244141C9.05888 -0.000244141 1 8.05863 1 17.9998C1 27.9409 9.05888 35.9998 19 35.9998Z" fill="#007AB9"/>
<path d="M29.7549 19.4482V26.8692H25.4524V19.9455C25.4524 18.2071 24.8312 17.0199 23.2734 17.0199C22.0846 17.0199 21.3783 17.8191 21.0665 18.5931C20.9532 18.8697 20.924 19.2537 20.924 19.6417V26.8689H16.6212C16.6212 26.8689 16.6789 15.1425 16.6212 13.9286H20.9243V15.7624C20.9157 15.7768 20.9035 15.7909 20.8958 15.8047H20.9243V15.7624C21.4961 14.8826 22.5158 13.6248 24.802 13.6248C27.6327 13.6248 29.7549 15.4743 29.7549 19.4482ZM12.12 7.69098C10.6482 7.69098 9.6853 8.65711 9.6853 9.92646C9.6853 11.1689 10.6203 12.1629 12.0636 12.1629H12.0915C13.5922 12.1629 14.5253 11.1689 14.5253 9.92646C14.4967 8.65711 13.5922 7.69098 12.12 7.69098ZM9.94103 26.8692H14.2423V13.9286H9.94103V26.8692Z" fill="#F1F2F2"/>
</g>
<defs>
<clipPath id="clip0_19_1909">
<rect width="36" height="36" fill="white"/>
</clipPath>
</defs>
</svg>
