<svg width="14" height="14" viewBox="0 0 14 14" fill="none" xmlns="http://www.w3.org/2000/svg">
<path d="M10.0979 9.10489C9.94872 9.10489 9.82284 9.15617 9.72028 9.25874C9.61772 9.3613 9.56643 9.48251 9.56643 9.62237V11.2028C9.56643 11.3427 9.51515 11.4639 9.41259 11.5664C9.31002 11.669 9.18415 11.7203 9.03496 11.7203H1.58042C1.43124 11.7203 1.30536 11.669 1.2028 11.5664C1.10023 11.4639 1.04895 11.3427 1.04895 11.2028V9.62237C1.04895 9.48251 0.997669 9.3613 0.895105 9.25874C0.792541 9.15617 0.668998 9.10489 0.524476 9.10489C0.379953 9.10489 0.25641 9.15617 0.153846 9.25874C0.051282 9.3613 0 9.48251 0 9.62237V11.2028C0 11.4918 0.0699301 11.7552 0.20979 11.993C0.34965 12.2308 0.540793 12.4196 0.783217 12.5594C1.02564 12.6993 1.29138 12.7692 1.58042 12.7692H8.97902C9.26807 12.7692 9.5338 12.6993 9.77622 12.5594C10.0186 12.4196 10.2098 12.2308 10.3497 11.993C10.4895 11.7552 10.5594 11.4918 10.5594 11.2028V9.62237C10.5874 9.48251 10.5524 9.3613 10.4545 9.25874C10.3566 9.15617 10.2378 9.10489 10.0979 9.10489ZM2.85315 3.4965C2.80653 3.52447 2.7669 3.57342 2.73427 3.64335C2.70163 3.71328 2.68531 3.78088 2.68531 3.84615C2.68531 3.99533 2.7366 4.12121 2.83916 4.22377C2.94173 4.32634 3.06294 4.37762 3.2028 4.37762C3.32401 4.37762 3.44056 4.31701 3.55245 4.1958L4.72727 3.03496V9.51048C4.72727 9.57575 4.7296 9.62703 4.73427 9.66433C4.73893 9.70163 4.75524 9.74825 4.78322 9.80419C4.86713 9.94405 4.98601 10.0303 5.13986 10.0629C5.29371 10.0956 5.44522 10.0653 5.59441 9.97202C5.68765 9.94405 5.75991 9.88811 5.81119 9.80419C5.86247 9.72028 5.88811 9.62237 5.88811 9.51048V3.03496L7.06294 4.1958C7.14685 4.28904 7.26107 4.33566 7.40559 4.33566C7.55012 4.33566 7.669 4.28904 7.76224 4.1958C7.87413 4.08391 7.9324 3.96037 7.93706 3.82517C7.94172 3.68997 7.9021 3.56177 7.81818 3.44055L5.72028 1.34265C5.59907 1.22144 5.47086 1.16083 5.33566 1.16083C5.20047 1.16083 5.07226 1.22144 4.95105 1.34265L2.85315 3.4965Z" fill="#738F93"/>
</svg>
