<svg width="20" height="20" viewBox="0 0 20 20" fill="none" xmlns="http://www.w3.org/2000/svg">
<g clip-path="url(#clip0_19_2133)">
<g clip-path="url(#clip1_19_2133)">
<g clip-path="url(#clip2_19_2133)">
<path fill-rule="evenodd" clip-rule="evenodd" d="M11.3099 1.00606L17.6067 4.41715C18.4941 4.89785 19.0469 5.82596 19.0469 6.83516V13.361C19.0469 14.3702 18.4941 15.2983 17.6067 15.779L11.3099 19.1901C10.4927 19.6328 9.50728 19.6328 8.69014 19.1901L2.39326 15.779C1.5059 15.2983 0.953125 14.3702 0.953125 13.361V6.83516C0.953125 5.82596 1.5059 4.89785 2.39326 4.41715L8.69014 1.00606C9.50728 0.563409 10.4927 0.563409 11.3099 1.00606Z" fill="url(#paint0_linear_19_2133)"/>
<path opacity="0.65" fill-rule="evenodd" clip-rule="evenodd" d="M15.3808 7.94861L14.5858 13.3071C14.5458 13.5767 14.3144 13.7764 14.0418 13.7764H7.68232C7.37857 13.7764 7.13232 13.5301 7.13232 13.2264C7.13232 13.0531 7.21395 12.89 7.35261 12.7861L14.507 7.42769C14.7501 7.24559 15.0948 7.29507 15.2769 7.53819C15.3649 7.65567 15.4023 7.80343 15.3808 7.94861Z" fill="white"/>
<path opacity="0.65" fill-rule="evenodd" clip-rule="evenodd" d="M5.49306 7.42766L12.6475 12.7861C12.8906 12.9682 12.9401 13.3129 12.758 13.556C12.6541 13.6947 12.491 13.7763 12.3178 13.7763H5.95829C5.6857 13.7763 5.45424 13.5767 5.41424 13.307L4.61931 7.94858C4.57473 7.64812 4.78218 7.3684 5.08265 7.32383C5.22783 7.30229 5.37559 7.33967 5.49306 7.42766Z" fill="white"/>
<path opacity="0.9" fill-rule="evenodd" clip-rule="evenodd" d="M10.446 5.61399L14.3579 13.0727C14.499 13.3417 14.3953 13.6741 14.1263 13.8152C14.0475 13.8566 13.9599 13.8782 13.8709 13.8782H6.04707C5.74331 13.8782 5.49707 13.6319 5.49707 13.3282C5.49707 13.2392 5.51866 13.1515 5.55999 13.0727L9.47191 5.61399C9.61299 5.34499 9.94543 5.24129 10.2144 5.38237C10.3134 5.43426 10.3941 5.51505 10.446 5.61399Z" fill="white"/>
</g>
</g>
</g>
<defs>
<linearGradient id="paint0_linear_19_2133" x1="10" y1="0.674073" x2="10" y2="19.5221" gradientUnits="userSpaceOnUse">
<stop stop-color="#EAB98A"/>
<stop offset="1" stop-color="#B07648"/>
</linearGradient>
<clipPath id="clip0_19_2133">
<rect width="20" height="20" fill="white"/>
</clipPath>
<clipPath id="clip1_19_2133">
<rect width="20" height="20" fill="white"/>
</clipPath>
<clipPath id="clip2_19_2133">
<rect width="20" height="20" fill="white"/>
</clipPath>
</defs>
</svg>
