<svg width="32" height="32" viewBox="0 0 32 32" fill="none" xmlns="http://www.w3.org/2000/svg">
<rect width="32" height="32" rx="16" fill="black" fill-opacity="0.2"/>
<path fill-rule="evenodd" clip-rule="evenodd" d="M23 15.063V11H21V12C21 12.2652 20.8946 12.5196 20.7071 12.7071C20.5196 12.8946 20.2652 13 20 13C19.7348 13 19.4804 12.8946 19.2929 12.7071C19.1054 12.5196 19 12.2652 19 12V11H13V12C13 12.2652 12.8946 12.5196 12.7071 12.7071C12.5196 12.8946 12.2652 13 12 13C11.7348 13 11.4804 12.8946 11.2929 12.7071C11.1054 12.5196 11 12.2652 11 12V11H9V15.063H23ZM23 17.063H9V23H23V17.063ZM13 9H19V8C19 7.73478 19.1054 7.48043 19.2929 7.29289C19.4804 7.10536 19.7348 7 20 7C20.2652 7 20.5196 7.10536 20.7071 7.29289C20.8946 7.48043 21 7.73478 21 8V9H23C23.5304 9 24.0391 9.21071 24.4142 9.58579C24.7893 9.96086 25 10.4696 25 11V23C25 23.5304 24.7893 24.0391 24.4142 24.4142C24.0391 24.7893 23.5304 25 23 25H9C8.46957 25 7.96086 24.7893 7.58579 24.4142C7.21071 24.0391 7 23.5304 7 23V11C7 10.4696 7.21071 9.96086 7.58579 9.58579C7.96086 9.21071 8.46957 9 9 9H11V8C11 7.73478 11.1054 7.48043 11.2929 7.29289C11.4804 7.10536 11.7348 7 12 7C12.2652 7 12.5196 7.10536 12.7071 7.29289C12.8946 7.48043 13 7.73478 13 8V9Z" fill="white"/>
</svg>
