<svg width="36" height="36" viewBox="0 0 36 36" fill="none" xmlns="http://www.w3.org/2000/svg">
<g clip-path="url(#clip0_20_2440)">
<path d="M18 36C27.9411 36 36 27.9411 36 18C36 8.05888 27.9411 0 18 0C8.05888 0 0 8.05888 0 18C0 27.9411 8.05888 36 18 36Z" fill="#3B5998"/>
<path d="M22.5254 18.7046H19.3135V30.4714H14.4472V18.7046H12.1328V14.5693H14.4472V11.8932C14.4472 9.97959 15.3562 6.98301 19.3568 6.98301L22.9614 6.99809V11.0121H20.346C19.917 11.0121 19.3138 11.2265 19.3138 12.1393V14.5731H22.9505L22.5254 18.7046Z" fill="white"/>
</g>
<defs>
<clipPath id="clip0_20_2440">
<rect width="36" height="36" fill="white"/>
</clipPath>
</defs>
</svg>
