<svg width="15" height="14" viewBox="0 0 15 14" fill="none" xmlns="http://www.w3.org/2000/svg">
<g clip-path="url(#clip0_19_1957)">
<path d="M8.71496 9.97494L7.38185 8.53839C7.2976 8.44146 7.25216 8.3168 7.25429 8.18839C7.25524 8.06052 7.30344 7.93752 7.38963 7.84305C7.43042 7.79813 7.47995 7.76199 7.53518 7.73685C7.59041 7.71171 7.65018 7.69809 7.71085 7.69683C7.77138 7.69638 7.83137 7.70829 7.88713 7.73183C7.9429 7.75537 7.99328 7.79004 8.03518 7.83372L9.36829 9.27028L10.0838 8.50028L5.33241 3.38094C5.12341 3.15811 4.87087 2.98059 4.59045 2.85937C4.31002 2.73816 4.00769 2.67584 3.70218 2.67628C3.3965 2.68092 3.09502 2.74819 2.81636 2.87394C2.53771 2.99969 2.2878 3.18125 2.08207 3.40739C1.64677 3.88455 1.40495 4.50683 1.40385 5.15272C1.39562 5.79948 1.62853 6.42612 2.05718 6.9105L6.80785 12.0298L7.55918 11.2209L6.22607 9.78361C6.14182 9.68668 6.09639 9.56202 6.09852 9.43361C6.09946 9.30574 6.14766 9.18274 6.23385 9.08828C6.27464 9.04335 6.32417 9.00722 6.3794 8.98208C6.43463 8.95693 6.4944 8.94332 6.55507 8.94205C6.61566 8.94171 6.67568 8.95374 6.73145 8.97741C6.78722 9.00108 6.83757 9.0359 6.87941 9.07972L8.21252 10.5163L8.71496 9.97494ZM7.1073 13.0946C7.06502 13.1363 7.0148 13.1691 6.95963 13.191C6.90445 13.2129 6.84543 13.2235 6.78607 13.2222C6.7266 13.2199 6.66818 13.2058 6.61422 13.1807C6.56026 13.1556 6.51186 13.12 6.47185 13.0759L1.40307 7.61439C1.09125 7.28674 0.845636 6.90196 0.679739 6.48117C0.337271 5.61586 0.330613 4.65379 0.661073 3.78383C0.821233 3.36027 1.06154 2.97154 1.36885 2.63894C1.66743 2.31521 2.02896 2.05584 2.43129 1.87672C2.82572 1.70188 3.25287 1.61306 3.68429 1.61617C4.11613 1.61997 4.54221 1.71569 4.93418 1.89694C5.32929 2.07894 5.68707 2.34417 5.98574 2.67628L6.80785 3.56217L7.68596 2.61717C7.97991 2.28866 8.3377 2.02349 8.73752 1.83783C9.12938 1.65606 9.55546 1.55982 9.98741 1.5555C10.4167 1.55239 10.843 1.64105 11.2404 1.81605C11.643 1.99508 12.0048 2.25446 12.3036 2.57828C12.607 2.90572 12.8481 3.29539 13.0106 3.72394C13.3409 4.59367 13.3342 5.55542 12.992 6.4205C12.8261 6.84156 12.5805 7.22661 12.2686 7.5545L7.20141 13.0145C7.17332 13.0451 7.14173 13.0714 7.1073 13.0946ZM7.46196 4.26683L10.7364 7.79561L11.6153 6.84983C12.0552 6.36744 12.2973 5.73711 12.2935 5.08428C12.2969 4.43198 12.0548 3.80227 11.6153 3.32028C11.4076 3.09191 11.1548 2.90904 10.8728 2.78321C10.5909 2.65738 10.286 2.59131 9.97729 2.58917C9.36285 2.58917 8.77329 2.85205 8.33929 3.32028L7.46274 4.26605L7.46196 4.26683Z" fill="#007AFF"/>
</g>
<defs>
<clipPath id="clip0_19_1957">
<rect width="14" height="14" fill="white" transform="translate(0.0302734)"/>
</clipPath>
</defs>
</svg>
