<svg width="14" height="14" viewBox="0 0 14 14" fill="none" xmlns="http://www.w3.org/2000/svg">
<path fill-rule="evenodd" clip-rule="evenodd" d="M8.57892 1.57904C8.68518 1.46902 8.74398 1.32167 8.74265 1.16872C8.74132 1.01577 8.67997 0.869463 8.57182 0.761308C8.46366 0.653154 8.31735 0.591805 8.1644 0.590476C8.01146 0.589147 7.86411 0.647944 7.75409 0.754203L6.58742 1.92087C6.49555 2.01286 6.43704 2.13291 6.42119 2.26195C6.40534 2.39099 6.43305 2.52163 6.49992 2.63312L7.37492 4.09145C7.45679 4.21926 7.58524 4.31013 7.73302 4.34477C7.8808 4.3794 8.03625 4.35508 8.16638 4.27695C8.29651 4.19883 8.39107 4.07306 8.42998 3.92635C8.46888 3.77964 8.44907 3.62354 8.37475 3.4912L8.10992 3.04962C9.1501 3.30425 10.0711 3.90888 10.7183 4.76206C11.3655 5.61525 11.6996 6.66508 11.6645 7.7354C11.6294 8.80572 11.2272 9.8314 10.5255 10.6404C9.82381 11.4493 8.86521 11.9923 7.81058 12.1782C6.75595 12.3642 5.66946 12.1817 4.73341 11.6615C3.79735 11.1413 3.06869 10.315 2.66968 9.32121C2.27068 8.32743 2.2256 7.22665 2.54203 6.20357C2.85845 5.18049 3.51711 4.29736 4.4075 3.70237C4.53313 3.61512 4.61945 3.48201 4.64789 3.33173C4.67633 3.18145 4.64461 3.026 4.55956 2.89888C4.4745 2.77176 4.34292 2.68313 4.19316 2.65208C4.04339 2.62103 3.88742 2.65004 3.75884 2.73287C2.96089 3.26553 2.30678 3.98694 1.85456 4.83307C1.40234 5.6792 1.16599 6.62389 1.1665 7.58329C1.1665 10.805 3.77809 13.4166 6.99984 13.4166C10.2216 13.4166 12.8332 10.805 12.8332 7.58329C12.8332 4.79787 10.8808 2.46804 8.26975 1.88879L8.57892 1.57904ZM7.58317 5.83329C7.58317 5.67858 7.52171 5.5302 7.41232 5.42081C7.30292 5.31141 7.15455 5.24995 6.99984 5.24995C6.84513 5.24995 6.69675 5.31141 6.58736 5.42081C6.47796 5.5302 6.4165 5.67858 6.4165 5.83329V8.16662C6.41649 8.26263 6.44017 8.35716 6.48546 8.44183C6.53074 8.52649 6.59622 8.59867 6.67609 8.65195L8.42609 9.81862C8.55481 9.90448 8.71236 9.9357 8.86409 9.90539C9.01583 9.87509 9.14931 9.78575 9.23517 9.65704C9.32103 9.52832 9.35225 9.37076 9.32195 9.21903C9.29164 9.0673 9.20231 8.93382 9.07359 8.84795L7.58317 7.85454V5.83329Z" fill="#3C3C43" fill-opacity="0.6"/>
</svg>
