<svg width="36" height="36" viewBox="0 0 36 36" fill="none" xmlns="http://www.w3.org/2000/svg">
<g clip-path="url(#clip0_20_2449)">
<path d="M19 35.9998C28.9411 35.9998 37 27.9409 37 17.9998C37 8.05863 28.9411 -0.000244141 19 -0.000244141C9.05888 -0.000244141 1 8.05863 1 17.9998C1 27.9409 9.05888 35.9998 19 35.9998Z" fill="#007AB9"/>
<path d="M29.7547 19.4482V26.8692H25.4521V19.9455C25.4521 18.2071 24.8309 17.0199 23.2731 17.0199C22.0843 17.0199 21.3781 17.8192 21.0662 18.5931C20.9529 18.8697 20.9238 19.2538 20.9238 19.6417V26.8689H16.6209C16.6209 26.8689 16.6787 15.1425 16.6209 13.9286H20.9241V15.7624C20.9154 15.7768 20.9032 15.791 20.8955 15.8048H20.9241V15.7624C21.4959 14.8826 22.5156 13.6248 24.8018 13.6248C27.6324 13.6248 29.7547 15.4743 29.7547 19.4482ZM12.1198 7.69099C10.648 7.69099 9.68506 8.65712 9.68506 9.92647C9.68506 11.1689 10.6201 12.1629 12.0633 12.1629H12.0912C13.5919 12.1629 14.525 11.1689 14.525 9.92647C14.4965 8.65712 13.5919 7.69099 12.1198 7.69099ZM9.94079 26.8692H14.242V13.9286H9.94079V26.8692Z" fill="#F1F2F2"/>
</g>
<defs>
<clipPath id="clip0_20_2449">
<rect width="36" height="36" fill="white"/>
</clipPath>
</defs>
</svg>
