<svg width="13" height="12" viewBox="0 0 13 12" fill="none" xmlns="http://www.w3.org/2000/svg">
<path fill-rule="evenodd" clip-rule="evenodd" d="M5.66194 4.9175C5.64017 4.97945 5.60642 5.03651 5.5626 5.08541C5.51878 5.13432 5.46576 5.17412 5.40657 5.20253C5.34737 5.23095 5.28315 5.24742 5.21759 5.25102C5.15202 5.25462 5.08639 5.24527 5.02444 5.2235C4.96249 5.20173 4.90543 5.16798 4.85653 5.12416C4.80762 5.08034 4.76783 5.02732 4.73941 4.96812C4.711 4.90893 4.69452 4.84471 4.69092 4.77915C4.68732 4.71358 4.69667 4.64795 4.71844 4.586C4.84573 4.22398 5.09703 3.91869 5.42783 3.72419C5.75863 3.5297 6.14759 3.45855 6.52583 3.52334C6.90406 3.58814 7.24716 3.7847 7.49436 4.07821C7.74156 4.37173 7.87691 4.74326 7.87644 5.127C7.87644 5.657 7.56744 6.069 7.09144 6.387C6.87967 6.52892 6.65044 6.64287 6.40944 6.726C6.34691 6.74779 6.28067 6.75694 6.21458 6.75293C6.14848 6.74891 6.08384 6.7318 6.02441 6.7026C5.96498 6.6734 5.91194 6.63268 5.86837 6.58282C5.8248 6.53295 5.79158 6.47492 5.77062 6.41211C5.74966 6.3493 5.74138 6.28295 5.74627 6.21691C5.75117 6.15087 5.76913 6.08646 5.79911 6.02742C5.8291 5.96838 5.87052 5.91589 5.92096 5.87299C5.9714 5.83008 6.02986 5.79763 6.09294 5.7775C6.19544 5.7435 6.36894 5.6665 6.53644 5.5545C6.76344 5.4035 6.87644 5.2525 6.87644 5.126C6.87698 4.97817 6.82511 4.83494 6.73004 4.72174C6.63497 4.60855 6.50285 4.53271 6.35715 4.50771C6.21146 4.48271 6.06161 4.51016 5.93424 4.58518C5.80687 4.66021 5.71021 4.77795 5.66144 4.9175H5.66194ZM5.78294 8C5.78294 7.86739 5.83562 7.74021 5.92939 7.64645C6.02316 7.55268 6.15033 7.5 6.28294 7.5C6.41555 7.5 6.54273 7.55268 6.63649 7.64645C6.73026 7.74021 6.78294 7.86739 6.78294 8V8.0675C6.78294 8.20011 6.73026 8.32728 6.63649 8.42105C6.54273 8.51482 6.41555 8.5675 6.28294 8.5675C6.15033 8.5675 6.02316 8.51482 5.92939 8.42105C5.83562 8.32728 5.78294 8.20011 5.78294 8.0675V8ZM6.18994 11C3.42844 11 1.18994 8.7615 1.18994 6C1.18994 3.2385 3.42844 1 6.18994 1C8.95144 1 11.1899 3.2385 11.1899 6C11.1899 8.7615 8.95144 11 6.18994 11ZM6.18994 10C7.25081 10 8.26822 9.57857 9.01837 8.82843C9.76851 8.07828 10.1899 7.06087 10.1899 6C10.1899 4.93913 9.76851 3.92172 9.01837 3.17157C8.26822 2.42143 7.25081 2 6.18994 2C5.12908 2 4.11166 2.42143 3.36151 3.17157C2.61137 3.92172 2.18994 4.93913 2.18994 6C2.18994 7.06087 2.61137 8.07828 3.36151 8.82843C4.11166 9.57857 5.12908 10 6.18994 10Z" fill="#3C3C43" fill-opacity="0.6"/>
</svg>
