<svg width="18" height="19" viewBox="0 0 18 19" fill="none" xmlns="http://www.w3.org/2000/svg">
<path fill-rule="evenodd" clip-rule="evenodd" d="M9 17C4.85775 17 1.5 13.6423 1.5 9.5C1.5 5.35775 4.85775 2 9 2C13.1423 2 16.5 5.35775 16.5 9.5C16.5 13.6423 13.1423 17 9 17ZM9 15.5C10.5913 15.5 12.1174 14.8679 13.2426 13.7426C14.3679 12.6174 15 11.0913 15 9.5C15 7.9087 14.3679 6.38258 13.2426 5.25736C12.1174 4.13214 10.5913 3.5 9 3.5C7.4087 3.5 5.88258 4.13214 4.75736 5.25736C3.63214 6.38258 3 7.9087 3 9.5C3 11.0913 3.63214 12.6174 4.75736 13.7426C5.88258 14.8679 7.4087 15.5 9 15.5ZM9.75 5.45V9.0365L12.0353 10.1795C12.1264 10.2216 12.2082 10.2816 12.2758 10.356C12.3433 10.4303 12.3953 10.5174 12.4285 10.6122C12.4617 10.707 12.4756 10.8075 12.4692 10.9078C12.4629 11.008 12.4365 11.1059 12.3916 11.1958C12.3466 11.2856 12.2841 11.3655 12.2077 11.4307C12.1314 11.496 12.0426 11.5452 11.9469 11.5755C11.8511 11.6057 11.7502 11.6165 11.6502 11.607C11.5502 11.5976 11.4532 11.5682 11.3647 11.5205L8.66475 10.1705C8.54019 10.1083 8.43542 10.0126 8.36216 9.89414C8.28891 9.77572 8.25007 9.63925 8.25 9.5V5.45C8.25 5.25109 8.32902 5.06032 8.46967 4.91967C8.61032 4.77902 8.80109 4.7 9 4.7C9.19891 4.7 9.38968 4.77902 9.53033 4.91967C9.67098 5.06032 9.75 5.25109 9.75 5.45Z" fill="white"/>
</svg>
