<svg width="18" height="18" viewBox="0 0 18 18" fill="none" xmlns="http://www.w3.org/2000/svg">
<path fill-rule="evenodd" clip-rule="evenodd" d="M6.375 3.44025V8.82675C6.375 9.258 6.513 9.924 6.90525 10.4618C7.2705 10.9605 7.88925 11.4 9 11.4C10.11 11.4 10.7295 10.9605 11.0948 10.461C11.487 9.924 11.625 9.258 11.625 8.82675V3.44025C9.92418 2.85349 8.07582 2.85349 6.375 3.44025ZM5.20725 10.4685C4.99408 9.94732 4.88135 9.39055 4.875 8.8275V6.45C4.473 6.363 4.035 6.3315 3.68475 6.4125C3.45075 6.46725 3.29925 6.561 3.20175 6.681C3.105 6.798 3 7.01775 3 7.44225C3 8.4915 3.636 9.46275 4.77075 10.2075C4.91025 10.299 5.05575 10.386 5.20725 10.4685ZM4.875 4.9245V2.94225C4.875 2.80422 4.91309 2.66886 4.98507 2.55109C5.05706 2.43332 5.16015 2.33769 5.283 2.27475C5.83425 1.992 7.2555 1.5 9 1.5C10.7437 1.5 12.1657 1.992 12.717 2.27475C12.8398 2.33769 12.9429 2.43332 13.0149 2.55109C13.0869 2.66886 13.125 2.80422 13.125 2.94225V4.9245C13.6103 4.84875 14.148 4.833 14.6535 4.95075C15.123 5.0595 15.6038 5.292 15.963 5.7345C16.3245 6.18 16.5 6.75975 16.5 7.44225C16.5 9.16275 15.4485 10.545 14.052 11.4622C12.8453 12.2535 11.3153 12.7492 9.75 12.8707V15H13.05C13.2489 15 13.4397 15.079 13.5803 15.2197C13.721 15.3603 13.8 15.5511 13.8 15.75C13.8 15.9489 13.721 16.1397 13.5803 16.2803C13.4397 16.421 13.2489 16.5 13.05 16.5H4.95C4.75109 16.5 4.56032 16.421 4.41967 16.2803C4.27902 16.1397 4.2 15.9489 4.2 15.75C4.2 15.5511 4.27902 15.3603 4.41967 15.2197C4.56032 15.079 4.75109 15 4.95 15H8.25V12.8707C6.68475 12.7492 5.15475 12.2535 3.948 11.4615C2.5515 10.545 1.5 9.16275 1.5 7.44225C1.5 6.75975 1.6755 6.18 2.037 5.7345C2.397 5.292 2.877 5.0595 3.3465 4.95075C3.852 4.833 4.38975 4.84875 4.875 4.9245ZM13.125 6.44925C13.527 6.36225 13.965 6.33075 14.3153 6.41175C14.5492 6.4665 14.7015 6.56025 14.799 6.68025C14.8942 6.798 15 7.01775 15 7.44225C15 8.4915 14.364 9.46275 13.2292 10.2075C13.0898 10.299 12.9442 10.386 12.7927 10.4685C13.006 9.9471 13.1188 9.39005 13.125 8.82675V6.45V6.44925Z" fill="#8C8C8C"/>
</svg>
