<svg width="36" height="36" viewBox="0 0 36 36" fill="none" xmlns="http://www.w3.org/2000/svg">
<g clip-path="url(#clip0_20_2444)">
<path d="M18.0003 35.9997C27.9414 35.9997 36.0002 27.9409 36.0002 17.9998C36.0002 8.0588 27.9414 0 18.0003 0C8.05929 0 0.000488281 8.0588 0.000488281 17.9998C0.000488281 27.9409 8.05929 35.9997 18.0003 35.9997Z" fill="#55ACEE"/>
<path d="M29.0257 12.936C28.2544 13.278 27.4246 13.5094 26.5544 13.6127C27.4429 13.0804 28.1247 12.2381 28.4466 11.2328C27.6152 11.726 26.694 12.0838 25.7144 12.2766C24.9296 11.4408 23.8114 10.9184 22.5731 10.9184C20.1975 10.9184 18.2707 12.8452 18.2707 15.2209C18.2707 15.5581 18.3089 15.8863 18.3827 16.2014C14.807 16.0221 11.6365 14.3093 9.5143 11.7055C9.14402 12.3408 8.93161 13.0804 8.93161 13.8687C8.93161 15.3611 9.69174 16.6785 10.8456 17.4499C10.1406 17.4278 9.47676 17.2343 8.89696 16.9112C8.89664 16.9295 8.89663 16.9477 8.89663 16.9657C8.89663 19.0504 10.3803 20.7891 12.3482 21.1841C11.9875 21.2829 11.6067 21.3352 11.2149 21.3352C10.937 21.3352 10.6678 21.3086 10.4053 21.2586C10.9527 22.9675 12.5413 24.2115 14.4245 24.2464C12.9517 25.4006 11.0968 26.0882 9.08049 26.0882C8.73396 26.0882 8.39063 26.068 8.05469 26.0279C9.95773 27.2491 12.2198 27.9611 14.6494 27.9611C22.5632 27.9611 26.891 21.4052 26.891 15.7192C26.891 15.5327 26.8868 15.347 26.8785 15.1628C27.7198 14.5563 28.4491 13.7988 29.0257 12.936Z" fill="#F1F2F2"/>
</g>
<defs>
<clipPath id="clip0_20_2444">
<rect width="36" height="36" fill="white"/>
</clipPath>
</defs>
</svg>
