<svg width="56" height="57" viewBox="0 0 56 57" fill="none" xmlns="http://www.w3.org/2000/svg">
<g clip-path="url(#clip0_11_104)">
<g clip-path="url(#clip1_11_104)">
<g clip-path="url(#clip2_11_104)">
<path d="M48 0.599976H8C3.58172 0.599976 0 4.1817 0 8.59998V48.6C0 53.0183 3.58172 56.6 8 56.6H48C52.4183 56.6 56 53.0183 56 48.6V8.59998C56 4.1817 52.4183 0.599976 48 0.599976Z" fill="#FFCE8B"/>
<path d="M26.5756 44.6C25.9672 44.499 25.3504 44.5391 24.7378 44.4894C23.5611 44.3912 22.3898 44.2764 21.2448 43.975C20.989 43.9072 20.7304 43.8353 20.5258 43.6362C21.1646 43.7067 21.8035 43.7786 22.4424 43.8477C23.9275 44.0081 25.4182 44.0358 26.9117 44.0413C30.0935 44.0524 33.2491 43.8145 36.355 43.0844C37.3105 42.8604 38.2564 42.5894 39.1137 42.0888C39.3281 41.9643 39.523 41.8053 39.783 41.6228C39.7415 41.9381 39.6198 42.1607 39.4456 42.3626C39.0294 42.8438 38.4749 43.1162 37.9024 43.3472C36.7117 43.827 35.4603 44.0565 34.1964 44.2294C32.862 44.4119 31.5234 44.5336 30.1751 44.553C30.0839 44.553 29.9926 44.5834 29.8999 44.6H26.577H26.5756Z" fill="#933C23" fill-opacity="0.8"/>
<path d="M27.9598 30.0305C27.072 29.2935 26.2492 28.497 25.4845 27.641C24.9065 26.9911 24.3852 26.3024 24.0381 25.4949C23.5762 24.4232 23.6744 23.4275 24.3796 22.4844C25.1595 21.4418 26.1704 20.6494 27.1785 19.8529C28.1949 19.0495 29.2237 18.2627 30.0589 17.2587C31.1223 15.981 31.5634 14.536 31.2177 12.8821C31.1984 12.7936 31.1693 12.6996 31.2122 12.6C31.356 12.6041 31.3892 12.7328 31.4459 12.8199C32.1207 13.8528 32.2037 14.9688 31.8704 16.1262C31.5247 17.3307 30.8029 18.3111 29.9732 19.2251C29.1407 20.1419 28.1423 20.8721 27.2255 21.6935C26.7249 22.1429 26.2948 22.6532 25.9519 23.2312C25.2536 24.4038 25.3352 25.5764 25.9547 26.7505C26.4387 27.6687 27.1093 28.4652 27.6473 29.3488C27.7759 29.5618 27.9058 29.7733 27.9612 30.0292L27.9598 30.0305Z" fill="#933C23" fill-opacity="0.8"/>
<path d="M21.2324 39.8154C20.422 39.8859 19.7043 40.0477 19.0185 40.3395C18.8152 40.4252 18.6161 40.5165 18.4391 40.6479C18.1431 40.865 18.1528 41.0738 18.4847 41.2314C18.988 41.472 19.5301 41.5951 20.0749 41.6933C21.3402 41.9201 22.618 42.0266 23.9026 42.0971C25.5012 42.1842 27.0997 42.1842 28.6955 42.1317C31.251 42.0473 33.8064 41.9021 36.3135 41.3282C36.7021 41.2397 37.0823 41.1263 37.4363 40.9397C37.9189 40.6852 37.9978 40.4944 37.8595 39.9827C38.4458 40.1763 38.5495 40.6078 38.1015 41.0199C37.6673 41.4195 37.1197 41.6103 36.5762 41.7956C35.1561 42.281 33.6847 42.5271 32.2023 42.7263C29.7105 43.0609 27.2048 43.0955 24.6991 43.0305C22.2557 42.9669 19.8247 42.7235 17.4172 42.2879C17.1185 42.234 16.8267 42.1524 16.557 42.0072C16.0744 41.7458 16.026 41.3559 16.4436 40.9811C16.8377 40.6271 17.3093 40.3976 17.7988 40.2095C18.7212 39.8555 19.6601 39.5803 20.664 39.6315C20.8397 39.6398 21.018 39.637 21.2351 39.8154H21.2324Z" fill="#933C23" fill-opacity="0.8"/>
<path d="M29.1961 31.0912C29.2929 30.9709 29.3911 30.8506 29.4865 30.7289C30.1917 29.8342 30.2042 28.8385 29.5058 27.9439C29.0301 27.334 28.5544 26.7297 28.2737 25.9927C27.7745 24.679 28.0456 23.5133 28.9154 22.454C29.7022 21.4971 30.7296 20.8583 31.8165 20.3107C32.7776 19.8253 33.7815 19.4409 34.8187 19.1422C34.8975 19.12 34.9763 19.1021 35.0911 19.073C35.0316 19.2224 34.9168 19.2542 34.827 19.3081C33.6446 20.0175 32.472 20.7421 31.4169 21.6382C30.9938 21.9977 30.6024 22.3863 30.2885 22.8481C29.7782 23.599 29.7713 24.3692 30.2014 25.1533C30.4531 25.6124 30.7656 26.0314 31.0657 26.4587C31.9106 27.659 31.8857 28.5869 30.9675 29.7346C30.4932 30.3279 29.8916 30.769 29.1975 31.0912H29.1961Z" fill="#933C23" fill-opacity="0.8"/>
<path d="M23.6979 37.3291C23.3536 37.773 23.3992 37.9362 23.8776 38.0897C24.3284 38.2349 24.8014 38.257 25.266 38.3082C27.1466 38.5114 29.0148 38.4077 30.8665 38.0288C31.1361 37.9735 31.3684 37.9846 31.6076 38.1395C31.9672 38.3745 32.3668 38.5308 32.7595 38.7036C32.8328 38.7355 32.9476 38.7424 32.9531 38.8378C32.9587 38.9429 32.8411 38.9429 32.7692 38.9719C31.551 39.4642 30.2843 39.767 28.9789 39.8929C27.3389 40.0519 25.7057 40.0132 24.0989 39.5928C23.6121 39.4656 23.142 39.2913 22.7119 39.0258C22.0468 38.6138 22.0634 38.0634 22.7493 37.6886C23.0314 37.5352 23.3231 37.3996 23.6965 37.3263L23.6979 37.3291Z" fill="#933C23" fill-opacity="0.8"/>
<path d="M24.2469 30.2074C23.5886 30.3872 22.9567 30.5642 22.3372 30.7813C21.9804 30.9071 21.6375 31.0565 21.3139 31.2501C21.1977 31.3192 21.0733 31.4022 21.0843 31.5598C21.0954 31.7244 21.242 31.7728 21.3664 31.8184C21.9334 32.0189 22.5294 32.0576 23.1212 32.106C24.6548 32.2305 26.1897 32.1655 27.7219 32.0964C29.9427 31.9968 32.1525 31.7562 34.347 31.3911C34.4383 31.3759 34.5282 31.3358 34.6983 31.4202C34.1161 31.6539 33.6722 32.048 33.108 32.1932C31.8012 32.5306 30.4668 32.6979 29.1241 32.8237C27.3969 32.9869 25.6656 33.0394 23.933 32.9897C22.6718 32.9537 21.4107 32.8707 20.1675 32.626C19.8287 32.5596 19.4955 32.4697 19.1774 32.3328C18.9866 32.2499 18.7695 32.1683 18.7446 31.9249C18.7183 31.676 18.9244 31.5598 19.1014 31.4547C19.5881 31.163 20.1191 30.9707 20.6487 30.7799C21.7564 30.3803 22.9055 30.1784 24.0795 30.1217C24.1293 30.1189 24.1832 30.1092 24.2469 30.2074Z" fill="#933C23" fill-opacity="0.8"/>
<path d="M22.8697 33.8416C22.8697 33.9771 22.7784 34.0283 22.7286 34.103C22.5032 34.4514 22.5682 34.6755 22.9526 34.8428C23.3052 34.9963 23.6855 35.0059 24.0561 35.0461C26.4996 35.3046 28.9334 35.2258 31.345 34.7584C31.9216 34.6464 32.4347 34.5966 32.8993 35.0516C33.0625 35.212 33.31 35.2853 33.523 35.4001C33.469 35.548 33.3321 35.5245 33.2326 35.5522C31.6976 35.9712 30.1378 36.2408 28.5503 36.3431C26.7333 36.4607 24.9232 36.469 23.131 36.0818C22.6097 35.9684 22.0939 35.8301 21.6431 35.5273C21.1425 35.1912 21.1384 34.7875 21.6279 34.4265C21.9985 34.1527 22.4133 33.973 22.8655 33.8416H22.8697Z" fill="#933C23" fill-opacity="0.8"/>
<path d="M35.3967 30.4468C35.7452 30.0361 36.1462 29.9517 36.5458 29.8895C37.4129 29.754 38.2301 29.8729 38.9464 30.4302C39.754 31.0594 40.0167 32.1103 39.595 33.0451C39.2949 33.7116 38.8109 34.2219 38.2232 34.6409C37.222 35.353 36.0992 35.79 34.9251 36.115C34.8878 36.1247 34.8463 36.115 34.7827 36.115C34.8228 35.9158 34.9874 35.8799 35.1132 35.8108C35.9955 35.3254 36.8334 34.7792 37.5249 34.038C37.9881 33.5415 38.3629 32.9856 38.4126 32.2832C38.4956 31.1257 37.4861 30.1619 36.3315 30.285C36.0452 30.3154 35.7631 30.3804 35.3967 30.444V30.4468Z" fill="#933C23" fill-opacity="0.8"/>
</g>
</g>
</g>
<defs>
<clipPath id="clip0_11_104">
<rect y="0.599976" width="56" height="56" rx="8" fill="white"/>
</clipPath>
<clipPath id="clip1_11_104">
<rect width="56" height="56" fill="white" transform="translate(0 0.599976)"/>
</clipPath>
<clipPath id="clip2_11_104">
<rect width="56" height="56" fill="white" transform="translate(0 0.599976)"/>
</clipPath>
</defs>
</svg>
