<svg width="56" height="57" viewBox="0 0 56 57" fill="none" xmlns="http://www.w3.org/2000/svg">
<g clip-path="url(#clip0_11_309)">
<g clip-path="url(#clip1_11_309)">
<g clip-path="url(#clip2_11_309)">
<path d="M48 0.780029H8C3.58172 0.780029 0 4.36175 0 8.78003V48.78C0 53.1983 3.58172 56.78 8 56.78H48C52.4183 56.78 56 53.1983 56 48.78V8.78003C56 4.36175 52.4183 0.780029 48 0.780029Z" fill="#E1DEFF"/>
<path d="M28.1162 19.4074L17.7295 37.2451" stroke="#574FA7"/>
<path d="M38.1162 37.2451L27.7295 19.4074" stroke="#574FA7"/>
<path d="M38.0596 43.2482C40.8539 43.2482 43.1191 40.983 43.1191 38.1886C43.1191 35.3943 40.8539 33.1291 38.0596 33.1291C35.2652 33.1291 33 35.3943 33 38.1886C33 40.983 35.2652 43.2482 38.0596 43.2482Z" fill="#B2ACF2" stroke="#574FA7"/>
<path d="M17.9404 43.7482C21.0109 43.7482 23.5 41.2591 23.5 38.1886C23.5 35.1182 21.0109 32.6291 17.9404 32.6291C14.87 32.6291 12.3809 35.1182 12.3809 38.1886C12.3809 41.2591 14.87 43.7482 17.9404 43.7482Z" fill="#574FA7"/>
<path d="M28.0654 24.9312C31.1359 24.9312 33.625 22.4421 33.625 19.3716C33.625 16.3012 31.1359 13.8121 28.0654 13.8121C24.995 13.8121 22.5059 16.3012 22.5059 19.3716C22.5059 22.4421 24.995 24.9312 28.0654 24.9312Z" fill="#574FA7"/>
</g>
</g>
</g>
<defs>
<clipPath id="clip0_11_309">
<rect y="0.780029" width="56" height="56" rx="8" fill="white"/>
</clipPath>
<clipPath id="clip1_11_309">
<rect width="56" height="56" fill="white" transform="translate(0 0.780029)"/>
</clipPath>
<clipPath id="clip2_11_309">
<rect width="56" height="56" fill="white" transform="translate(0 0.780029)"/>
</clipPath>
</defs>
</svg>
