<svg width="56" height="57" viewBox="0 0 56 57" fill="none" xmlns="http://www.w3.org/2000/svg">
<g clip-path="url(#clip0_11_202)">
<g clip-path="url(#clip1_11_202)">
<g clip-path="url(#clip2_11_202)">
<path d="M48 0.190002H8C3.58172 0.190002 0 3.77172 0 8.19V48.19C0 52.6083 3.58172 56.19 8 56.19H48C52.4183 56.19 56 52.6083 56 48.19V8.19C56 3.77172 52.4183 0.190002 48 0.190002Z" fill="#AEB6DF"/>
<path d="M29.0333 44.19H28.0024C27.7392 44.1327 27.4852 44.0541 27.2496 43.9177C26.1551 43.2835 25.0589 42.6523 23.9632 42.0199C21.3121 40.4897 18.6615 38.9594 16.011 37.428C15.7747 37.2915 15.5253 37.174 15.3109 37.0032C14.7989 36.5949 14.4887 36.0583 14.3311 35.4282C14.3127 35.3554 14.3007 35.2808 14.2858 35.2069C14.2858 30.541 14.2858 25.8746 14.2858 21.2087C14.2904 21.191 14.2967 21.1738 14.2995 21.156C14.3471 20.8326 14.4595 20.531 14.6183 20.2472C14.8442 19.843 15.1343 19.4973 15.5414 19.2622C17.1599 18.3277 18.779 17.3926 20.3976 16.458C22.5849 15.1955 24.7716 13.933 26.9589 12.6705C27.2112 12.5249 27.4583 12.3701 27.7444 12.2921C28.0488 12.209 28.3584 12.178 28.6721 12.1941C29.0614 12.2142 29.434 12.3002 29.7757 12.4974C31.6695 13.5913 33.5632 14.6847 35.4576 15.778C37.4012 16.9001 39.3431 18.025 41.2902 19.1407C41.6886 19.3689 42.0338 19.6447 42.2855 20.0317C42.5653 20.4605 42.7533 20.9186 42.7533 21.4409C42.7533 25.9531 42.7533 30.4653 42.7533 34.9775C42.7533 35.04 42.7574 35.1037 42.7482 35.165C42.6152 36.0394 42.2087 36.7429 41.4312 37.1924C37.6907 39.3567 33.9468 41.5148 30.2046 43.6763C29.8325 43.8913 29.4684 44.1206 29.0333 44.19ZM19.0348 28.2092C19.0325 28.5957 19.0571 28.9804 19.1053 29.3628C19.2715 30.6907 19.693 31.9314 20.3873 33.0781C21.1389 34.3182 22.117 35.3416 23.3297 36.1368C24.6363 36.994 26.0691 37.4957 27.6257 37.6442C28.3412 37.7124 29.0556 37.7003 29.7671 37.6046C30.8766 37.4549 31.9286 37.1213 32.9194 36.5984C34.4972 35.7647 35.7471 34.5831 36.6679 33.0534C36.7258 32.9571 36.7252 32.9565 36.6289 32.9009C35.3223 32.1447 34.015 31.389 32.709 30.631C32.6511 30.5972 32.6241 30.6007 32.5874 30.6603C31.5909 32.2909 29.7734 33.1755 27.886 32.9124C26.3391 32.6968 25.1666 31.8912 24.3858 30.5376C23.8829 29.6661 23.6897 28.7201 23.7975 27.7185C23.9328 26.4651 24.4804 25.4194 25.4373 24.6041C26.4601 23.732 27.655 23.3467 28.9937 23.4912C30.5434 23.6586 31.7337 24.4258 32.5725 25.7387C32.6316 25.8316 32.6298 25.8327 32.7262 25.7771C34.0288 25.0238 35.3309 24.2704 36.6335 23.5164C36.7269 23.4625 36.7281 23.4597 36.6736 23.3685C36.2178 22.6065 35.6686 21.9203 35.0201 21.3119C34.2908 20.6274 33.4761 20.0695 32.5714 19.6435C31.06 18.9314 29.4719 18.6339 27.8052 18.756C27.0799 18.8093 26.3701 18.9423 25.6781 19.1631C23.8136 19.7576 22.2696 20.8229 21.0621 22.3606C19.7159 24.0749 19.0525 26.0334 19.0348 28.2115V28.2092Z" fill="#293693"/>
</g>
</g>
</g>
<defs>
<clipPath id="clip0_11_202">
<rect y="0.190002" width="56" height="56" rx="8" fill="white"/>
</clipPath>
<clipPath id="clip1_11_202">
<rect width="56" height="56" fill="white" transform="translate(0 0.190002)"/>
</clipPath>
<clipPath id="clip2_11_202">
<rect width="56" height="56" fill="white" transform="translate(0 0.190002)"/>
</clipPath>
</defs>
</svg>
