<svg width="56" height="57" viewBox="0 0 56 57" fill="none" xmlns="http://www.w3.org/2000/svg">
<g clip-path="url(#clip0_11_553)">
<g clip-path="url(#clip1_11_553)">
<g clip-path="url(#clip2_11_553)">
<path d="M48 0.350098H8C3.58172 0.350098 0 3.93182 0 8.3501V48.3501C0 52.7684 3.58172 56.3501 8 56.3501H48C52.4183 56.3501 56 52.7684 56 48.3501V8.3501C56 3.93182 52.4183 0.350098 48 0.350098Z" fill="#AEB6DF"/>
<path d="M29.0333 44.3501H28.0024C27.7392 44.2928 27.4852 44.2142 27.2496 44.0778C26.1551 43.4436 25.0589 42.8124 23.9632 42.18C21.3121 40.6498 18.6615 39.1195 16.011 37.5881C15.7747 37.4516 15.5253 37.3341 15.3109 37.1633C14.7989 36.755 14.4887 36.2184 14.3311 35.5883C14.3127 35.5155 14.3007 35.4409 14.2858 35.367C14.2858 30.7011 14.2858 26.0347 14.2858 21.3688C14.2904 21.3511 14.2967 21.3339 14.2995 21.3161C14.3471 20.9927 14.4595 20.6911 14.6183 20.4073C14.8442 20.0031 15.1343 19.6574 15.5414 19.4223C17.1599 18.4878 18.779 17.5527 20.3976 16.6181C22.5849 15.3556 24.7716 14.0931 26.9589 12.8306C27.2112 12.685 27.4583 12.5302 27.7444 12.4522C28.0488 12.3691 28.3584 12.3381 28.6721 12.3542C29.0614 12.3743 29.434 12.4603 29.7757 12.6575C31.6695 13.7514 33.5632 14.8448 35.4576 15.9381C37.4012 17.0602 39.3431 18.1851 41.2902 19.3008C41.6886 19.529 42.0338 19.8048 42.2855 20.1918C42.5653 20.6206 42.7533 21.0787 42.7533 21.601C42.7533 26.1132 42.7533 30.6254 42.7533 35.1376C42.7533 35.2001 42.7574 35.2638 42.7482 35.3251C42.6152 36.1995 42.2087 36.903 41.4312 37.3525C37.6907 39.5168 33.9468 41.6749 30.2046 43.8364C29.8325 44.0514 29.4684 44.2807 29.0333 44.3501ZM19.0348 28.3693C19.0325 28.7558 19.0571 29.1405 19.1053 29.5229C19.2715 30.8508 19.693 32.0915 20.3873 33.2382C21.1389 34.4783 22.117 35.5017 23.3297 36.2969C24.6363 37.1541 26.0691 37.6558 27.6257 37.8043C28.3412 37.8725 29.0556 37.8604 29.7671 37.7647C30.8766 37.615 31.9286 37.2814 32.9194 36.7585C34.4972 35.9248 35.7471 34.7432 36.6679 33.2135C36.7258 33.1172 36.7252 33.1166 36.6289 33.061C35.3223 32.3048 34.015 31.5491 32.709 30.7911C32.6511 30.7573 32.6241 30.7608 32.5874 30.8204C31.5909 32.451 29.7734 33.3356 27.886 33.0725C26.3391 32.8569 25.1666 32.0513 24.3858 30.6977C23.8829 29.8262 23.6897 28.8802 23.7975 27.8786C23.9328 26.6252 24.4804 25.5795 25.4373 24.7642C26.4601 23.8921 27.655 23.5068 28.9937 23.6513C30.5434 23.8187 31.7337 24.5859 32.5725 25.8988C32.6316 25.9917 32.6298 25.9928 32.7262 25.9372C34.0288 25.1839 35.3309 24.4305 36.6335 23.6765C36.7269 23.6226 36.7281 23.6198 36.6736 23.5286C36.2178 22.7666 35.6686 22.0804 35.0201 21.472C34.2908 20.7875 33.4761 20.2296 32.5714 19.8036C31.06 19.0915 29.4719 18.794 27.8052 18.9161C27.0799 18.9694 26.3701 19.1024 25.6781 19.3232C23.8136 19.9177 22.2696 20.983 21.0621 22.5207C19.7159 24.235 19.0525 26.1935 19.0348 28.3716V28.3693Z" fill="#293693"/>
</g>
</g>
</g>
<defs>
<clipPath id="clip0_11_553">
<rect y="0.350098" width="56" height="56" rx="8" fill="white"/>
</clipPath>
<clipPath id="clip1_11_553">
<rect width="56" height="56" fill="white" transform="translate(0 0.350098)"/>
</clipPath>
<clipPath id="clip2_11_553">
<rect width="56" height="56" fill="white" transform="translate(0 0.350098)"/>
</clipPath>
</defs>
</svg>
