<svg width="56" height="57" viewBox="0 0 56 57" fill="none" xmlns="http://www.w3.org/2000/svg">
<g clip-path="url(#clip0_11_494)">
<g clip-path="url(#clip1_11_494)">
<g clip-path="url(#clip2_11_494)">
<path d="M48 0.75H8C3.58172 0.75 0 4.33172 0 8.75V48.75C0 53.1683 3.58172 56.75 8 56.75H48C52.4183 56.75 56 53.1683 56 48.75V8.75C56 4.33172 52.4183 0.75 48 0.75Z" fill="#AEB6DF"/>
<path d="M29.0333 44.75H28.0024C27.7392 44.6927 27.4852 44.6141 27.2496 44.4777C26.1551 43.8435 25.0589 43.2123 23.9632 42.5799C21.3121 41.0497 18.6615 39.5194 16.011 37.988C15.7747 37.8515 15.5253 37.734 15.3109 37.5632C14.7989 37.1549 14.4887 36.6183 14.3311 35.9882C14.3127 35.9154 14.3007 35.8408 14.2858 35.7669C14.2858 31.101 14.2858 26.4346 14.2858 21.7687C14.2904 21.751 14.2967 21.7338 14.2995 21.716C14.3471 21.3926 14.4595 21.091 14.6183 20.8072C14.8442 20.403 15.1343 20.0573 15.5414 19.8222C17.1599 18.8877 18.779 17.9526 20.3976 17.018C22.5849 15.7555 24.7716 14.493 26.9589 13.2305C27.2112 13.0849 27.4583 12.9301 27.7444 12.8521C28.0488 12.769 28.3584 12.738 28.6721 12.7541C29.0614 12.7742 29.434 12.8602 29.7757 13.0574C31.6695 14.1513 33.5632 15.2447 35.4576 16.338C37.4012 17.4601 39.3431 18.585 41.2902 19.7007C41.6886 19.9289 42.0338 20.2047 42.2855 20.5917C42.5653 21.0205 42.7533 21.4786 42.7533 22.0009C42.7533 26.5131 42.7533 31.0253 42.7533 35.5375C42.7533 35.6 42.7574 35.6637 42.7482 35.725C42.6152 36.5994 42.2087 37.3029 41.4312 37.7524C37.6907 39.9167 33.9468 42.0748 30.2046 44.2363C29.8325 44.4513 29.4684 44.6806 29.0333 44.75ZM19.0348 28.7692C19.0325 29.1557 19.0571 29.5404 19.1053 29.9228C19.2715 31.2507 19.693 32.4914 20.3873 33.6381C21.1389 34.8782 22.117 35.9016 23.3297 36.6968C24.6363 37.554 26.0691 38.0557 27.6257 38.2042C28.3412 38.2724 29.0556 38.2603 29.7671 38.1646C30.8766 38.0149 31.9286 37.6813 32.9194 37.1584C34.4972 36.3247 35.7471 35.1431 36.6679 33.6134C36.7258 33.5171 36.7252 33.5165 36.6289 33.4609C35.3223 32.7047 34.015 31.949 32.709 31.191C32.6511 31.1572 32.6241 31.1607 32.5874 31.2203C31.5909 32.8509 29.7734 33.7355 27.886 33.4724C26.3391 33.2568 25.1666 32.4512 24.3858 31.0976C23.8829 30.2261 23.6897 29.2801 23.7975 28.2785C23.9328 27.0251 24.4804 25.9794 25.4373 25.1641C26.4601 24.292 27.655 23.9067 28.9937 24.0512C30.5434 24.2186 31.7337 24.9858 32.5725 26.2987C32.6316 26.3916 32.6298 26.3927 32.7262 26.3371C34.0288 25.5838 35.3309 24.8304 36.6335 24.0764C36.7269 24.0225 36.7281 24.0197 36.6736 23.9285C36.2178 23.1665 35.6686 22.4803 35.0201 21.8719C34.2908 21.1874 33.4761 20.6295 32.5714 20.2035C31.06 19.4914 29.4719 19.1939 27.8052 19.316C27.0799 19.3693 26.3701 19.5023 25.6781 19.7231C23.8136 20.3176 22.2696 21.3829 21.0621 22.9206C19.7159 24.6349 19.0525 26.5934 19.0348 28.7715V28.7692Z" fill="#293693"/>
</g>
</g>
</g>
<defs>
<clipPath id="clip0_11_494">
<rect y="0.75" width="56" height="56" rx="8" fill="white"/>
</clipPath>
<clipPath id="clip1_11_494">
<rect width="56" height="56" fill="white" transform="translate(0 0.75)"/>
</clipPath>
<clipPath id="clip2_11_494">
<rect width="56" height="56" fill="white" transform="translate(0 0.75)"/>
</clipPath>
</defs>
</svg>
