<svg width="56" height="57" viewBox="0 0 56 57" fill="none" xmlns="http://www.w3.org/2000/svg">
<g clip-path="url(#clip0_11_90)">
<g clip-path="url(#clip1_11_90)">
<g clip-path="url(#clip2_11_90)">
<path d="M48 0.599976H8C3.58172 0.599976 0 4.1817 0 8.59998V48.6C0 53.0183 3.58172 56.6 8 56.6H48C52.4183 56.6 56 53.0183 56 48.6V8.59998C56 4.1817 52.4183 0.599976 48 0.599976Z" fill="#CA9ED6"/>
<mask id="mask0_11_90" style="mask-type:luminance" maskUnits="userSpaceOnUse" x="12" y="12" width="32" height="33">
<path d="M44 12.6H12V44.6H44V12.6Z" fill="white"/>
</mask>
<g mask="url(#mask0_11_90)">
<path d="M14.1313 35.7712V21.4416C14.4385 20.5296 15.0977 19.9664 15.9169 19.4992C19.3697 17.5344 22.8097 15.5536 26.2369 13.5472C27.4017 12.8656 28.4961 12.8592 29.6577 13.5376C33.1617 15.5792 36.6752 17.6112 40.2016 19.6144C41.3472 20.264 41.8689 21.192 41.8657 22.4944C41.8496 26.552 41.8528 30.6096 41.8657 34.6704C41.8689 35.9632 41.3729 36.904 40.2145 37.5568C37.4657 39.0992 34.7489 40.7056 32.0097 42.264C30.8417 42.9296 29.7377 43.7136 28.4545 44.1648H27.4305C27.0241 43.992 26.6113 43.8352 26.2241 43.6112C22.8161 41.64 19.4113 39.6624 15.9873 37.7168C15.1585 37.2464 14.4609 36.696 14.1281 35.7744L14.1313 35.7712ZM27.9713 37.7296C31.2161 37.6592 33.7601 36.2864 35.6161 33.6176C35.8593 33.2656 35.8241 33.08 35.4401 32.8688C34.4705 32.3376 33.5073 31.7808 32.5665 31.1984C32.1409 30.936 31.9073 30.9488 31.5777 31.3872C30.2561 33.1344 27.9233 33.6656 25.9809 32.7248C24.0161 31.7712 22.9633 29.5696 23.5201 27.4608C23.9969 25.6496 25.1873 24.4976 27.0113 24.104C28.8641 23.704 30.416 24.3184 31.5872 25.7936C31.8817 26.1648 32.0833 26.1872 32.4608 25.9568C33.4081 25.3808 34.3745 24.8432 35.3344 24.2896C35.9009 23.9632 35.9169 23.9472 35.5329 23.4224C33.2449 20.2992 30.1697 18.9552 26.3521 19.576C21.9649 20.2896 18.3041 24.36 18.8737 29.672C19.3601 34.2128 23.3441 37.7872 27.9713 37.7264V37.7296ZM36.7487 29.5088C37.4367 29.5024 37.4752 29.5472 37.3984 30.168C37.3888 30.2352 37.3825 30.3024 37.3792 30.3728C37.3696 30.5328 37.3569 30.696 37.5777 30.7152C37.7505 30.7312 37.9361 30.7344 38.0161 30.5392C38.0737 30.3984 38.1089 30.2448 38.1217 30.0944C38.1537 29.7232 38.2817 29.4768 38.7136 29.4992C38.9025 29.5088 39.0464 29.4224 39.0625 29.208C39.0816 28.9776 38.9633 28.8624 38.7393 28.8336C38.6049 28.8176 38.4704 28.8016 38.4096 28.6416C38.256 28.2256 38.6176 27.5536 39.0688 27.448C39.216 27.4128 39.3281 27.3584 39.3568 27.2016C39.3792 27.0608 39.376 26.8688 39.2319 26.8464C38.6368 26.7536 38.7392 26.3664 38.8224 25.976C38.8576 25.8128 38.8449 25.656 38.6561 25.6016C38.4609 25.5472 38.2689 25.5792 38.1889 25.7936C38.128 25.9504 38.0993 26.1232 38.0737 26.2896C38.0224 26.6032 37.8721 26.76 37.5329 26.776C36.8193 26.808 36.7553 26.7568 36.8064 26.0464C36.8225 25.8288 36.8257 25.6208 36.5377 25.5888C36.2785 25.56 36.1665 25.7104 36.1313 25.944C36.1185 26.0272 36.0833 26.1104 36.0769 26.1936C36.0545 26.5744 35.8881 26.7952 35.4753 26.7888C35.2833 26.7856 35.1521 26.8848 35.1425 27.096C35.1329 27.2976 35.2257 27.416 35.4305 27.448C35.5617 27.4672 35.7057 27.4544 35.7792 27.6112C35.9489 27.9824 35.5969 28.76 35.2097 28.8304C35.0016 28.8656 34.8449 28.9232 34.8417 29.1664C34.8385 29.3712 34.944 29.4896 35.1456 29.5024C35.4304 29.5248 35.4688 29.7008 35.4367 29.9312C35.4208 30.0496 35.3984 30.168 35.376 30.2832C35.3408 30.488 35.3505 30.6704 35.6063 30.7088C35.8176 30.7408 35.9777 30.6608 36.0353 30.4432C36.0673 30.328 36.0992 30.2128 36.1088 30.0944C36.1408 29.6528 36.3552 29.4384 36.7552 29.5088H36.7487Z" fill="#68217A" fill-opacity="0.8"/>
<path d="M36.9792 28.84C36.7808 28.7696 36.3872 29.0032 36.3872 28.488C36.3872 27.6816 36.5632 27.4256 37.1904 27.448C37.4368 27.4544 37.8144 27.2912 37.8176 27.7936C37.8208 28.5968 37.6448 28.8368 36.9824 28.84H36.9792Z" fill="#68217A" fill-opacity="0.8"/>
</g>
</g>
</g>
</g>
<defs>
<clipPath id="clip0_11_90">
<rect y="0.599976" width="56" height="56" rx="8" fill="white"/>
</clipPath>
<clipPath id="clip1_11_90">
<rect width="56" height="56" fill="white" transform="translate(0 0.599976)"/>
</clipPath>
<clipPath id="clip2_11_90">
<rect width="56" height="56" fill="white" transform="translate(0 0.599976)"/>
</clipPath>
</defs>
</svg>
