<svg width="56" height="57" viewBox="0 0 56 57" fill="none" xmlns="http://www.w3.org/2000/svg">
<g clip-path="url(#clip0_11_706)">
<g clip-path="url(#clip1_11_706)">
<g clip-path="url(#clip2_11_706)">
<path d="M48 0.310059H8C3.58172 0.310059 0 3.89178 0 8.31006V48.3101C0 52.7283 3.58172 56.3101 8 56.3101H48C52.4183 56.3101 56 52.7283 56 48.3101V8.31006C56 3.89178 52.4183 0.310059 48 0.310059Z" fill="#CA9ED6"/>
<mask id="mask0_11_706" style="mask-type:luminance" maskUnits="userSpaceOnUse" x="12" y="12" width="32" height="33">
<path d="M44 12.3101H12V44.3101H44V12.3101Z" fill="white"/>
</mask>
<g mask="url(#mask0_11_706)">
<path d="M14.1313 35.4812V21.1516C14.4385 20.2396 15.0977 19.6764 15.9169 19.2092C19.3697 17.2444 22.8097 15.2636 26.2369 13.2572C27.4017 12.5756 28.4961 12.5692 29.6577 13.2476C33.1617 15.2892 36.6752 17.3212 40.2016 19.3244C41.3472 19.974 41.8689 20.902 41.8657 22.2044C41.8496 26.262 41.8528 30.3196 41.8657 34.3804C41.8689 35.6732 41.3729 36.614 40.2145 37.2668C37.4657 38.8092 34.7489 40.4157 32.0097 41.9741C30.8417 42.6397 29.7377 43.4236 28.4545 43.8748H27.4305C27.0241 43.702 26.6113 43.5452 26.2241 43.3212C22.8161 41.35 19.4113 39.3724 15.9873 37.4268C15.1585 36.9564 14.4609 36.406 14.1281 35.4844L14.1313 35.4812ZM27.9713 37.4396C31.2161 37.3692 33.7601 35.9965 35.6161 33.3277C35.8593 32.9757 35.8241 32.79 35.4401 32.5788C34.4705 32.0476 33.5073 31.4908 32.5665 30.9084C32.1409 30.646 31.9073 30.6588 31.5777 31.0972C30.2561 32.8444 27.9233 33.3757 25.9809 32.4349C24.0161 31.4813 22.9633 29.2796 23.5201 27.1708C23.9969 25.3596 25.1873 24.2076 27.0113 23.814C28.8641 23.414 30.416 24.0284 31.5872 25.5036C31.8817 25.8748 32.0833 25.8972 32.4608 25.6668C33.4081 25.0908 34.3745 24.5532 35.3344 23.9996C35.9009 23.6732 35.9169 23.6572 35.5329 23.1324C33.2449 20.0092 30.1697 18.6652 26.3521 19.286C21.9649 19.9996 18.3041 24.07 18.8737 29.382C19.3601 33.9228 23.3441 37.4972 27.9713 37.4364V37.4396ZM36.7487 29.2188C37.4367 29.2125 37.4752 29.2572 37.3984 29.878C37.3888 29.9452 37.3825 30.0124 37.3792 30.0828C37.3696 30.2428 37.3569 30.406 37.5777 30.4252C37.7505 30.4412 37.9361 30.4444 38.0161 30.2492C38.0737 30.1084 38.1089 29.9548 38.1217 29.8044C38.1537 29.4332 38.2817 29.1868 38.7136 29.2092C38.9025 29.2188 39.0464 29.1324 39.0625 28.918C39.0816 28.6876 38.9633 28.5724 38.7393 28.5436C38.6049 28.5276 38.4704 28.5116 38.4096 28.3516C38.256 27.9356 38.6176 27.2636 39.0688 27.158C39.216 27.1228 39.3281 27.0684 39.3568 26.9116C39.3792 26.7708 39.376 26.5788 39.2319 26.5564C38.6368 26.4636 38.7392 26.0764 38.8224 25.686C38.8576 25.5228 38.8449 25.366 38.6561 25.3116C38.4609 25.2572 38.2689 25.2892 38.1889 25.5036C38.128 25.6604 38.0993 25.8332 38.0737 25.9996C38.0224 26.3132 37.8721 26.47 37.5329 26.486C36.8193 26.518 36.7553 26.4668 36.8064 25.7564C36.8225 25.5388 36.8257 25.3308 36.5377 25.2988C36.2785 25.27 36.1665 25.4204 36.1313 25.654C36.1185 25.7372 36.0833 25.8204 36.0769 25.9036C36.0545 26.2844 35.8881 26.5052 35.4753 26.4988C35.2833 26.4957 35.1521 26.5948 35.1425 26.806C35.1329 27.0076 35.2257 27.126 35.4305 27.158C35.5617 27.1772 35.7057 27.1644 35.7792 27.3212C35.9489 27.6924 35.5969 28.47 35.2097 28.5404C35.0016 28.5756 34.8449 28.6332 34.8417 28.8764C34.8385 29.0812 34.944 29.1996 35.1456 29.2124C35.4304 29.2348 35.4688 29.4108 35.4367 29.6412C35.4208 29.7596 35.3984 29.878 35.376 29.9932C35.3408 30.198 35.3505 30.3804 35.6063 30.4188C35.8176 30.4508 35.9777 30.3708 36.0353 30.1532C36.0673 30.038 36.0992 29.9228 36.1088 29.8044C36.1408 29.3628 36.3552 29.1484 36.7552 29.2188H36.7487Z" fill="#68217A" fill-opacity="0.8"/>
<path d="M36.9792 28.5501C36.7808 28.4797 36.3872 28.7133 36.3872 28.1981C36.3872 27.3917 36.5632 27.1357 37.1904 27.1581C37.4368 27.1645 37.8144 27.0013 37.8176 27.5037C37.8208 28.3069 37.6448 28.5469 36.9824 28.5501H36.9792Z" fill="#68217A" fill-opacity="0.8"/>
</g>
</g>
</g>
</g>
<defs>
<clipPath id="clip0_11_706">
<rect y="0.310059" width="56" height="56" rx="8" fill="white"/>
</clipPath>
<clipPath id="clip1_11_706">
<rect width="56" height="56" fill="white" transform="translate(0 0.310059)"/>
</clipPath>
<clipPath id="clip2_11_706">
<rect width="56" height="56" fill="white" transform="translate(0 0.310059)"/>
</clipPath>
</defs>
</svg>
