<svg width="56" height="57" viewBox="0 0 56 57" fill="none" xmlns="http://www.w3.org/2000/svg">
<g clip-path="url(#clip0_11_236)">
<g clip-path="url(#clip1_11_236)">
<g clip-path="url(#clip2_11_236)">
<path d="M48 0.190002H8C3.58172 0.190002 0 3.77172 0 8.19V48.19C0 52.6083 3.58172 56.19 8 56.19H48C52.4183 56.19 56 52.6083 56 48.19V8.19C56 3.77172 52.4183 0.190002 48 0.190002Z" fill="#CA9ED6"/>
<mask id="mask0_11_236" style="mask-type:luminance" maskUnits="userSpaceOnUse" x="12" y="12" width="32" height="33">
<path d="M44 12.19H12V44.19H44V12.19Z" fill="white"/>
</mask>
<g mask="url(#mask0_11_236)">
<path d="M14.1313 35.3612V21.0316C14.4385 20.1196 15.0977 19.5564 15.9169 19.0892C19.3697 17.1244 22.8097 15.1436 26.2369 13.1372C27.4017 12.4556 28.4961 12.4492 29.6577 13.1276C33.1617 15.1692 36.6752 17.2012 40.2016 19.2044C41.3472 19.854 41.8689 20.782 41.8657 22.0844C41.8496 26.142 41.8528 30.1996 41.8657 34.2604C41.8689 35.5532 41.3729 36.494 40.2145 37.1468C37.4657 38.6892 34.7489 40.2956 32.0097 41.854C30.8417 42.5196 29.7377 43.3036 28.4545 43.7548H27.4305C27.0241 43.582 26.6113 43.4252 26.2241 43.2012C22.8161 41.23 19.4113 39.2524 15.9873 37.3068C15.1585 36.8364 14.4609 36.286 14.1281 35.3644L14.1313 35.3612ZM27.9713 37.3196C31.2161 37.2492 33.7601 35.8764 35.6161 33.2076C35.8593 32.8556 35.8241 32.67 35.4401 32.4588C34.4705 31.9276 33.5073 31.3708 32.5665 30.7884C32.1409 30.526 31.9073 30.5388 31.5777 30.9772C30.2561 32.7244 27.9233 33.2556 25.9809 32.3148C24.0161 31.3612 22.9633 29.1596 23.5201 27.0508C23.9969 25.2396 25.1873 24.0876 27.0113 23.694C28.8641 23.294 30.416 23.9084 31.5872 25.3836C31.8817 25.7548 32.0833 25.7772 32.4608 25.5468C33.4081 24.9708 34.3745 24.4332 35.3344 23.8796C35.9009 23.5532 35.9169 23.5372 35.5329 23.0124C33.2449 19.8892 30.1697 18.5452 26.3521 19.166C21.9649 19.8796 18.3041 23.95 18.8737 29.262C19.3601 33.8028 23.3441 37.3772 27.9713 37.3164V37.3196ZM36.7487 29.0988C37.4367 29.0924 37.4752 29.1372 37.3984 29.758C37.3888 29.8252 37.3825 29.8924 37.3792 29.9628C37.3696 30.1228 37.3569 30.286 37.5777 30.3052C37.7505 30.3212 37.9361 30.3244 38.0161 30.1292C38.0737 29.9884 38.1089 29.8348 38.1217 29.6844C38.1537 29.3132 38.2817 29.0668 38.7136 29.0892C38.9025 29.0988 39.0464 29.0124 39.0625 28.798C39.0816 28.5676 38.9633 28.4524 38.7393 28.4236C38.6049 28.4076 38.4704 28.3916 38.4096 28.2316C38.256 27.8156 38.6176 27.1436 39.0688 27.038C39.216 27.0028 39.3281 26.9484 39.3568 26.7916C39.3792 26.6508 39.376 26.4588 39.2319 26.4364C38.6368 26.3436 38.7392 25.9564 38.8224 25.566C38.8576 25.4028 38.8449 25.246 38.6561 25.1916C38.4609 25.1372 38.2689 25.1692 38.1889 25.3836C38.128 25.5404 38.0993 25.7132 38.0737 25.8796C38.0224 26.1932 37.8721 26.35 37.5329 26.366C36.8193 26.398 36.7553 26.3468 36.8064 25.6364C36.8225 25.4188 36.8257 25.2108 36.5377 25.1788C36.2785 25.15 36.1665 25.3004 36.1313 25.534C36.1185 25.6172 36.0833 25.7004 36.0769 25.7836C36.0545 26.1644 35.8881 26.3852 35.4753 26.3788C35.2833 26.3756 35.1521 26.4748 35.1425 26.686C35.1329 26.8876 35.2257 27.006 35.4305 27.038C35.5617 27.0572 35.7057 27.0444 35.7792 27.2012C35.9489 27.5724 35.5969 28.35 35.2097 28.4204C35.0016 28.4556 34.8449 28.5132 34.8417 28.7564C34.8385 28.9612 34.944 29.0796 35.1456 29.0924C35.4304 29.1148 35.4688 29.2908 35.4367 29.5212C35.4208 29.6396 35.3984 29.758 35.376 29.8732C35.3408 30.078 35.3505 30.2604 35.6063 30.2988C35.8176 30.3308 35.9777 30.2508 36.0353 30.0332C36.0673 29.918 36.0992 29.8028 36.1088 29.6844C36.1408 29.2428 36.3552 29.0284 36.7552 29.0988H36.7487Z" fill="#68217A" fill-opacity="0.8"/>
<path d="M36.9792 28.43C36.7808 28.3596 36.3872 28.5932 36.3872 28.078C36.3872 27.2716 36.5632 27.0156 37.1904 27.038C37.4368 27.0444 37.8144 26.8812 37.8176 27.3836C37.8208 28.1868 37.6448 28.4268 36.9824 28.43H36.9792Z" fill="#68217A" fill-opacity="0.8"/>
</g>
</g>
</g>
</g>
<defs>
<clipPath id="clip0_11_236">
<rect y="0.190002" width="56" height="56" rx="8" fill="white"/>
</clipPath>
<clipPath id="clip1_11_236">
<rect width="56" height="56" fill="white" transform="translate(0 0.190002)"/>
</clipPath>
<clipPath id="clip2_11_236">
<rect width="56" height="56" fill="white" transform="translate(0 0.190002)"/>
</clipPath>
</defs>
</svg>
