<svg width="56" height="57" viewBox="0 0 56 57" fill="none" xmlns="http://www.w3.org/2000/svg">
<g clip-path="url(#clip0_11_63)">
<g clip-path="url(#clip1_11_63)">
<g clip-path="url(#clip2_11_63)">
<path d="M48 0.599976H8C3.58172 0.599976 0 4.1817 0 8.59998V48.6C0 53.0183 3.58172 56.6 8 56.6H48C52.4183 56.6 56 53.0183 56 48.6V8.59998C56 4.1817 52.4183 0.599976 48 0.599976Z" fill="#AEB6DF"/>
<path d="M29.0333 44.6H28.0024C27.7392 44.5427 27.4852 44.4641 27.2496 44.3277C26.1551 43.6935 25.0589 43.0623 23.9632 42.4299C21.3121 40.8997 18.6615 39.3694 16.011 37.838C15.7747 37.7015 15.5253 37.584 15.3109 37.4132C14.7989 37.0049 14.4887 36.4683 14.3311 35.8382C14.3127 35.7654 14.3007 35.6908 14.2858 35.6169C14.2858 30.951 14.2858 26.2846 14.2858 21.6187C14.2904 21.601 14.2967 21.5838 14.2995 21.566C14.3471 21.2426 14.4595 20.941 14.6183 20.6572C14.8442 20.253 15.1343 19.9073 15.5414 19.6722C17.1599 18.7377 18.779 17.8026 20.3976 16.868C22.5849 15.6055 24.7716 14.343 26.9589 13.0805C27.2112 12.9349 27.4583 12.7801 27.7444 12.7021C28.0488 12.619 28.3584 12.588 28.6721 12.6041C29.0614 12.6242 29.434 12.7102 29.7757 12.9074C31.6695 14.0013 33.5632 15.0947 35.4576 16.188C37.4012 17.3101 39.3431 18.435 41.2902 19.5507C41.6886 19.7789 42.0338 20.0547 42.2855 20.4417C42.5653 20.8705 42.7533 21.3286 42.7533 21.8509C42.7533 26.3631 42.7533 30.8753 42.7533 35.3875C42.7533 35.45 42.7574 35.5137 42.7482 35.575C42.6152 36.4494 42.2087 37.1529 41.4312 37.6024C37.6907 39.7667 33.9468 41.9248 30.2046 44.0863C29.8325 44.3013 29.4684 44.5306 29.0333 44.6ZM19.0348 28.6192C19.0325 29.0057 19.0571 29.3904 19.1053 29.7728C19.2715 31.1007 19.693 32.3414 20.3873 33.4881C21.1389 34.7282 22.117 35.7516 23.3297 36.5468C24.6363 37.404 26.0691 37.9057 27.6257 38.0542C28.3412 38.1224 29.0556 38.1103 29.7671 38.0146C30.8766 37.8649 31.9286 37.5313 32.9194 37.0084C34.4972 36.1747 35.7471 34.9931 36.6679 33.4634C36.7258 33.3671 36.7252 33.3665 36.6289 33.3109C35.3223 32.5547 34.015 31.799 32.709 31.041C32.6511 31.0072 32.6241 31.0107 32.5874 31.0703C31.5909 32.7009 29.7734 33.5855 27.886 33.3224C26.3391 33.1068 25.1666 32.3012 24.3858 30.9476C23.8829 30.0761 23.6897 29.1301 23.7975 28.1285C23.9328 26.8751 24.4804 25.8294 25.4373 25.0141C26.4601 24.142 27.655 23.7567 28.9937 23.9012C30.5434 24.0686 31.7337 24.8358 32.5725 26.1487C32.6316 26.2416 32.6298 26.2427 32.7262 26.1871C34.0288 25.4338 35.3309 24.6804 36.6335 23.9264C36.7269 23.8725 36.7281 23.8697 36.6736 23.7785C36.2178 23.0165 35.6686 22.3303 35.0201 21.7219C34.2908 21.0374 33.4761 20.4795 32.5714 20.0535C31.06 19.3414 29.4719 19.0439 27.8052 19.166C27.0799 19.2193 26.3701 19.3523 25.6781 19.5731C23.8136 20.1676 22.2696 21.2329 21.0621 22.7706C19.7159 24.4849 19.0525 26.4434 19.0348 28.6215V28.6192Z" fill="#293693"/>
</g>
</g>
</g>
<defs>
<clipPath id="clip0_11_63">
<rect y="0.599976" width="56" height="56" rx="8" fill="white"/>
</clipPath>
<clipPath id="clip1_11_63">
<rect width="56" height="56" fill="white" transform="translate(0 0.599976)"/>
</clipPath>
<clipPath id="clip2_11_63">
<rect width="56" height="56" fill="white" transform="translate(0 0.599976)"/>
</clipPath>
</defs>
</svg>
