<svg width="56" height="57" viewBox="0 0 56 57" fill="none" xmlns="http://www.w3.org/2000/svg">
<g clip-path="url(#clip0_11_455)">
<g clip-path="url(#clip1_11_455)">
<g clip-path="url(#clip2_11_455)">
<path d="M48 0.159912H8C3.58172 0.159912 0 3.74163 0 8.15991V48.1599C0 52.5782 3.58172 56.1599 8 56.1599H48C52.4183 56.1599 56 52.5782 56 48.1599V8.15991C56 3.74163 52.4183 0.159912 48 0.159912Z" fill="#AEB6DF"/>
<path d="M29.0333 44.1599H28.0024C27.7392 44.1026 27.4852 44.024 27.2496 43.8876C26.1551 43.2534 25.0589 42.6222 23.9632 41.9898C21.3121 40.4596 18.6615 38.9293 16.011 37.3979C15.7747 37.2614 15.5253 37.1439 15.3109 36.9731C14.7989 36.5648 14.4887 36.0282 14.3311 35.3981C14.3127 35.3253 14.3007 35.2507 14.2858 35.1768C14.2858 30.5109 14.2858 25.8445 14.2858 21.1786C14.2904 21.1609 14.2967 21.1437 14.2995 21.1259C14.3471 20.8025 14.4595 20.5009 14.6183 20.2171C14.8442 19.8129 15.1343 19.4672 15.5414 19.2321C17.1599 18.2976 18.779 17.3625 20.3976 16.4279C22.5849 15.1654 24.7716 13.9029 26.9589 12.6404C27.2112 12.4948 27.4583 12.34 27.7444 12.262C28.0488 12.1789 28.3584 12.1479 28.6721 12.164C29.0614 12.1841 29.434 12.2701 29.7757 12.4673C31.6695 13.5612 33.5632 14.6546 35.4576 15.7479C37.4012 16.87 39.3431 17.9949 41.2902 19.1106C41.6886 19.3388 42.0338 19.6146 42.2855 20.0016C42.5653 20.4304 42.7533 20.8885 42.7533 21.4108C42.7533 25.923 42.7533 30.4352 42.7533 34.9474C42.7533 35.0099 42.7574 35.0736 42.7482 35.1349C42.6152 36.0093 42.2087 36.7128 41.4312 37.1623C37.6907 39.3266 33.9468 41.4847 30.2046 43.6462C29.8325 43.8612 29.4684 44.0905 29.0333 44.1599ZM19.0348 28.1791C19.0325 28.5656 19.0571 28.9503 19.1053 29.3327C19.2715 30.6606 19.693 31.9013 20.3873 33.048C21.1389 34.2881 22.117 35.3115 23.3297 36.1067C24.6363 36.9639 26.0691 37.4656 27.6257 37.6141C28.3412 37.6823 29.0556 37.6702 29.7671 37.5745C30.8766 37.4248 31.9286 37.0912 32.9194 36.5683C34.4972 35.7346 35.7471 34.553 36.6679 33.0233C36.7258 32.927 36.7252 32.9264 36.6289 32.8708C35.3223 32.1146 34.015 31.3589 32.709 30.6009C32.6511 30.5671 32.6241 30.5706 32.5874 30.6302C31.5909 32.2608 29.7734 33.1454 27.886 32.8823C26.3391 32.6667 25.1666 31.8611 24.3858 30.5075C23.8829 29.636 23.6897 28.69 23.7975 27.6884C23.9328 26.435 24.4804 25.3893 25.4373 24.574C26.4601 23.7019 27.655 23.3166 28.9937 23.4611C30.5434 23.6285 31.7337 24.3957 32.5725 25.7086C32.6316 25.8015 32.6298 25.8026 32.7262 25.747C34.0288 24.9937 35.3309 24.2403 36.6335 23.4863C36.7269 23.4324 36.7281 23.4296 36.6736 23.3384C36.2178 22.5764 35.6686 21.8902 35.0201 21.2818C34.2908 20.5973 33.4761 20.0394 32.5714 19.6134C31.06 18.9013 29.4719 18.6038 27.8052 18.7259C27.0799 18.7792 26.3701 18.9122 25.6781 19.133C23.8136 19.7275 22.2696 20.7928 21.0621 22.3305C19.7159 24.0448 19.0525 26.0033 19.0348 28.1814V28.1791Z" fill="#293693"/>
</g>
</g>
</g>
<defs>
<clipPath id="clip0_11_455">
<rect y="0.159912" width="56" height="56" rx="8" fill="white"/>
</clipPath>
<clipPath id="clip1_11_455">
<rect width="56" height="56" fill="white" transform="translate(0 0.159912)"/>
</clipPath>
<clipPath id="clip2_11_455">
<rect width="56" height="56" fill="white" transform="translate(0 0.159912)"/>
</clipPath>
</defs>
</svg>
