<svg width="56" height="57" viewBox="0 0 56 57" fill="none" xmlns="http://www.w3.org/2000/svg">
<g clip-path="url(#clip0_11_445)">
<g clip-path="url(#clip1_11_445)">
<g clip-path="url(#clip2_11_445)">
<path d="M48 0.159912H8C3.58172 0.159912 0 3.74163 0 8.15991V48.1599C0 52.5782 3.58172 56.1599 8 56.1599H48C52.4183 56.1599 56 52.5782 56 48.1599V8.15991C56 3.74163 52.4183 0.159912 48 0.159912Z" fill="#FFCE8B"/>
<path d="M26.576 44.1599C25.968 44.0589 25.351 44.0989 24.738 44.0489C23.561 43.9509 22.39 43.8359 21.245 43.5349C20.989 43.4669 20.731 43.3949 20.526 43.1959L22.443 43.4079C23.928 43.5679 25.419 43.5959 26.912 43.6019C30.094 43.6129 33.249 43.3749 36.355 42.6449C37.311 42.4209 38.256 42.1499 39.114 41.6489C39.328 41.5249 39.523 41.3659 39.783 41.1829C39.75 41.4585 39.6322 41.7171 39.446 41.9229C39.03 42.4039 38.475 42.6769 37.903 42.9079C36.712 43.3879 35.461 43.6169 34.197 43.7899C32.863 43.9729 31.524 44.0939 30.176 44.1139C30.085 44.1139 29.993 44.1439 29.901 44.1609H26.578L26.576 44.1599ZM27.96 29.5909C27.0767 28.8572 26.2494 28.0587 25.485 27.2019C24.907 26.5519 24.386 25.8629 24.039 25.0559C23.577 23.9839 23.675 22.9889 24.38 22.0449C25.16 21.0019 26.171 20.2099 27.179 19.4139C28.195 18.6109 29.224 17.8239 30.059 16.8199C31.122 15.5419 31.564 14.0969 31.218 12.4429C31.199 12.3549 31.17 12.2609 31.212 12.1609C31.356 12.1649 31.389 12.2939 31.446 12.3809C32.121 13.4139 32.204 14.5299 31.87 15.6869C31.524 16.8909 30.803 17.8719 29.973 18.7859C29.143 19.6999 28.142 20.4329 27.225 21.2539C26.7244 21.6986 26.2948 22.2173 25.951 22.7919C25.253 23.9649 25.334 25.1369 25.954 26.3109C26.438 27.2289 27.109 28.0259 27.647 28.9089C27.776 29.1219 27.905 29.3339 27.961 29.5889L27.96 29.5909ZM21.232 39.3749C20.422 39.4449 19.704 39.6069 19.018 39.8989C18.8134 39.9783 18.6191 40.0817 18.439 40.2069C18.143 40.4239 18.153 40.6329 18.485 40.7909C18.988 41.0319 19.53 41.1549 20.075 41.2529C21.34 41.4799 22.618 41.5859 23.903 41.6569L28.696 41.6919C31.252 41.6079 33.807 41.4619 36.314 40.8889C36.703 40.7999 37.083 40.6869 37.437 40.4999C37.92 40.2449 37.998 40.0549 37.86 39.5429C38.446 39.7369 38.55 40.1679 38.102 40.5799C37.668 40.9799 37.12 41.1699 36.577 41.3559C35.157 41.8409 33.685 42.0879 32.203 42.2869C29.711 42.6219 27.205 42.6559 24.7 42.5909C22.2572 42.5294 19.8228 42.281 17.418 41.8479C17.119 41.7939 16.827 41.7119 16.558 41.5669C16.075 41.3059 16.027 40.9159 16.445 40.5409C16.839 40.1869 17.311 39.9569 17.8 39.7689C18.722 39.4149 19.661 39.1399 20.665 39.1909C20.841 39.1989 21.019 39.1959 21.236 39.3749H21.232ZM29.196 30.6509L29.486 30.2889C30.191 29.3939 30.204 28.3989 29.505 27.5039C29.029 26.8939 28.554 26.2899 28.273 25.5529C27.774 24.2389 28.045 23.0739 28.915 22.0139C29.702 21.0569 30.729 20.4179 31.816 19.8709C32.7779 19.3885 33.783 18.9975 34.818 18.7029L35.09 18.6339C35.031 18.7829 34.916 18.8149 34.826 18.8689C33.644 19.5779 32.471 20.3029 31.416 21.1989C30.993 21.5589 30.602 21.9469 30.288 22.4089C29.778 23.1599 29.771 23.9299 30.201 24.7139C30.453 25.1729 30.765 25.5919 31.065 26.0189C31.91 27.2189 31.885 28.1469 30.967 29.2949C30.493 29.8879 29.891 30.3289 29.197 30.6519H29.196V30.6509ZM23.698 36.8889C23.354 37.3329 23.399 37.4959 23.878 37.6499C24.329 37.7949 24.802 37.8169 25.266 37.8679C27.1361 38.0659 29.0257 37.9718 30.867 37.5889C31.137 37.5339 31.369 37.5449 31.608 37.6999C31.968 37.9349 32.367 38.0909 32.76 38.2639C32.833 38.2959 32.948 38.3029 32.954 38.3979C32.96 38.5029 32.842 38.5029 32.77 38.5319C31.5577 39.0201 30.2811 39.3303 28.98 39.4529C27.34 39.6119 25.707 39.5729 24.1 39.1529C23.613 39.0259 23.143 38.8509 22.713 38.5859C22.048 38.1739 22.065 37.6239 22.75 37.2489C23.0445 37.0788 23.3641 36.9566 23.697 36.8869L23.698 36.8889ZM24.247 29.7679L22.337 30.3419C21.9811 30.4635 21.6384 30.6207 21.314 30.8109C21.198 30.8799 21.073 30.9629 21.084 31.1209C21.095 31.2859 21.242 31.3339 21.366 31.3799C21.933 31.5809 22.529 31.6189 23.121 31.6679C24.655 31.7929 26.189 31.7269 27.722 31.6579C29.9424 31.5557 32.1547 31.3203 34.347 30.9529C34.438 30.9379 34.528 30.8979 34.698 30.9819C34.116 31.2159 33.672 31.6099 33.108 31.7549C31.801 32.0919 30.467 32.2599 29.124 32.3849C27.3987 32.5466 25.6651 32.602 23.933 32.5509C22.672 32.5149 21.411 32.4319 20.168 32.1869C19.8285 32.1247 19.4966 32.0265 19.178 31.8939C18.987 31.8109 18.77 31.7289 18.745 31.4859C18.719 31.2369 18.925 31.1209 19.102 31.0159C19.589 30.7239 20.12 30.5319 20.649 30.3409C21.757 29.9409 22.906 29.7389 24.08 29.6829C24.13 29.6799 24.184 29.6699 24.247 29.7679ZM22.87 33.4019C22.87 33.5379 22.779 33.5889 22.729 33.6629C22.504 34.0109 22.569 34.2349 22.953 34.4029C23.306 34.5559 23.686 34.5659 24.057 34.6059C26.501 34.8639 28.934 34.7859 31.346 34.3179C31.923 34.2059 32.436 34.1559 32.9 34.6109C33.063 34.7709 33.311 34.8449 33.524 34.9599C33.47 35.1079 33.333 35.0839 33.234 35.1119C31.699 35.5309 30.139 35.8009 28.552 35.9029C26.735 36.0209 24.925 36.0289 23.133 35.6419C22.612 35.5289 22.096 35.3899 21.645 35.0879C21.144 34.7519 21.14 34.3479 21.63 33.9869C22.001 33.7129 22.415 33.5329 22.868 33.4019H22.872H22.87ZM35.397 30.0069C35.745 29.5959 36.146 29.5119 36.546 29.4499C37.413 29.3139 38.23 29.4329 38.947 29.9909C39.755 30.6199 40.017 31.6709 39.596 32.6059C39.296 33.2729 38.812 33.7829 38.224 34.2019C37.223 34.9139 36.1 35.3509 34.926 35.6759C34.889 35.6859 34.847 35.6759 34.784 35.6759C34.824 35.4769 34.989 35.4409 35.115 35.3719C35.997 34.8869 36.835 34.3399 37.527 33.5989C37.99 33.1019 38.365 32.5469 38.415 31.8439C38.498 30.6869 37.489 29.7229 36.334 29.8459C36.048 29.8759 35.766 29.9409 35.399 30.0049V30.0079L35.397 30.0069Z" fill="#933C23" fill-opacity="0.8"/>
</g>
</g>
</g>
<defs>
<clipPath id="clip0_11_445">
<rect y="0.159912" width="56" height="56" rx="8" fill="white"/>
</clipPath>
<clipPath id="clip1_11_445">
<rect width="56" height="56" fill="white" transform="translate(0 0.159912)"/>
</clipPath>
<clipPath id="clip2_11_445">
<rect width="56" height="56" fill="white" transform="translate(0 0.159912)"/>
</clipPath>
</defs>
</svg>
