<svg width="56" height="57" viewBox="0 0 56 57" fill="none" xmlns="http://www.w3.org/2000/svg">
<g clip-path="url(#clip0_11_435)">
<g clip-path="url(#clip1_11_435)">
<g clip-path="url(#clip2_11_435)">
<path d="M48 0.159912H8C3.58172 0.159912 0 3.74163 0 8.15991V48.1599C0 52.5782 3.58172 56.1599 8 56.1599H48C52.4183 56.1599 56 52.5782 56 48.1599V8.15991C56 3.74163 52.4183 0.159912 48 0.159912Z" fill="#A4D0FF"/>
<path d="M29.033 44.1599H28.002C27.739 44.1029 27.485 44.0239 27.249 43.8879L23.963 41.9899L16.011 37.3979C15.775 37.2619 15.525 37.1439 15.311 36.9729C14.799 36.5649 14.489 36.0279 14.331 35.3979L14.286 35.1769V21.1789L14.3 21.1259C14.3497 20.8059 14.4578 20.4978 14.619 20.2169C14.845 19.8129 15.135 19.4669 15.542 19.2319L20.398 16.4279L26.959 12.6399C27.211 12.4939 27.458 12.3399 27.744 12.2619C28.0461 12.1799 28.3594 12.1468 28.672 12.1639C29.061 12.1839 29.434 12.2699 29.776 12.4669L35.458 15.7479L41.291 19.1109C41.689 19.3389 42.035 19.6149 42.286 20.0019C42.566 20.4309 42.754 20.8889 42.754 21.4109V34.9479C42.754 35.0109 42.758 35.0739 42.749 35.1359C42.616 36.0099 42.21 36.7139 41.432 37.1629L30.205 43.6469C29.833 43.8619 29.468 44.0899 29.033 44.1599ZM19.035 28.1789C19.033 28.5647 19.0564 28.9502 19.105 29.3329C19.271 30.6609 19.693 31.9019 20.387 33.0479C21.1242 34.2766 22.13 35.3224 23.329 36.1069C24.636 36.9639 26.068 37.4659 27.625 37.6139C28.341 37.6819 29.055 37.6699 29.766 37.5739C30.8679 37.4278 31.9352 37.0872 32.918 36.5679C34.4723 35.7569 35.7704 34.5295 36.667 33.0229C36.725 32.9269 36.724 32.9259 36.628 32.8709L32.708 30.6009C32.65 30.5669 32.623 30.5709 32.586 30.6299C31.589 32.2609 29.772 33.1449 27.885 32.8819C27.1542 32.7949 26.4549 32.5338 25.8458 32.1206C25.2368 31.7073 24.7359 31.1539 24.385 30.5069C23.882 29.6349 23.689 28.6899 23.797 27.6879C23.932 26.4349 24.48 25.3889 25.437 24.5739C26.46 23.7019 27.655 23.3169 28.993 23.4609C30.543 23.6279 31.733 24.3959 32.572 25.7079C32.631 25.8009 32.629 25.8019 32.726 25.7459L36.633 23.4849C36.726 23.4309 36.728 23.4279 36.673 23.3369C36.217 22.5749 35.668 21.8889 35.019 21.2799C34.29 20.5959 33.475 20.0379 32.57 19.6119C31.0864 18.9042 29.4429 18.5983 27.804 18.7249C27.079 18.7779 26.369 18.9109 25.677 19.1319C23.813 19.7269 22.269 20.7919 21.061 22.3299C19.715 24.0439 19.051 26.0029 19.034 28.1809L19.035 28.1789ZM40.901 29.2269V28.8129C40.901 28.6969 40.904 28.6939 41.018 28.6939H41.846C41.941 28.6939 41.95 28.6849 41.95 28.5909V27.7629C41.95 27.6699 41.942 27.6619 41.846 27.6609C41.567 27.6599 41.289 27.6609 41.01 27.6599C40.906 27.6599 40.901 27.6539 40.901 27.5479L40.902 26.6969C40.903 26.6269 40.88 26.5999 40.807 26.6009L39.964 26.6019C39.868 26.6019 39.862 26.6079 39.861 26.7039V27.5399C39.861 27.6529 39.854 27.6599 39.742 27.6599H38.906C38.81 27.6599 38.802 27.6679 38.802 27.7619V28.5899C38.802 28.6849 38.809 28.6919 38.905 28.6929H39.748C39.852 28.6929 39.86 28.7019 39.86 28.8039V29.6549C39.859 29.7259 39.884 29.7509 39.956 29.7509H40.815C40.88 29.7509 40.903 29.7269 40.902 29.6629L40.901 29.2269ZM35.908 29.2229L35.907 29.6519C35.9027 29.6658 35.9023 29.6806 35.9058 29.6947C35.9093 29.7089 35.9166 29.7218 35.9269 29.732C35.9372 29.7423 35.9501 29.7496 35.9642 29.7531C35.9783 29.7566 35.9931 29.7562 36.007 29.7519L36.835 29.7509C36.933 29.7509 36.94 29.7429 36.941 29.6429V28.8469C36.941 28.7449 36.991 28.6949 37.09 28.6949H37.894C37.989 28.6949 37.997 28.6859 37.997 28.5919V27.7639C37.997 27.6699 37.989 27.6629 37.893 27.6629C37.619 27.6619 37.347 27.6629 37.073 27.6629C36.944 27.6629 36.941 27.6599 36.941 27.5329V26.7129C36.941 26.6129 36.933 26.6049 36.836 26.6049H36.016C35.916 26.6049 35.91 26.6109 35.909 26.7109V27.5459C35.909 27.6539 35.901 27.6619 35.794 27.6619H34.959C34.858 27.6619 34.852 27.6679 34.851 27.7679V28.5799C34.851 28.6889 34.856 28.6939 34.966 28.6949H35.809C35.882 28.6949 35.912 28.7199 35.911 28.7949L35.91 29.2249L35.909 29.2239L35.908 29.2229Z" fill="#004482" fill-opacity="0.8"/>
</g>
</g>
</g>
<defs>
<clipPath id="clip0_11_435">
<rect y="0.159912" width="56" height="56" rx="8" fill="white"/>
</clipPath>
<clipPath id="clip1_11_435">
<rect width="56" height="56" fill="white" transform="translate(0 0.159912)"/>
</clipPath>
<clipPath id="clip2_11_435">
<rect width="56" height="56" fill="white" transform="translate(0 0.159912)"/>
</clipPath>
</defs>
</svg>
