<svg width="56" height="57" viewBox="0 0 56 57" fill="none" xmlns="http://www.w3.org/2000/svg">
<g clip-path="url(#clip0_11_174)">
<g clip-path="url(#clip1_11_174)">
<g clip-path="url(#clip2_11_174)">
<path d="M48 0.190002H8C3.58172 0.190002 0 3.77172 0 8.19V48.19C0 52.6083 3.58172 56.19 8 56.19H48C52.4183 56.19 56 52.6083 56 48.19V8.19C56 3.77172 52.4183 0.190002 48 0.190002Z" fill="#A4D0FF"/>
<path d="M29.033 44.19H28.002C27.739 44.133 27.485 44.054 27.249 43.918L23.963 42.02L16.011 37.428C15.775 37.292 15.525 37.174 15.311 37.003C14.799 36.595 14.489 36.058 14.331 35.428L14.286 35.207V21.209L14.3 21.156C14.3497 20.836 14.4578 20.5279 14.619 20.247C14.845 19.843 15.135 19.497 15.542 19.262L20.398 16.458L26.959 12.67C27.211 12.524 27.458 12.37 27.744 12.292C28.0461 12.21 28.3594 12.1769 28.672 12.194C29.061 12.214 29.434 12.3 29.776 12.497L35.458 15.778L41.291 19.141C41.689 19.369 42.035 19.645 42.286 20.032C42.566 20.461 42.754 20.919 42.754 21.441V34.978C42.754 35.041 42.758 35.104 42.749 35.166C42.616 36.04 42.21 36.744 41.432 37.193L30.205 43.677C29.833 43.892 29.468 44.12 29.033 44.19ZM19.035 28.209C19.033 28.5948 19.0564 28.9803 19.105 29.363C19.271 30.691 19.693 31.932 20.387 33.078C21.1242 34.3067 22.13 35.3525 23.329 36.137C24.636 36.994 26.068 37.496 27.625 37.644C28.341 37.712 29.055 37.7 29.766 37.604C30.8679 37.4579 31.9352 37.1173 32.918 36.598C34.4723 35.787 35.7704 34.5596 36.667 33.053C36.725 32.957 36.724 32.956 36.628 32.901L32.708 30.631C32.65 30.597 32.623 30.601 32.586 30.66C31.589 32.291 29.772 33.175 27.885 32.912C27.1542 32.825 26.4549 32.5639 25.8458 32.1507C25.2368 31.7374 24.7359 31.184 24.385 30.537C23.882 29.665 23.689 28.72 23.797 27.718C23.932 26.465 24.48 25.419 25.437 24.604C26.46 23.732 27.655 23.347 28.993 23.491C30.543 23.658 31.733 24.426 32.572 25.738C32.631 25.831 32.629 25.832 32.726 25.776L36.633 23.515C36.726 23.461 36.728 23.458 36.673 23.367C36.217 22.605 35.668 21.919 35.019 21.31C34.29 20.626 33.475 20.068 32.57 19.642C31.0864 18.9343 29.4429 18.6284 27.804 18.755C27.079 18.808 26.369 18.941 25.677 19.162C23.813 19.757 22.269 20.822 21.061 22.36C19.715 24.074 19.051 26.033 19.034 28.211L19.035 28.209ZM40.901 29.257V28.843C40.901 28.727 40.904 28.724 41.018 28.724H41.846C41.941 28.724 41.95 28.715 41.95 28.621V27.793C41.95 27.7 41.942 27.692 41.846 27.691C41.567 27.69 41.289 27.691 41.01 27.69C40.906 27.69 40.901 27.684 40.901 27.578L40.902 26.727C40.903 26.657 40.88 26.63 40.807 26.631L39.964 26.632C39.868 26.632 39.862 26.638 39.861 26.734V27.57C39.861 27.683 39.854 27.69 39.742 27.69H38.906C38.81 27.69 38.802 27.698 38.802 27.792V28.62C38.802 28.715 38.809 28.722 38.905 28.723H39.748C39.852 28.723 39.86 28.732 39.86 28.834V29.685C39.859 29.756 39.884 29.781 39.956 29.781H40.815C40.88 29.781 40.903 29.757 40.902 29.693L40.901 29.257ZM35.908 29.253L35.907 29.682C35.9027 29.6959 35.9023 29.7107 35.9058 29.7248C35.9093 29.739 35.9166 29.7518 35.9269 29.7621C35.9372 29.7724 35.9501 29.7797 35.9642 29.7832C35.9783 29.7867 35.9931 29.7863 36.007 29.782L36.835 29.781C36.933 29.781 36.94 29.773 36.941 29.673V28.877C36.941 28.775 36.991 28.725 37.09 28.725H37.894C37.989 28.725 37.997 28.716 37.997 28.622V27.794C37.997 27.7 37.989 27.693 37.893 27.693C37.619 27.692 37.347 27.693 37.073 27.693C36.944 27.693 36.941 27.69 36.941 27.563V26.743C36.941 26.643 36.933 26.635 36.836 26.635H36.016C35.916 26.635 35.91 26.641 35.909 26.741V27.576C35.909 27.684 35.901 27.692 35.794 27.692H34.959C34.858 27.692 34.852 27.698 34.851 27.798V28.61C34.851 28.719 34.856 28.724 34.966 28.725H35.809C35.882 28.725 35.912 28.75 35.911 28.825L35.91 29.255L35.909 29.254L35.908 29.253Z" fill="#004482" fill-opacity="0.8"/>
</g>
</g>
</g>
<defs>
<clipPath id="clip0_11_174">
<rect y="0.190002" width="56" height="56" rx="8" fill="white"/>
</clipPath>
<clipPath id="clip1_11_174">
<rect width="56" height="56" fill="white" transform="translate(0 0.190002)"/>
</clipPath>
<clipPath id="clip2_11_174">
<rect width="56" height="56" fill="white" transform="translate(0 0.190002)"/>
</clipPath>
</defs>
</svg>
