<svg width="56" height="57" viewBox="0 0 56 57" fill="none" xmlns="http://www.w3.org/2000/svg">
<g clip-path="url(#clip0_11_72)">
<g clip-path="url(#clip1_11_72)">
<g clip-path="url(#clip2_11_72)">
<path d="M48 0.599976H8C3.58172 0.599976 0 4.1817 0 8.59998V48.6C0 53.0183 3.58172 56.6 8 56.6H48C52.4183 56.6 56 53.0183 56 48.6V8.59998C56 4.1817 52.4183 0.599976 48 0.599976Z" fill="#A4D0FF"/>
<path d="M29.033 44.6H28.002C27.739 44.543 27.485 44.464 27.249 44.328L23.963 42.43L16.011 37.838C15.775 37.702 15.525 37.584 15.311 37.413C14.799 37.005 14.489 36.468 14.331 35.838L14.286 35.617V21.619L14.3 21.566C14.3497 21.246 14.4578 20.9379 14.619 20.657C14.845 20.253 15.135 19.907 15.542 19.672L20.398 16.868L26.959 13.08C27.211 12.934 27.458 12.78 27.744 12.702C28.0461 12.62 28.3594 12.5869 28.672 12.604C29.061 12.624 29.434 12.71 29.776 12.907L35.458 16.188L41.291 19.551C41.689 19.779 42.035 20.055 42.286 20.442C42.566 20.871 42.754 21.329 42.754 21.851V35.388C42.754 35.451 42.758 35.514 42.749 35.576C42.616 36.45 42.21 37.154 41.432 37.603L30.205 44.087C29.833 44.302 29.468 44.53 29.033 44.6ZM19.035 28.619C19.033 29.0048 19.0564 29.3903 19.105 29.773C19.271 31.101 19.693 32.342 20.387 33.488C21.1242 34.7167 22.13 35.7625 23.329 36.547C24.636 37.404 26.068 37.906 27.625 38.054C28.341 38.122 29.055 38.11 29.766 38.014C30.8679 37.8679 31.9352 37.5272 32.918 37.008C34.4723 36.197 35.7704 34.9695 36.667 33.463C36.725 33.367 36.724 33.366 36.628 33.311L32.708 31.041C32.65 31.007 32.623 31.011 32.586 31.07C31.589 32.701 29.772 33.585 27.885 33.322C27.1542 33.235 26.4549 32.9739 25.8458 32.5606C25.2368 32.1474 24.7359 31.594 24.385 30.947C23.882 30.075 23.689 29.13 23.797 28.128C23.932 26.875 24.48 25.829 25.437 25.014C26.46 24.142 27.655 23.757 28.993 23.901C30.543 24.068 31.733 24.836 32.572 26.148C32.631 26.241 32.629 26.242 32.726 26.186L36.633 23.925C36.726 23.871 36.728 23.868 36.673 23.777C36.217 23.015 35.668 22.329 35.019 21.72C34.29 21.036 33.475 20.478 32.57 20.052C31.0864 19.3443 29.4429 19.0384 27.804 19.165C27.079 19.218 26.369 19.351 25.677 19.572C23.813 20.167 22.269 21.232 21.061 22.77C19.715 24.484 19.051 26.443 19.034 28.621L19.035 28.619ZM40.901 29.667V29.253C40.901 29.137 40.904 29.134 41.018 29.134H41.846C41.941 29.134 41.95 29.125 41.95 29.031V28.203C41.95 28.11 41.942 28.102 41.846 28.101C41.567 28.1 41.289 28.101 41.01 28.1C40.906 28.1 40.901 28.094 40.901 27.988L40.902 27.137C40.903 27.067 40.88 27.04 40.807 27.041L39.964 27.042C39.868 27.042 39.862 27.048 39.861 27.144V27.98C39.861 28.093 39.854 28.1 39.742 28.1H38.906C38.81 28.1 38.802 28.108 38.802 28.202V29.03C38.802 29.125 38.809 29.132 38.905 29.133H39.748C39.852 29.133 39.86 29.142 39.86 29.244V30.095C39.859 30.166 39.884 30.191 39.956 30.191H40.815C40.88 30.191 40.903 30.167 40.902 30.103L40.901 29.667ZM35.908 29.663L35.907 30.092C35.9027 30.1059 35.9023 30.1207 35.9058 30.1348C35.9093 30.1489 35.9166 30.1618 35.9269 30.1721C35.9372 30.1824 35.9501 30.1897 35.9642 30.1932C35.9783 30.1967 35.9931 30.1963 36.007 30.192L36.835 30.191C36.933 30.191 36.94 30.183 36.941 30.083V29.287C36.941 29.185 36.991 29.135 37.09 29.135H37.894C37.989 29.135 37.997 29.126 37.997 29.032V28.204C37.997 28.11 37.989 28.103 37.893 28.103C37.619 28.102 37.347 28.103 37.073 28.103C36.944 28.103 36.941 28.1 36.941 27.973V27.153C36.941 27.053 36.933 27.045 36.836 27.045H36.016C35.916 27.045 35.91 27.051 35.909 27.151V27.986C35.909 28.094 35.901 28.102 35.794 28.102H34.959C34.858 28.102 34.852 28.108 34.851 28.208V29.02C34.851 29.129 34.856 29.134 34.966 29.135H35.809C35.882 29.135 35.912 29.16 35.911 29.235L35.91 29.665L35.909 29.664L35.908 29.663Z" fill="#004482" fill-opacity="0.8"/>
</g>
</g>
</g>
<defs>
<clipPath id="clip0_11_72">
<rect y="0.599976" width="56" height="56" rx="8" fill="white"/>
</clipPath>
<clipPath id="clip1_11_72">
<rect width="56" height="56" fill="white" transform="translate(0 0.599976)"/>
</clipPath>
<clipPath id="clip2_11_72">
<rect width="56" height="56" fill="white" transform="translate(0 0.599976)"/>
</clipPath>
</defs>
</svg>
