<svg width="56" height="57" viewBox="0 0 56 57" fill="none" xmlns="http://www.w3.org/2000/svg">
<g clip-path="url(#clip0_11_211)">
<g clip-path="url(#clip1_11_211)">
<g clip-path="url(#clip2_11_211)">
<path d="M48 0.190002H8C3.58172 0.190002 0 3.77172 0 8.19V48.19C0 52.6083 3.58172 56.19 8 56.19H48C52.4183 56.19 56 52.6083 56 48.19V8.19C56 3.77172 52.4183 0.190002 48 0.190002Z" fill="#A4D0FF"/>
<path d="M29.0333 44.19H28.0024C27.7392 44.1327 27.4852 44.0541 27.2496 43.9177C26.1551 43.2835 25.0589 42.6523 23.9632 42.0199C21.3121 40.4897 18.6615 38.9594 16.011 37.428C15.7747 37.2915 15.5253 37.174 15.3109 37.0032C14.7989 36.5949 14.4887 36.0583 14.3311 35.4282C14.3127 35.3554 14.3007 35.2808 14.2858 35.2069C14.2858 30.541 14.2858 25.8746 14.2858 21.2087C14.2904 21.191 14.2967 21.1738 14.2995 21.156C14.3471 20.8326 14.4595 20.531 14.6183 20.2472C14.8442 19.843 15.1343 19.4973 15.5414 19.2622C17.1599 18.3277 18.779 17.3926 20.3976 16.458C22.5849 15.1955 24.7716 13.933 26.9589 12.6705C27.2112 12.5249 27.4583 12.3701 27.7444 12.2921C28.0488 12.209 28.3584 12.178 28.6721 12.1941C29.0614 12.2142 29.434 12.3002 29.7757 12.4974C31.6695 13.5913 33.5632 14.6847 35.4576 15.778C37.4012 16.9001 39.3431 18.025 41.2902 19.1407C41.6886 19.3689 42.0338 19.6447 42.2855 20.0317C42.5653 20.4605 42.7533 20.9186 42.7533 21.4409C42.7533 25.9531 42.7533 30.4653 42.7533 34.9775C42.7533 35.04 42.7574 35.1037 42.7482 35.165C42.6152 36.0394 42.2087 36.7429 41.4312 37.1924C37.6907 39.3567 33.9468 41.5148 30.2046 43.6763C29.8325 43.8913 29.4685 44.1206 29.0333 44.19ZM19.0348 28.2092C19.0325 28.5957 19.0571 28.9804 19.1053 29.3628C19.2715 30.6907 19.693 31.9314 20.3873 33.0781C21.1389 34.3182 22.117 35.3416 23.3297 36.1368C24.6363 36.994 26.0691 37.4957 27.6257 37.6442C28.3412 37.7124 29.0556 37.7003 29.7671 37.6046C30.8766 37.455 31.9286 37.1213 32.9194 36.5984C34.4972 35.7647 35.7471 34.5831 36.6679 33.0534C36.7258 32.9571 36.7252 32.9565 36.6289 32.9009C35.3223 32.1447 34.015 31.389 32.709 30.631C32.6511 30.5972 32.6241 30.6007 32.5874 30.6603C31.5909 32.2909 29.7734 33.1755 27.886 32.9124C26.3391 32.6968 25.1666 31.8912 24.3858 30.5376C23.8829 29.6661 23.6897 28.7201 23.7975 27.7185C23.9328 26.4651 24.4804 25.4194 25.4373 24.6041C26.4601 23.732 27.655 23.3467 28.9937 23.4912C30.5434 23.6586 31.7337 24.4258 32.5725 25.7387C32.6316 25.8316 32.6298 25.8327 32.7262 25.7771C34.0288 25.0238 35.3309 24.2704 36.6335 23.5164C36.7269 23.4625 36.7281 23.4597 36.6736 23.3685C36.2178 22.6065 35.6686 21.9203 35.0201 21.3119C34.2908 20.6274 33.4761 20.0695 32.5714 19.6435C31.06 18.9314 29.4719 18.6339 27.8052 18.756C27.0799 18.8093 26.3701 18.9423 25.6781 19.1631C23.8136 19.7576 22.2696 20.8229 21.0621 22.3606C19.7159 24.0749 19.0525 26.0334 19.0348 28.2115V28.2092ZM40.9009 29.2573C40.9009 29.1191 40.9009 28.9815 40.9009 28.8434C40.9009 28.7275 40.9037 28.7247 41.0184 28.7241C41.2942 28.7235 41.5705 28.7241 41.8463 28.7241C41.9415 28.7241 41.9501 28.7155 41.9501 28.6215C41.9501 28.3457 41.9501 28.0693 41.9501 27.7936C41.9501 27.7001 41.9421 27.6927 41.8457 27.6921C41.5671 27.6915 41.2885 27.6921 41.0098 27.6915C40.9055 27.6915 40.9009 27.6858 40.9003 27.5797C40.9003 27.2959 40.8986 27.0121 40.9014 26.7283C40.902 26.6578 40.8797 26.6314 40.8068 26.6326C40.5259 26.6354 40.2444 26.6337 39.9635 26.6337C39.8671 26.6337 39.8614 26.6394 39.8608 26.7358C39.8608 27.0144 39.8608 27.293 39.8608 27.5717C39.8608 27.6846 39.8539 27.6915 39.7416 27.6915C39.4629 27.6921 39.1843 27.6915 38.9056 27.6915C38.8093 27.6915 38.8019 27.699 38.8019 27.793C38.8019 28.0688 38.8019 28.3451 38.8019 28.6209C38.8019 28.7155 38.8093 28.723 38.9045 28.7235C39.1854 28.7241 39.4669 28.7235 39.7479 28.7241C39.8517 28.7241 39.8597 28.7327 39.8603 28.8353C39.8608 29.1191 39.862 29.4029 39.8597 29.6867C39.8591 29.7573 39.8838 29.7831 39.9554 29.7825C40.2415 29.7796 40.5282 29.7802 40.8143 29.7825C40.8791 29.7825 40.902 29.7584 40.9009 29.6948C40.898 29.5491 40.9009 29.4029 40.9009 29.2573ZM35.9082 29.2533C35.9082 29.3966 35.9111 29.54 35.9071 29.6827C35.9053 29.7567 35.9317 29.7836 36.0068 29.7831C36.2826 29.7796 36.5584 29.7819 36.8347 29.7819C36.9322 29.7819 36.9402 29.7739 36.9408 29.6736C36.9414 29.4081 36.9408 29.1426 36.9408 28.8772C36.9408 28.7755 36.9905 28.7247 37.0899 28.7247C37.3582 28.7247 37.6259 28.7247 37.8943 28.7247C37.9894 28.7247 37.9975 28.7161 37.9975 28.622C37.9975 28.3463 37.9975 28.0705 37.9975 27.7941C37.9975 27.7001 37.99 27.6927 37.8937 27.6927C37.6202 27.6921 37.3473 27.6927 37.0738 27.6927C36.9448 27.6927 36.9414 27.6898 36.9414 27.5631C36.9414 27.2896 36.9414 27.0167 36.9414 26.7432C36.9414 26.6429 36.9333 26.6354 36.8359 26.6348C36.5624 26.6348 36.2895 26.6348 36.016 26.6348C35.9157 26.6348 35.9099 26.6406 35.9094 26.7409C35.9094 27.0196 35.9094 27.2982 35.9094 27.5763C35.9094 27.6841 35.9019 27.6921 35.7941 27.6921C35.5155 27.6927 35.2374 27.6921 34.9588 27.6921C34.8573 27.6921 34.8515 27.6984 34.851 27.7976C34.851 28.0682 34.851 28.3388 34.851 28.6094C34.851 28.7184 34.8561 28.7235 34.9656 28.7241C35.2466 28.7241 35.5281 28.7258 35.809 28.7241C35.8818 28.7241 35.9122 28.7493 35.9105 28.8244C35.9071 28.9678 35.9094 29.1105 35.9094 29.2539L35.9082 29.2533Z" fill="#004482" fill-opacity="0.8"/>
</g>
</g>
</g>
<defs>
<clipPath id="clip0_11_211">
<rect y="0.190002" width="56" height="56" rx="8" fill="white"/>
</clipPath>
<clipPath id="clip1_11_211">
<rect width="56" height="56" fill="white" transform="translate(0 0.190002)"/>
</clipPath>
<clipPath id="clip2_11_211">
<rect width="56" height="56" fill="white" transform="translate(0 0.190002)"/>
</clipPath>
</defs>
</svg>
