<svg width="56" height="57" viewBox="0 0 56 57" fill="none" xmlns="http://www.w3.org/2000/svg">
<g clip-path="url(#clip0_11_476)">
<g clip-path="url(#clip1_11_476)">
<g clip-path="url(#clip2_11_476)">
<path d="M48 0.75H8C3.58172 0.75 0 4.33172 0 8.75V48.75C0 53.1683 3.58172 56.75 8 56.75H48C52.4183 56.75 56 53.1683 56 48.75V8.75C56 4.33172 52.4183 0.75 48 0.75Z" fill="#A4D0FF"/>
<path d="M29.033 44.75H28.002C27.739 44.693 27.485 44.614 27.249 44.478L23.963 42.58L16.011 37.988C15.775 37.852 15.525 37.734 15.311 37.563C14.799 37.155 14.489 36.618 14.331 35.988L14.286 35.767V21.769L14.3 21.716C14.3497 21.396 14.4578 21.0879 14.619 20.807C14.845 20.403 15.135 20.057 15.542 19.822L20.398 17.018L26.959 13.23C27.211 13.084 27.458 12.93 27.744 12.852C28.0461 12.77 28.3594 12.7369 28.672 12.754C29.061 12.774 29.434 12.86 29.776 13.057L35.458 16.338L41.291 19.701C41.689 19.929 42.035 20.205 42.286 20.592C42.566 21.021 42.754 21.479 42.754 22.001V35.538C42.754 35.601 42.758 35.664 42.749 35.726C42.616 36.6 42.21 37.304 41.432 37.753L30.205 44.237C29.833 44.452 29.468 44.68 29.033 44.75ZM19.035 28.769C19.033 29.1548 19.0564 29.5403 19.105 29.923C19.271 31.251 19.693 32.492 20.387 33.638C21.1242 34.8667 22.13 35.9125 23.329 36.697C24.636 37.554 26.068 38.056 27.625 38.204C28.341 38.272 29.055 38.26 29.766 38.164C30.8679 38.0179 31.9352 37.6773 32.918 37.158C34.4723 36.347 35.7704 35.1196 36.667 33.613C36.725 33.517 36.724 33.516 36.628 33.461L32.708 31.191C32.65 31.157 32.623 31.161 32.586 31.22C31.589 32.851 29.772 33.735 27.885 33.472C27.1542 33.385 26.4549 33.1239 25.8458 32.7107C25.2368 32.2974 24.7359 31.744 24.385 31.097C23.882 30.225 23.689 29.28 23.797 28.278C23.932 27.025 24.48 25.979 25.437 25.164C26.46 24.292 27.655 23.907 28.993 24.051C30.543 24.218 31.733 24.986 32.572 26.298C32.631 26.391 32.629 26.392 32.726 26.336L36.633 24.075C36.726 24.021 36.728 24.018 36.673 23.927C36.217 23.165 35.668 22.479 35.019 21.87C34.29 21.186 33.475 20.628 32.57 20.202C31.0864 19.4943 29.4429 19.1884 27.804 19.315C27.079 19.368 26.369 19.501 25.677 19.722C23.813 20.317 22.269 21.382 21.061 22.92C19.715 24.634 19.051 26.593 19.034 28.771L19.035 28.769ZM40.901 29.817V29.403C40.901 29.287 40.904 29.284 41.018 29.284H41.846C41.941 29.284 41.95 29.275 41.95 29.181V28.353C41.95 28.26 41.942 28.252 41.846 28.251C41.567 28.25 41.289 28.251 41.01 28.25C40.906 28.25 40.901 28.244 40.901 28.138L40.902 27.287C40.903 27.217 40.88 27.19 40.807 27.191L39.964 27.192C39.868 27.192 39.862 27.198 39.861 27.294V28.13C39.861 28.243 39.854 28.25 39.742 28.25H38.906C38.81 28.25 38.802 28.258 38.802 28.352V29.18C38.802 29.275 38.809 29.282 38.905 29.283H39.748C39.852 29.283 39.86 29.292 39.86 29.394V30.245C39.859 30.316 39.884 30.341 39.956 30.341H40.815C40.88 30.341 40.903 30.317 40.902 30.253L40.901 29.817ZM35.908 29.813L35.907 30.242C35.9027 30.2559 35.9023 30.2707 35.9058 30.2848C35.9093 30.299 35.9166 30.3118 35.9269 30.3221C35.9372 30.3324 35.9501 30.3397 35.9642 30.3432C35.9783 30.3467 35.9931 30.3463 36.007 30.342L36.835 30.341C36.933 30.341 36.94 30.333 36.941 30.233V29.437C36.941 29.335 36.991 29.285 37.09 29.285H37.894C37.989 29.285 37.997 29.276 37.997 29.182V28.354C37.997 28.26 37.989 28.253 37.893 28.253C37.619 28.252 37.347 28.253 37.073 28.253C36.944 28.253 36.941 28.25 36.941 28.123V27.303C36.941 27.203 36.933 27.195 36.836 27.195H36.016C35.916 27.195 35.91 27.201 35.909 27.301V28.136C35.909 28.244 35.901 28.252 35.794 28.252H34.959C34.858 28.252 34.852 28.258 34.851 28.358V29.17C34.851 29.279 34.856 29.284 34.966 29.285H35.809C35.882 29.285 35.912 29.31 35.911 29.385L35.91 29.815L35.909 29.814L35.908 29.813Z" fill="#004482" fill-opacity="0.8"/>
</g>
</g>
</g>
<defs>
<clipPath id="clip0_11_476">
<rect y="0.75" width="56" height="56" rx="8" fill="white"/>
</clipPath>
<clipPath id="clip1_11_476">
<rect width="56" height="56" fill="white" transform="translate(0 0.75)"/>
</clipPath>
<clipPath id="clip2_11_476">
<rect width="56" height="56" fill="white" transform="translate(0 0.75)"/>
</clipPath>
</defs>
</svg>
