<svg width="56" height="57" viewBox="0 0 56 57" fill="none" xmlns="http://www.w3.org/2000/svg">
<g clip-path="url(#clip0_11_582)">
<g clip-path="url(#clip1_11_582)">
<g clip-path="url(#clip2_11_582)">
<path d="M48 0.939941H8C3.58172 0.939941 0 4.52166 0 8.93994V48.9399C0 53.3582 3.58172 56.9399 8 56.9399H48C52.4183 56.9399 56 53.3582 56 48.9399V8.93994C56 4.52166 52.4183 0.939941 48 0.939941Z" fill="#A4D0FF"/>
<path d="M29.0333 44.9399H28.0024C27.7392 44.8826 27.4852 44.804 27.2496 44.6676C26.1551 44.0334 25.0589 43.4022 23.9632 42.7698C21.3121 41.2396 18.6615 39.7093 16.011 38.1779C15.7747 38.0414 15.5253 37.9239 15.3109 37.7531C14.7989 37.3448 14.4887 36.8082 14.3311 36.1781C14.3127 36.1053 14.3007 36.0307 14.2858 35.9568C14.2858 31.2909 14.2858 26.6245 14.2858 21.9586C14.2904 21.9409 14.2967 21.9237 14.2995 21.9059C14.3471 21.5825 14.4595 21.2809 14.6183 20.9971C14.8442 20.5929 15.1343 20.2472 15.5414 20.0121C17.1599 19.0776 18.779 18.1425 20.3976 17.2079C22.5849 15.9454 24.7716 14.6829 26.9589 13.4204C27.2112 13.2748 27.4583 13.12 27.7444 13.042C28.0488 12.9589 28.3584 12.9279 28.6721 12.944C29.0614 12.9641 29.434 13.0501 29.7757 13.2473C31.6695 14.3412 33.5632 15.4346 35.4576 16.5279C37.4012 17.65 39.3431 18.7749 41.2902 19.8906C41.6886 20.1188 42.0338 20.3946 42.2855 20.7816C42.5653 21.2104 42.7533 21.6685 42.7533 22.1908C42.7533 26.703 42.7533 31.2152 42.7533 35.7274C42.7533 35.7899 42.7574 35.8536 42.7482 35.9149C42.6152 36.7893 42.2087 37.4928 41.4312 37.9423C37.6907 40.1066 33.9468 42.2647 30.2046 44.4262C29.8325 44.6412 29.4685 44.8705 29.0333 44.9399ZM19.0348 28.9591C19.0325 29.3456 19.0571 29.7303 19.1053 30.1127C19.2715 31.4406 19.693 32.6813 20.3873 33.828C21.1389 35.0681 22.117 36.0915 23.3297 36.8867C24.6363 37.7439 26.0691 38.2456 27.6257 38.3941C28.3412 38.4623 29.0556 38.4502 29.7671 38.3545C30.8766 38.2049 31.9286 37.8712 32.9194 37.3483C34.4972 36.5146 35.7471 35.333 36.6679 33.8033C36.7258 33.707 36.7252 33.7064 36.6289 33.6508C35.3223 32.8946 34.015 32.1389 32.709 31.3809C32.6511 31.3471 32.6241 31.3506 32.5874 31.4102C31.5909 33.0408 29.7734 33.9254 27.886 33.6623C26.3391 33.4467 25.1666 32.6411 24.3858 31.2875C23.8829 30.416 23.6897 29.47 23.7975 28.4684C23.9328 27.215 24.4804 26.1693 25.4373 25.354C26.4601 24.4819 27.655 24.0966 28.9937 24.2411C30.5434 24.4085 31.7337 25.1757 32.5725 26.4886C32.6316 26.5815 32.6298 26.5826 32.7262 26.527C34.0288 25.7737 35.3309 25.0203 36.6335 24.2663C36.7269 24.2124 36.7281 24.2096 36.6736 24.1184C36.2178 23.3564 35.6686 22.6702 35.0201 22.0618C34.2908 21.3773 33.4761 20.8194 32.5714 20.3934C31.06 19.6813 29.4719 19.3838 27.8052 19.5059C27.0799 19.5592 26.3701 19.6922 25.6781 19.913C23.8136 20.5075 22.2696 21.5728 21.0621 23.1105C19.7159 24.8248 19.0525 26.7833 19.0348 28.9614V28.9591ZM40.9009 30.0072C40.9009 29.869 40.9009 29.7314 40.9009 29.5933C40.9009 29.4774 40.9037 29.4746 41.0184 29.474C41.2942 29.4734 41.5705 29.474 41.8463 29.474C41.9415 29.474 41.9501 29.4654 41.9501 29.3714C41.9501 29.0956 41.9501 28.8192 41.9501 28.5435C41.9501 28.45 41.9421 28.4426 41.8457 28.442C41.5671 28.4414 41.2885 28.442 41.0098 28.4414C40.9055 28.4414 40.9009 28.4357 40.9003 28.3296C40.9003 28.0458 40.8986 27.762 40.9014 27.4782C40.902 27.4077 40.8797 27.3813 40.8068 27.3825C40.5259 27.3853 40.2444 27.3836 39.9635 27.3836C39.8671 27.3836 39.8614 27.3893 39.8608 27.4857C39.8608 27.7643 39.8608 28.0429 39.8608 28.3216C39.8608 28.4345 39.8539 28.4414 39.7416 28.4414C39.4629 28.442 39.1843 28.4414 38.9056 28.4414C38.8093 28.4414 38.8019 28.4489 38.8019 28.5429C38.8019 28.8187 38.8019 29.095 38.8019 29.3708C38.8019 29.4654 38.8093 29.4729 38.9045 29.4734C39.1854 29.474 39.4669 29.4734 39.7479 29.474C39.8517 29.474 39.8597 29.4826 39.8603 29.5852C39.8608 29.869 39.862 30.1528 39.8597 30.4366C39.8591 30.5072 39.8838 30.533 39.9554 30.5324C40.2415 30.5295 40.5282 30.5301 40.8143 30.5324C40.8791 30.5324 40.902 30.5083 40.9009 30.4447C40.898 30.299 40.9009 30.1528 40.9009 30.0072ZM35.9082 30.0032C35.9082 30.1465 35.9111 30.2899 35.9071 30.4326C35.9053 30.5066 35.9317 30.5335 36.0068 30.533C36.2826 30.5295 36.5584 30.5318 36.8347 30.5318C36.9322 30.5318 36.9402 30.5238 36.9408 30.4235C36.9414 30.158 36.9408 29.8925 36.9408 29.6271C36.9408 29.5254 36.9905 29.4746 37.0899 29.4746C37.3582 29.4746 37.6259 29.4746 37.8943 29.4746C37.9894 29.4746 37.9975 29.466 37.9975 29.3719C37.9975 29.0962 37.9975 28.8204 37.9975 28.544C37.9975 28.45 37.99 28.4426 37.8937 28.4426C37.6202 28.442 37.3473 28.4426 37.0738 28.4426C36.9448 28.4426 36.9414 28.4397 36.9414 28.313C36.9414 28.0395 36.9414 27.7666 36.9414 27.4931C36.9414 27.3928 36.9333 27.3853 36.8359 27.3847C36.5624 27.3847 36.2895 27.3847 36.016 27.3847C35.9157 27.3847 35.9099 27.3905 35.9094 27.4908C35.9094 27.7695 35.9094 28.0481 35.9094 28.3262C35.9094 28.434 35.9019 28.442 35.7941 28.442C35.5155 28.4426 35.2374 28.442 34.9588 28.442C34.8573 28.442 34.8515 28.4483 34.851 28.5475C34.851 28.8181 34.851 29.0887 34.851 29.3593C34.851 29.4683 34.8561 29.4734 34.9656 29.474C35.2466 29.474 35.5281 29.4757 35.809 29.474C35.8818 29.474 35.9122 29.4992 35.9105 29.5743C35.9071 29.7177 35.9094 29.8604 35.9094 30.0038L35.9082 30.0032Z" fill="#004482" fill-opacity="0.8"/>
</g>
</g>
</g>
<defs>
<clipPath id="clip0_11_582">
<rect y="0.939941" width="56" height="56" rx="8" fill="white"/>
</clipPath>
<clipPath id="clip1_11_582">
<rect width="56" height="56" fill="white" transform="translate(0 0.939941)"/>
</clipPath>
<clipPath id="clip2_11_582">
<rect width="56" height="56" fill="white" transform="translate(0 0.939941)"/>
</clipPath>
</defs>
</svg>
