<svg width="56" height="57" viewBox="0 0 56 57" fill="none" xmlns="http://www.w3.org/2000/svg">
<g clip-path="url(#clip0_11_573)">
<g clip-path="url(#clip1_11_573)">
<g clip-path="url(#clip2_11_573)">
<path d="M48 0.939941H8C3.58172 0.939941 0 4.52166 0 8.93994V48.9399C0 53.3582 3.58172 56.9399 8 56.9399H48C52.4183 56.9399 56 53.3582 56 48.9399V8.93994C56 4.52166 52.4183 0.939941 48 0.939941Z" fill="#A4D0FF"/>
<path d="M29.033 44.9398H28.002C27.739 44.8828 27.485 44.8038 27.249 44.6678L23.963 42.7698L16.011 38.1778C15.775 38.0418 15.525 37.9238 15.311 37.7528C14.799 37.3448 14.489 36.8078 14.331 36.1778L14.286 35.9568V21.9588L14.3 21.9058C14.3497 21.5858 14.4578 21.2777 14.619 20.9968C14.845 20.5928 15.135 20.2468 15.542 20.0118L20.398 17.2078L26.959 13.4198C27.211 13.2738 27.458 13.1198 27.744 13.0418C28.0461 12.9598 28.3594 12.9267 28.672 12.9438C29.061 12.9638 29.434 13.0498 29.776 13.2468L35.458 16.5278L41.291 19.8908C41.689 20.1188 42.035 20.3948 42.286 20.7818C42.566 21.2108 42.754 21.6688 42.754 22.1908V35.7278C42.754 35.7908 42.758 35.8538 42.749 35.9158C42.616 36.7898 42.21 37.4938 41.432 37.9428L30.205 44.4268C29.833 44.6418 29.468 44.8698 29.033 44.9398ZM19.035 28.9588C19.033 29.3446 19.0564 29.7301 19.105 30.1128C19.271 31.4408 19.693 32.6818 20.387 33.8278C21.1242 35.0565 22.13 36.1023 23.329 36.8868C24.636 37.7438 26.068 38.2458 27.625 38.3938C28.341 38.4618 29.055 38.4498 29.766 38.3538C30.8679 38.2077 31.9352 37.8671 32.918 37.3478C34.4723 36.5368 35.7704 35.3094 36.667 33.8028C36.725 33.7068 36.724 33.7058 36.628 33.6508L32.708 31.3808C32.65 31.3468 32.623 31.3508 32.586 31.4098C31.589 33.0408 29.772 33.9248 27.885 33.6618C27.1542 33.5748 26.4549 33.3137 25.8458 32.9005C25.2368 32.4872 24.7359 31.9338 24.385 31.2868C23.882 30.4148 23.689 29.4698 23.797 28.4678C23.932 27.2148 24.48 26.1688 25.437 25.3538C26.46 24.4818 27.655 24.0968 28.993 24.2408C30.543 24.4078 31.733 25.1758 32.572 26.4878C32.631 26.5808 32.629 26.5818 32.726 26.5258L36.633 24.2648C36.726 24.2108 36.728 24.2078 36.673 24.1168C36.217 23.3548 35.668 22.6688 35.019 22.0598C34.29 21.3758 33.475 20.8178 32.57 20.3918C31.0864 19.6841 29.4429 19.3782 27.804 19.5048C27.079 19.5578 26.369 19.6908 25.677 19.9118C23.813 20.5068 22.269 21.5718 21.061 23.1098C19.715 24.8238 19.051 26.7828 19.034 28.9608L19.035 28.9588ZM40.901 30.0068V29.5928C40.901 29.4768 40.904 29.4738 41.018 29.4738H41.846C41.941 29.4738 41.95 29.4648 41.95 29.3708V28.5428C41.95 28.4498 41.942 28.4418 41.846 28.4408C41.567 28.4398 41.289 28.4408 41.01 28.4398C40.906 28.4398 40.901 28.4338 40.901 28.3278L40.902 27.4768C40.903 27.4068 40.88 27.3798 40.807 27.3808L39.964 27.3818C39.868 27.3818 39.862 27.3878 39.861 27.4838V28.3198C39.861 28.4328 39.854 28.4398 39.742 28.4398H38.906C38.81 28.4398 38.802 28.4478 38.802 28.5418V29.3698C38.802 29.4648 38.809 29.4718 38.905 29.4728H39.748C39.852 29.4728 39.86 29.4818 39.86 29.5838V30.4348C39.859 30.5058 39.884 30.5308 39.956 30.5308H40.815C40.88 30.5308 40.903 30.5068 40.902 30.4428L40.901 30.0068ZM35.908 30.0028L35.907 30.4318C35.9027 30.4457 35.9023 30.4605 35.9058 30.4747C35.9093 30.4888 35.9166 30.5017 35.9269 30.5119C35.9372 30.5222 35.9501 30.5295 35.9642 30.533C35.9783 30.5365 35.9931 30.5361 36.007 30.5318L36.835 30.5308C36.933 30.5308 36.94 30.5228 36.941 30.4228V29.6268C36.941 29.5248 36.991 29.4748 37.09 29.4748H37.894C37.989 29.4748 37.997 29.4658 37.997 29.3718V28.5438C37.997 28.4498 37.989 28.4428 37.893 28.4428C37.619 28.4418 37.347 28.4428 37.073 28.4428C36.944 28.4428 36.941 28.4398 36.941 28.3128V27.4928C36.941 27.3928 36.933 27.3848 36.836 27.3848H36.016C35.916 27.3848 35.91 27.3908 35.909 27.4908V28.3258C35.909 28.4338 35.901 28.4418 35.794 28.4418H34.959C34.858 28.4418 34.852 28.4478 34.851 28.5478V29.3598C34.851 29.4688 34.856 29.4738 34.966 29.4748H35.809C35.882 29.4748 35.912 29.4998 35.911 29.5748L35.91 30.0048L35.909 30.0038L35.908 30.0028Z" fill="#004482" fill-opacity="0.8"/>
</g>
</g>
</g>
<defs>
<clipPath id="clip0_11_573">
<rect y="0.939941" width="56" height="56" rx="8" fill="white"/>
</clipPath>
<clipPath id="clip1_11_573">
<rect width="56" height="56" fill="white" transform="translate(0 0.939941)"/>
</clipPath>
<clipPath id="clip2_11_573">
<rect width="56" height="56" fill="white" transform="translate(0 0.939941)"/>
</clipPath>
</defs>
</svg>
