<svg width="56" height="57" viewBox="0 0 56 57" fill="none" xmlns="http://www.w3.org/2000/svg">
<g clip-path="url(#clip0_11_405)">
<g clip-path="url(#clip1_11_405)">
<g clip-path="url(#clip2_11_405)">
<path d="M47.7037 0.560059H8.2963C3.71438 0.560059 0 4.14178 0 8.56006V48.5601C0 52.9784 3.71438 56.5601 8.2963 56.5601H47.7037C52.2856 56.5601 56 52.9784 56 48.5601V8.56006C56 4.14178 52.2856 0.560059 47.7037 0.560059Z" fill="#9CBCE2"/>
<path d="M28 14.5601C20.818 14.5601 15 17.3445 15 20.7823C15 24.2201 20.818 27.0046 28 27.0046C35.182 27.0046 41 24.2201 41 20.7823C41 17.3445 35.182 14.5601 28 14.5601ZM15 23.8935V28.5601C15 31.9979 20.818 34.7823 28 34.7823C35.182 34.7823 41 31.9979 41 28.5601V23.8935C41 27.3312 35.182 30.1156 28 30.1156C20.818 30.1156 15 27.3312 15 23.8935ZM15 31.6712V36.3379C15 39.7756 20.818 42.5601 28 42.5601C35.182 42.5601 41 39.7756 41 36.3379V31.6712C41 35.109 35.182 37.8934 28 37.8934C20.818 37.8934 15 35.109 15 31.6712Z" fill="#115FB7"/>
</g>
</g>
</g>
<defs>
<clipPath id="clip0_11_405">
<rect y="0.560059" width="56" height="56" rx="8" fill="white"/>
</clipPath>
<clipPath id="clip1_11_405">
<rect width="56" height="56" fill="white" transform="translate(0 0.560059)"/>
</clipPath>
<clipPath id="clip2_11_405">
<rect width="56" height="56" fill="white" transform="translate(0 0.560059)"/>
</clipPath>
</defs>
</svg>
