<svg width="56" height="57" viewBox="0 0 56 57" fill="none" xmlns="http://www.w3.org/2000/svg">
<g clip-path="url(#clip0_11_220)">
<g clip-path="url(#clip1_11_220)">
<g clip-path="url(#clip2_11_220)">
<path d="M48 0.190002H8C3.58172 0.190002 0 3.77172 0 8.19V48.19C0 52.6083 3.58172 56.19 8 56.19H48C52.4183 56.19 56 52.6083 56 48.19V8.19C56 3.77172 52.4183 0.190002 48 0.190002Z" fill="#FFCE8B"/>
<path d="M26.5756 44.19C25.9672 44.089 25.3504 44.1291 24.7378 44.0794C23.5611 43.9812 22.3898 43.8664 21.2448 43.565C20.989 43.4972 20.7304 43.4253 20.5258 43.2262C21.1646 43.2967 21.8035 43.3686 22.4424 43.4377C23.9275 43.5981 25.4182 43.6258 26.9117 43.6313C30.0935 43.6424 33.2491 43.4045 36.355 42.6744C37.3105 42.4504 38.2564 42.1794 39.1137 41.6788C39.3281 41.5543 39.523 41.3953 39.783 41.2128C39.7415 41.5281 39.6198 41.7507 39.4456 41.9526C39.0294 42.4338 38.4749 42.7062 37.9024 42.9372C36.7117 43.417 35.4603 43.6465 34.1964 43.8194C32.862 44.0019 31.5234 44.1236 30.1751 44.143C30.0839 44.143 29.9926 44.1734 29.8999 44.19H26.577H26.5756Z" fill="#933C23" fill-opacity="0.8"/>
<path d="M27.9598 29.6205C27.072 28.8835 26.2492 28.087 25.4845 27.231C24.9065 26.5811 24.3852 25.8924 24.0381 25.0849C23.5762 24.0132 23.6744 23.0175 24.3796 22.0744C25.1595 21.0318 26.1704 20.2394 27.1785 19.4429C28.1949 18.6395 29.2237 17.8527 30.0589 16.8487C31.1223 15.571 31.5634 14.126 31.2177 12.4721C31.1984 12.3836 31.1693 12.2896 31.2122 12.19C31.356 12.1941 31.3892 12.3228 31.4459 12.4099C32.1207 13.4428 32.2037 14.5588 31.8704 15.7162C31.5247 16.9207 30.8029 17.9011 29.9732 18.8151C29.1407 19.7319 28.1423 20.4621 27.2255 21.2835C26.7249 21.7329 26.2948 22.2432 25.9519 22.8212C25.2536 23.9938 25.3352 25.1664 25.9547 26.3405C26.4387 27.2587 27.1093 28.0552 27.6473 28.9388C27.7759 29.1518 27.9058 29.3633 27.9612 29.6192L27.9598 29.6205Z" fill="#933C23" fill-opacity="0.8"/>
<path d="M21.2324 39.4054C20.422 39.4759 19.7043 39.6377 19.0185 39.9295C18.8152 40.0152 18.6161 40.1065 18.4391 40.2379C18.1431 40.455 18.1528 40.6638 18.4847 40.8214C18.988 41.062 19.5301 41.1851 20.0749 41.2833C21.3402 41.5101 22.618 41.6166 23.9026 41.6871C25.5012 41.7742 27.0997 41.7742 28.6955 41.7217C31.251 41.6373 33.8064 41.4921 36.3135 40.9182C36.7021 40.8297 37.0823 40.7163 37.4363 40.5297C37.9189 40.2752 37.9978 40.0844 37.8595 39.5727C38.4458 39.7663 38.5495 40.1978 38.1015 40.6099C37.6673 41.0095 37.1197 41.2003 36.5762 41.3856C35.1561 41.871 33.6847 42.1171 32.2023 42.3163C29.7105 42.6509 27.2048 42.6855 24.6991 42.6205C22.2557 42.5569 19.8247 42.3135 17.4172 41.8779C17.1185 41.824 16.8267 41.7424 16.557 41.5972C16.0744 41.3358 16.026 40.9459 16.4436 40.5711C16.8377 40.2171 17.3093 39.9876 17.7988 39.7995C18.7212 39.4455 19.6601 39.1703 20.664 39.2215C20.8397 39.2298 21.018 39.227 21.2351 39.4054H21.2324Z" fill="#933C23" fill-opacity="0.8"/>
<path d="M29.1961 30.6812C29.2929 30.5609 29.3911 30.4406 29.4865 30.3189C30.1917 29.4242 30.2042 28.4285 29.5058 27.5339C29.0301 26.924 28.5544 26.3197 28.2737 25.5827C27.7745 24.269 28.0456 23.1033 28.9154 22.044C29.7022 21.0871 30.7296 20.4483 31.8165 19.9007C32.7776 19.4153 33.7815 19.0309 34.8187 18.7322C34.8975 18.71 34.9763 18.6921 35.0911 18.663C35.0316 18.8124 34.9168 18.8442 34.827 18.8981C33.6446 19.6075 32.472 20.3321 31.4169 21.2282C30.9938 21.5877 30.6024 21.9763 30.2885 22.4381C29.7782 23.189 29.7713 23.9592 30.2014 24.7433C30.4531 25.2024 30.7656 25.6214 31.0657 26.0487C31.9106 27.249 31.8857 28.1769 30.9675 29.3246C30.4932 29.9179 29.8916 30.359 29.1975 30.6812H29.1961Z" fill="#933C23" fill-opacity="0.8"/>
<path d="M23.6979 36.9191C23.3536 37.363 23.3992 37.5262 23.8776 37.6797C24.3284 37.8249 24.8014 37.847 25.266 37.8982C27.1466 38.1014 29.0148 37.9977 30.8665 37.6188C31.1361 37.5635 31.3684 37.5746 31.6076 37.7295C31.9672 37.9645 32.3668 38.1208 32.7595 38.2936C32.8328 38.3255 32.9476 38.3324 32.9531 38.4278C32.9587 38.5329 32.8411 38.5329 32.7692 38.5619C31.551 39.0542 30.2843 39.357 28.9789 39.4829C27.3389 39.6419 25.7057 39.6032 24.0989 39.1828C23.6121 39.0556 23.142 38.8813 22.7119 38.6158C22.0468 38.2038 22.0634 37.6534 22.7493 37.2786C23.0314 37.1252 23.3231 36.9896 23.6965 36.9163L23.6979 36.9191Z" fill="#933C23" fill-opacity="0.8"/>
<path d="M24.2469 29.7975C23.5886 29.9773 22.9567 30.1543 22.3372 30.3714C21.9804 30.4972 21.6375 30.6466 21.3139 30.8402C21.1977 30.9093 21.0733 30.9923 21.0843 31.1499C21.0954 31.3145 21.242 31.3629 21.3664 31.4085C21.9334 31.609 22.5294 31.6477 23.1212 31.6961C24.6548 31.8206 26.1897 31.7556 27.7219 31.6865C29.9427 31.5869 32.1525 31.3463 34.347 30.9812C34.4383 30.966 34.5282 30.9259 34.6983 31.0103C34.1161 31.244 33.6722 31.6381 33.108 31.7833C31.8012 32.1207 30.4668 32.288 29.1241 32.4138C27.3969 32.577 25.6656 32.6295 23.933 32.5798C22.6718 32.5438 21.4107 32.4608 20.1675 32.2161C19.8287 32.1497 19.4955 32.0598 19.1774 31.9229C18.9866 31.84 18.7695 31.7584 18.7446 31.515C18.7183 31.2661 18.9244 31.1499 19.1014 31.0448C19.5881 30.7531 20.1191 30.5608 20.6487 30.37C21.7564 29.9704 22.9055 29.7685 24.0795 29.7118C24.1293 29.709 24.1832 29.6993 24.2469 29.7975Z" fill="#933C23" fill-opacity="0.8"/>
<path d="M22.8697 33.4316C22.8697 33.5671 22.7784 33.6183 22.7286 33.693C22.5032 34.0414 22.5682 34.2655 22.9526 34.4328C23.3052 34.5863 23.6855 34.5959 24.0561 34.6361C26.4996 34.8946 28.9334 34.8158 31.345 34.3484C31.9216 34.2364 32.4347 34.1866 32.8993 34.6416C33.0625 34.802 33.31 34.8753 33.523 34.9901C33.469 35.138 33.3321 35.1145 33.2326 35.1422C31.6976 35.5612 30.1378 35.8308 28.5503 35.9331C26.7333 36.0507 24.9232 36.059 23.131 35.6718C22.6097 35.5584 22.0939 35.4201 21.6431 35.1173C21.1425 34.7812 21.1384 34.3775 21.6279 34.0165C21.9985 33.7427 22.4133 33.563 22.8655 33.4316H22.8697Z" fill="#933C23" fill-opacity="0.8"/>
<path d="M35.3967 30.0368C35.7452 29.6261 36.1462 29.5417 36.5458 29.4795C37.4129 29.344 38.2301 29.4629 38.9464 30.0202C39.754 30.6494 40.0167 31.7003 39.595 32.6351C39.2949 33.3016 38.8109 33.8119 38.2232 34.2309C37.222 34.943 36.0992 35.38 34.9251 35.705C34.8878 35.7147 34.8463 35.705 34.7827 35.705C34.8228 35.5058 34.9874 35.4699 35.1132 35.4008C35.9955 34.9154 36.8334 34.3692 37.5249 33.628C37.9881 33.1315 38.3629 32.5756 38.4126 31.8732C38.4956 30.7157 37.4861 29.7519 36.3315 29.875C36.0452 29.9054 35.7631 29.9704 35.3967 30.034V30.0368Z" fill="#933C23" fill-opacity="0.8"/>
</g>
</g>
</g>
<defs>
<clipPath id="clip0_11_220">
<rect y="0.190002" width="56" height="56" rx="8" fill="white"/>
</clipPath>
<clipPath id="clip1_11_220">
<rect width="56" height="56" fill="white" transform="translate(0 0.190002)"/>
</clipPath>
<clipPath id="clip2_11_220">
<rect width="56" height="56" fill="white" transform="translate(0 0.190002)"/>
</clipPath>
</defs>
</svg>
