<svg width="56" height="57" viewBox="0 0 56 57" fill="none" xmlns="http://www.w3.org/2000/svg">
<g clip-path="url(#clip0_11_485)">
<g clip-path="url(#clip1_11_485)">
<g clip-path="url(#clip2_11_485)">
<path d="M48 0.75H8C3.58172 0.75 0 4.33172 0 8.75V48.75C0 53.1683 3.58172 56.75 8 56.75H48C52.4183 56.75 56 53.1683 56 48.75V8.75C56 4.33172 52.4183 0.75 48 0.75Z" fill="#FFCE8B"/>
<path d="M26.576 44.75C25.968 44.649 25.351 44.689 24.738 44.639C23.561 44.541 22.39 44.426 21.245 44.125C20.989 44.057 20.731 43.985 20.526 43.786L22.443 43.998C23.928 44.158 25.419 44.186 26.912 44.192C30.094 44.203 33.249 43.965 36.355 43.235C37.311 43.011 38.256 42.74 39.114 42.239C39.328 42.115 39.523 41.956 39.783 41.773C39.75 42.0486 39.6322 42.3072 39.446 42.513C39.03 42.994 38.475 43.267 37.903 43.498C36.712 43.978 35.461 44.207 34.197 44.38C32.863 44.563 31.524 44.684 30.176 44.704C30.085 44.704 29.993 44.734 29.901 44.751H26.578L26.576 44.75ZM27.96 30.181C27.0767 29.4473 26.2494 28.6487 25.485 27.792C24.907 27.142 24.386 26.453 24.039 25.646C23.577 24.574 23.675 23.579 24.38 22.635C25.16 21.592 26.171 20.8 27.179 20.004C28.195 19.201 29.224 18.414 30.059 17.41C31.122 16.132 31.564 14.687 31.218 13.033C31.199 12.945 31.17 12.851 31.212 12.751C31.356 12.755 31.389 12.884 31.446 12.971C32.121 14.004 32.204 15.12 31.87 16.277C31.524 17.481 30.803 18.462 29.973 19.376C29.143 20.29 28.142 21.023 27.225 21.844C26.7244 22.2887 26.2948 22.8074 25.951 23.382C25.253 24.555 25.334 25.727 25.954 26.901C26.438 27.819 27.109 28.616 27.647 29.499C27.776 29.712 27.905 29.924 27.961 30.179L27.96 30.181ZM21.232 39.965C20.422 40.035 19.704 40.197 19.018 40.489C18.8134 40.5684 18.6191 40.6717 18.439 40.797C18.143 41.014 18.153 41.223 18.485 41.381C18.988 41.622 19.53 41.745 20.075 41.843C21.34 42.07 22.618 42.176 23.903 42.247L28.696 42.282C31.252 42.198 33.807 42.052 36.314 41.479C36.703 41.39 37.083 41.277 37.437 41.09C37.92 40.835 37.998 40.645 37.86 40.133C38.446 40.327 38.55 40.758 38.102 41.17C37.668 41.57 37.12 41.76 36.577 41.946C35.157 42.431 33.685 42.678 32.203 42.877C29.711 43.212 27.205 43.246 24.7 43.181C22.2572 43.1195 19.8228 42.8711 17.418 42.438C17.119 42.384 16.827 42.302 16.558 42.157C16.075 41.896 16.027 41.506 16.445 41.131C16.839 40.777 17.311 40.547 17.8 40.359C18.722 40.005 19.661 39.73 20.665 39.781C20.841 39.789 21.019 39.786 21.236 39.965H21.232ZM29.196 31.241L29.486 30.879C30.191 29.984 30.204 28.989 29.505 28.094C29.029 27.484 28.554 26.88 28.273 26.143C27.774 24.829 28.045 23.664 28.915 22.604C29.702 21.647 30.729 21.008 31.816 20.461C32.7779 19.9786 33.783 19.5875 34.818 19.293L35.09 19.224C35.031 19.373 34.916 19.405 34.826 19.459C33.644 20.168 32.471 20.893 31.416 21.789C30.993 22.149 30.602 22.537 30.288 22.999C29.778 23.75 29.771 24.52 30.201 25.304C30.453 25.763 30.765 26.182 31.065 26.609C31.91 27.809 31.885 28.737 30.967 29.885C30.493 30.478 29.891 30.919 29.197 31.242H29.196V31.241ZM23.698 37.479C23.354 37.923 23.399 38.086 23.878 38.24C24.329 38.385 24.802 38.407 25.266 38.458C27.1361 38.656 29.0257 38.5619 30.867 38.179C31.137 38.124 31.369 38.135 31.608 38.29C31.968 38.525 32.367 38.681 32.76 38.854C32.833 38.886 32.948 38.893 32.954 38.988C32.96 39.093 32.842 39.093 32.77 39.122C31.5577 39.6101 30.2811 39.9204 28.98 40.043C27.34 40.202 25.707 40.163 24.1 39.743C23.613 39.616 23.143 39.441 22.713 39.176C22.048 38.764 22.065 38.214 22.75 37.839C23.0445 37.6689 23.3641 37.5467 23.697 37.477L23.698 37.479ZM24.247 30.358L22.337 30.932C21.9811 31.0536 21.6384 31.2107 21.314 31.401C21.198 31.47 21.073 31.553 21.084 31.711C21.095 31.876 21.242 31.924 21.366 31.97C21.933 32.171 22.529 32.209 23.121 32.258C24.655 32.383 26.189 32.317 27.722 32.248C29.9424 32.1458 32.1547 31.9104 34.347 31.543C34.438 31.528 34.528 31.488 34.698 31.572C34.116 31.806 33.672 32.2 33.108 32.345C31.801 32.682 30.467 32.85 29.124 32.975C27.3987 33.1367 25.6651 33.1921 23.933 33.141C22.672 33.105 21.411 33.022 20.168 32.777C19.8285 32.7148 19.4966 32.6166 19.178 32.484C18.987 32.401 18.77 32.319 18.745 32.076C18.719 31.827 18.925 31.711 19.102 31.606C19.589 31.314 20.12 31.122 20.649 30.931C21.757 30.531 22.906 30.329 24.08 30.273C24.13 30.27 24.184 30.26 24.247 30.358ZM22.87 33.992C22.87 34.128 22.779 34.179 22.729 34.253C22.504 34.601 22.569 34.825 22.953 34.993C23.306 35.146 23.686 35.156 24.057 35.196C26.501 35.454 28.934 35.376 31.346 34.908C31.923 34.796 32.436 34.746 32.9 35.201C33.063 35.361 33.311 35.435 33.524 35.55C33.47 35.698 33.333 35.674 33.234 35.702C31.699 36.121 30.139 36.391 28.552 36.493C26.735 36.611 24.925 36.619 23.133 36.232C22.612 36.119 22.096 35.98 21.645 35.678C21.144 35.342 21.14 34.938 21.63 34.577C22.001 34.303 22.415 34.123 22.868 33.992H22.872H22.87ZM35.397 30.597C35.745 30.186 36.146 30.102 36.546 30.04C37.413 29.904 38.23 30.023 38.947 30.581C39.755 31.21 40.017 32.261 39.596 33.196C39.296 33.863 38.812 34.373 38.224 34.792C37.223 35.504 36.1 35.941 34.926 36.266C34.889 36.276 34.847 36.266 34.784 36.266C34.824 36.067 34.989 36.031 35.115 35.962C35.997 35.477 36.835 34.93 37.527 34.189C37.99 33.692 38.365 33.137 38.415 32.434C38.498 31.277 37.489 30.313 36.334 30.436C36.048 30.466 35.766 30.531 35.399 30.595V30.598L35.397 30.597Z" fill="#933C23" fill-opacity="0.8"/>
</g>
</g>
</g>
<defs>
<clipPath id="clip0_11_485">
<rect y="0.75" width="56" height="56" rx="8" fill="white"/>
</clipPath>
<clipPath id="clip1_11_485">
<rect width="56" height="56" fill="white" transform="translate(0 0.75)"/>
</clipPath>
<clipPath id="clip2_11_485">
<rect width="56" height="56" fill="white" transform="translate(0 0.75)"/>
</clipPath>
</defs>
</svg>
