<svg width="56" height="57" viewBox="0 0 56 57" fill="none" xmlns="http://www.w3.org/2000/svg">
<g clip-path="url(#clip0_11_611)">
<g clip-path="url(#clip1_11_611)">
<g clip-path="url(#clip2_11_611)">
<path d="M48 0.529785H8C3.58172 0.529785 0 4.11151 0 8.52979V48.5298C0 52.9481 3.58172 56.5298 8 56.5298H48C52.4183 56.5298 56 52.9481 56 48.5298V8.52979C56 4.11151 52.4183 0.529785 48 0.529785Z" fill="#FFCE8B"/>
<path d="M26.5756 44.5297C25.9672 44.4287 25.3504 44.4688 24.7378 44.4191C23.5611 44.3209 22.3898 44.2061 21.2448 43.9047C20.989 43.8369 20.7304 43.765 20.5258 43.5659C21.1646 43.6364 21.8035 43.7083 22.4424 43.7774C23.9275 43.9378 25.4182 43.9655 26.9117 43.971C30.0935 43.9821 33.2491 43.7442 36.355 43.0141C37.3105 42.7901 38.2564 42.5191 39.1137 42.0185C39.3281 41.894 39.523 41.735 39.783 41.5525C39.7415 41.8678 39.6198 42.0904 39.4456 42.2923C39.0294 42.7735 38.4749 43.0459 37.9024 43.2769C36.7117 43.7567 35.4603 43.9862 34.1964 44.1591C32.862 44.3416 31.5234 44.4633 30.1751 44.4827C30.0839 44.4827 29.9926 44.5131 29.8999 44.5297H26.577H26.5756Z" fill="#933C23" fill-opacity="0.8"/>
<path d="M27.9598 29.9603C27.072 29.2233 26.2492 28.4268 25.4845 27.5708C24.9065 26.9209 24.3852 26.2322 24.0381 25.4247C23.5762 24.353 23.6744 23.3573 24.3796 22.4142C25.1595 21.3716 26.1704 20.5792 27.1785 19.7827C28.1949 18.9793 29.2237 18.1925 30.0589 17.1885C31.1223 15.9108 31.5634 14.4658 31.2177 12.8119C31.1984 12.7234 31.1693 12.6294 31.2122 12.5298C31.356 12.5339 31.3892 12.6626 31.4459 12.7497C32.1207 13.7826 32.2037 14.8986 31.8704 16.056C31.5247 17.2605 30.8029 18.2409 29.9732 19.1549C29.1407 20.0717 28.1423 20.8019 27.2255 21.6233C26.7249 22.0727 26.2948 22.583 25.9519 23.161C25.2536 24.3336 25.3352 25.5062 25.9547 26.6803C26.4387 27.5985 27.1093 28.395 27.6473 29.2786C27.7759 29.4916 27.9058 29.7031 27.9612 29.959L27.9598 29.9603Z" fill="#933C23" fill-opacity="0.8"/>
<path d="M21.2324 39.7452C20.422 39.8157 19.7043 39.9775 19.0185 40.2693C18.8152 40.355 18.6161 40.4463 18.4391 40.5777C18.1431 40.7948 18.1528 41.0036 18.4847 41.1612C18.988 41.4018 19.5301 41.5249 20.0749 41.6231C21.3402 41.8499 22.618 41.9564 23.9026 42.0269C25.5012 42.114 27.0997 42.114 28.6955 42.0615C31.251 41.9771 33.8064 41.8319 36.3135 41.258C36.7021 41.1695 37.0823 41.0561 37.4363 40.8695C37.9189 40.615 37.9978 40.4242 37.8595 39.9125C38.4458 40.1061 38.5495 40.5376 38.1015 40.9497C37.6673 41.3493 37.1197 41.5401 36.5762 41.7254C35.1561 42.2108 33.6847 42.4569 32.2023 42.6561C29.7105 42.9907 27.2048 43.0253 24.6991 42.9603C22.2557 42.8967 19.8247 42.6533 17.4172 42.2177C17.1185 42.1638 16.8267 42.0822 16.557 41.937C16.0744 41.6756 16.026 41.2857 16.4436 40.9109C16.8377 40.5569 17.3093 40.3274 17.7988 40.1393C18.7212 39.7853 19.6601 39.5101 20.664 39.5613C20.8397 39.5696 21.018 39.5668 21.2351 39.7452H21.2324Z" fill="#933C23" fill-opacity="0.8"/>
<path d="M29.1961 31.0209C29.2929 30.9006 29.3911 30.7803 29.4865 30.6586C30.1917 29.7639 30.2042 28.7682 29.5058 27.8736C29.0301 27.2637 28.5544 26.6594 28.2737 25.9224C27.7745 24.6087 28.0456 23.443 28.9154 22.3837C29.7022 21.4268 30.7296 20.788 31.8165 20.2404C32.7776 19.755 33.7815 19.3706 34.8187 19.0719C34.8975 19.0497 34.9763 19.0318 35.0911 19.0027C35.0316 19.1521 34.9168 19.1839 34.827 19.2378C33.6446 19.9472 32.472 20.6718 31.4169 21.5679C30.9938 21.9274 30.6024 22.316 30.2885 22.7778C29.7782 23.5287 29.7713 24.2989 30.2014 25.083C30.4531 25.5421 30.7656 25.9611 31.0657 26.3884C31.9106 27.5887 31.8857 28.5166 30.9675 29.6643C30.4932 30.2576 29.8916 30.6987 29.1975 31.0209H29.1961Z" fill="#933C23" fill-opacity="0.8"/>
<path d="M23.6979 37.2589C23.3536 37.7028 23.3992 37.866 23.8776 38.0195C24.3284 38.1647 24.8014 38.1868 25.266 38.238C27.1466 38.4412 29.0148 38.3375 30.8665 37.9586C31.1361 37.9033 31.3684 37.9144 31.6076 38.0693C31.9672 38.3043 32.3668 38.4606 32.7595 38.6334C32.8328 38.6653 32.9476 38.6722 32.9531 38.7676C32.9587 38.8727 32.8411 38.8727 32.7692 38.9017C31.551 39.394 30.2843 39.6968 28.9789 39.8227C27.3389 39.9817 25.7057 39.943 24.0989 39.5226C23.6121 39.3954 23.142 39.2211 22.7119 38.9556C22.0468 38.5436 22.0634 37.9932 22.7493 37.6184C23.0314 37.465 23.3231 37.3294 23.6965 37.2561L23.6979 37.2589Z" fill="#933C23" fill-opacity="0.8"/>
<path d="M24.2469 30.1374C23.5886 30.3172 22.9567 30.4942 22.3372 30.7113C21.9804 30.8371 21.6375 30.9865 21.3139 31.1801C21.1977 31.2492 21.0733 31.3322 21.0843 31.4898C21.0954 31.6544 21.242 31.7028 21.3664 31.7484C21.9334 31.9489 22.5294 31.9876 23.1212 32.036C24.6548 32.1605 26.1897 32.0955 27.7219 32.0264C29.9427 31.9268 32.1525 31.6862 34.347 31.3211C34.4383 31.3059 34.5282 31.2658 34.6983 31.3502C34.1161 31.5839 33.6722 31.978 33.108 32.1232C31.8012 32.4606 30.4668 32.6279 29.1241 32.7537C27.3969 32.9169 25.6656 32.9694 23.933 32.9197C22.6718 32.8837 21.4107 32.8007 20.1675 32.556C19.8287 32.4896 19.4955 32.3997 19.1774 32.2628C18.9866 32.1799 18.7695 32.0983 18.7446 31.8549C18.7183 31.606 18.9244 31.4898 19.1014 31.3847C19.5881 31.093 20.1191 30.9007 20.6487 30.7099C21.7564 30.3103 22.9055 30.1084 24.0795 30.0517C24.1293 30.0489 24.1832 30.0392 24.2469 30.1374Z" fill="#933C23" fill-opacity="0.8"/>
<path d="M22.8697 33.7715C22.8697 33.907 22.7784 33.9582 22.7286 34.0329C22.5032 34.3813 22.5682 34.6054 22.9526 34.7727C23.3052 34.9262 23.6855 34.9358 24.0561 34.976C26.4996 35.2345 28.9334 35.1557 31.345 34.6883C31.9216 34.5763 32.4347 34.5265 32.8993 34.9815C33.0625 35.1419 33.31 35.2152 33.523 35.33C33.469 35.4779 33.3321 35.4544 33.2326 35.4821C31.6976 35.9011 30.1378 36.1707 28.5503 36.273C26.7333 36.3906 24.9232 36.3989 23.131 36.0117C22.6097 35.8983 22.0939 35.76 21.6431 35.4572C21.1425 35.1211 21.1384 34.7174 21.6279 34.3564C21.9985 34.0826 22.4133 33.9029 22.8655 33.7715H22.8697Z" fill="#933C23" fill-opacity="0.8"/>
<path d="M35.3967 30.3767C35.7452 29.966 36.1462 29.8816 36.5458 29.8194C37.4129 29.6839 38.2301 29.8028 38.9464 30.3601C39.754 30.9893 40.0167 32.0402 39.595 32.975C39.2949 33.6415 38.8109 34.1518 38.2232 34.5708C37.222 35.2829 36.0992 35.7199 34.9251 36.0449C34.8878 36.0546 34.8463 36.0449 34.7827 36.0449C34.8228 35.8457 34.9874 35.8098 35.1132 35.7407C35.9955 35.2553 36.8334 34.7091 37.5249 33.9679C37.9881 33.4714 38.3629 32.9155 38.4126 32.2131C38.4956 31.0556 37.4861 30.0918 36.3315 30.2149C36.0452 30.2453 35.7631 30.3103 35.3967 30.3739V30.3767Z" fill="#933C23" fill-opacity="0.8"/>
</g>
</g>
</g>
<defs>
<clipPath id="clip0_11_611">
<rect y="0.529785" width="56" height="56" rx="8" fill="white"/>
</clipPath>
<clipPath id="clip1_11_611">
<rect width="56" height="56" fill="white" transform="translate(0 0.529785)"/>
</clipPath>
<clipPath id="clip2_11_611">
<rect width="56" height="56" fill="white" transform="translate(0 0.529785)"/>
</clipPath>
</defs>
</svg>
