<svg width="56" height="57" viewBox="0 0 56 57" fill="none" xmlns="http://www.w3.org/2000/svg">
<g clip-path="url(#clip0_11_183)">
<g clip-path="url(#clip1_11_183)">
<g clip-path="url(#clip2_11_183)">
<path d="M48 0.190002H8C3.58172 0.190002 0 3.77172 0 8.19V48.19C0 52.6083 3.58172 56.19 8 56.19H48C52.4183 56.19 56 52.6083 56 48.19V8.19C56 3.77172 52.4183 0.190002 48 0.190002Z" fill="#FFCE8B"/>
<path d="M26.576 44.19C25.968 44.089 25.351 44.129 24.738 44.079C23.561 43.981 22.39 43.866 21.245 43.565C20.989 43.497 20.731 43.425 20.526 43.226L22.443 43.438C23.928 43.598 25.419 43.626 26.912 43.632C30.094 43.643 33.249 43.405 36.355 42.675C37.311 42.451 38.256 42.18 39.114 41.679C39.328 41.555 39.523 41.396 39.783 41.213C39.75 41.4886 39.6322 41.7472 39.446 41.953C39.03 42.434 38.475 42.707 37.903 42.938C36.712 43.418 35.461 43.647 34.197 43.82C32.863 44.003 31.524 44.124 30.176 44.144C30.085 44.144 29.993 44.174 29.901 44.191H26.578L26.576 44.19ZM27.96 29.621C27.0767 28.8873 26.2494 28.0887 25.485 27.232C24.907 26.582 24.386 25.893 24.039 25.086C23.577 24.014 23.675 23.019 24.38 22.075C25.16 21.032 26.171 20.24 27.179 19.444C28.195 18.641 29.224 17.854 30.059 16.85C31.122 15.572 31.564 14.127 31.218 12.473C31.199 12.385 31.17 12.291 31.212 12.191C31.356 12.195 31.389 12.324 31.446 12.411C32.121 13.444 32.204 14.56 31.87 15.717C31.524 16.921 30.803 17.902 29.973 18.816C29.143 19.73 28.142 20.463 27.225 21.284C26.7244 21.7287 26.2948 22.2474 25.951 22.822C25.253 23.995 25.334 25.167 25.954 26.341C26.438 27.259 27.109 28.056 27.647 28.939C27.776 29.152 27.905 29.364 27.961 29.619L27.96 29.621ZM21.232 39.405C20.422 39.475 19.704 39.637 19.018 39.929C18.8134 40.0084 18.6191 40.1117 18.439 40.237C18.143 40.454 18.153 40.663 18.485 40.821C18.988 41.062 19.53 41.185 20.075 41.283C21.34 41.51 22.618 41.616 23.903 41.687L28.696 41.722C31.252 41.638 33.807 41.492 36.314 40.919C36.703 40.83 37.083 40.717 37.437 40.53C37.92 40.275 37.998 40.085 37.86 39.573C38.446 39.767 38.55 40.198 38.102 40.61C37.668 41.01 37.12 41.2 36.577 41.386C35.157 41.871 33.685 42.118 32.203 42.317C29.711 42.652 27.205 42.686 24.7 42.621C22.2572 42.5595 19.8228 42.3111 17.418 41.878C17.119 41.824 16.827 41.742 16.558 41.597C16.075 41.336 16.027 40.946 16.445 40.571C16.839 40.217 17.311 39.987 17.8 39.799C18.722 39.445 19.661 39.17 20.665 39.221C20.841 39.229 21.019 39.226 21.236 39.405H21.232ZM29.196 30.681L29.486 30.319C30.191 29.424 30.204 28.429 29.505 27.534C29.029 26.924 28.554 26.32 28.273 25.583C27.774 24.269 28.045 23.104 28.915 22.044C29.702 21.087 30.729 20.448 31.816 19.901C32.7779 19.4186 33.783 19.0275 34.818 18.733L35.09 18.664C35.031 18.813 34.916 18.845 34.826 18.899C33.644 19.608 32.471 20.333 31.416 21.229C30.993 21.589 30.602 21.977 30.288 22.439C29.778 23.19 29.771 23.96 30.201 24.744C30.453 25.203 30.765 25.622 31.065 26.049C31.91 27.249 31.885 28.177 30.967 29.325C30.493 29.918 29.891 30.359 29.197 30.682H29.196V30.681ZM23.698 36.919C23.354 37.363 23.399 37.526 23.878 37.68C24.329 37.825 24.802 37.847 25.266 37.898C27.1361 38.096 29.0257 38.0019 30.867 37.619C31.137 37.564 31.369 37.575 31.608 37.73C31.968 37.965 32.367 38.121 32.76 38.294C32.833 38.326 32.948 38.333 32.954 38.428C32.96 38.533 32.842 38.533 32.77 38.562C31.5577 39.0501 30.2811 39.3604 28.98 39.483C27.34 39.642 25.707 39.603 24.1 39.183C23.613 39.056 23.143 38.881 22.713 38.616C22.048 38.204 22.065 37.654 22.75 37.279C23.0445 37.1089 23.3641 36.9867 23.697 36.917L23.698 36.919ZM24.247 29.798L22.337 30.372C21.9811 30.4936 21.6384 30.6507 21.314 30.841C21.198 30.91 21.073 30.993 21.084 31.151C21.095 31.316 21.242 31.364 21.366 31.41C21.933 31.611 22.529 31.649 23.121 31.698C24.655 31.823 26.189 31.757 27.722 31.688C29.9424 31.5858 32.1547 31.3504 34.347 30.983C34.438 30.968 34.528 30.928 34.698 31.012C34.116 31.246 33.672 31.64 33.108 31.785C31.801 32.122 30.467 32.29 29.124 32.415C27.3987 32.5767 25.6651 32.6321 23.933 32.581C22.672 32.545 21.411 32.462 20.168 32.217C19.8285 32.1548 19.4966 32.0566 19.178 31.924C18.987 31.841 18.77 31.759 18.745 31.516C18.719 31.267 18.925 31.151 19.102 31.046C19.589 30.754 20.12 30.562 20.649 30.371C21.757 29.971 22.906 29.769 24.08 29.713C24.13 29.71 24.184 29.7 24.247 29.798ZM22.87 33.432C22.87 33.568 22.779 33.619 22.729 33.693C22.504 34.041 22.569 34.265 22.953 34.433C23.306 34.586 23.686 34.596 24.057 34.636C26.501 34.894 28.934 34.816 31.346 34.348C31.923 34.236 32.436 34.186 32.9 34.641C33.063 34.801 33.311 34.875 33.524 34.99C33.47 35.138 33.333 35.114 33.234 35.142C31.699 35.561 30.139 35.831 28.552 35.933C26.735 36.051 24.925 36.059 23.133 35.672C22.612 35.559 22.096 35.42 21.645 35.118C21.144 34.782 21.14 34.378 21.63 34.017C22.001 33.743 22.415 33.563 22.868 33.432H22.872H22.87ZM35.397 30.037C35.745 29.626 36.146 29.542 36.546 29.48C37.413 29.344 38.23 29.463 38.947 30.021C39.755 30.65 40.017 31.701 39.596 32.636C39.296 33.303 38.812 33.813 38.224 34.232C37.223 34.944 36.1 35.381 34.926 35.706C34.889 35.716 34.847 35.706 34.784 35.706C34.824 35.507 34.989 35.471 35.115 35.402C35.997 34.917 36.835 34.37 37.527 33.629C37.99 33.132 38.365 32.577 38.415 31.874C38.498 30.717 37.489 29.753 36.334 29.876C36.048 29.906 35.766 29.971 35.399 30.035V30.038L35.397 30.037Z" fill="#933C23" fill-opacity="0.8"/>
</g>
</g>
</g>
<defs>
<clipPath id="clip0_11_183">
<rect y="0.190002" width="56" height="56" rx="8" fill="white"/>
</clipPath>
<clipPath id="clip1_11_183">
<rect width="56" height="56" fill="white" transform="translate(0 0.190002)"/>
</clipPath>
<clipPath id="clip2_11_183">
<rect width="56" height="56" fill="white" transform="translate(0 0.190002)"/>
</clipPath>
</defs>
</svg>
