<svg width="56" height="57" viewBox="0 0 56 57" fill="none" xmlns="http://www.w3.org/2000/svg">
<g clip-path="url(#clip0_11_602)">
<g clip-path="url(#clip1_11_602)">
<g clip-path="url(#clip2_11_602)">
<path d="M48 0.529785H8C3.58172 0.529785 0 4.11151 0 8.52979V48.5298C0 52.9481 3.58172 56.5298 8 56.5298H48C52.4183 56.5298 56 52.9481 56 48.5298V8.52979C56 4.11151 52.4183 0.529785 48 0.529785Z" fill="#FFCE8B"/>
<path d="M26.576 44.5298C25.968 44.4288 25.351 44.4688 24.738 44.4188C23.561 44.3208 22.39 44.2058 21.245 43.9048C20.989 43.8368 20.731 43.7648 20.526 43.5658L22.443 43.7778C23.928 43.9378 25.419 43.9658 26.912 43.9718C30.094 43.9828 33.249 43.7448 36.355 43.0148C37.311 42.7908 38.256 42.5198 39.114 42.0188C39.328 41.8948 39.523 41.7358 39.783 41.5528C39.75 41.8284 39.6322 42.087 39.446 42.2928C39.03 42.7738 38.475 43.0468 37.903 43.2778C36.712 43.7578 35.461 43.9868 34.197 44.1598C32.863 44.3428 31.524 44.4638 30.176 44.4838C30.085 44.4838 29.993 44.5138 29.901 44.5308H26.578L26.576 44.5298ZM27.96 29.9608C27.0767 29.2271 26.2494 28.4285 25.485 27.5718C24.907 26.9218 24.386 26.2328 24.039 25.4258C23.577 24.3538 23.675 23.3588 24.38 22.4148C25.16 21.3718 26.171 20.5798 27.179 19.7838C28.195 18.9808 29.224 18.1938 30.059 17.1898C31.122 15.9118 31.564 14.4668 31.218 12.8128C31.199 12.7248 31.17 12.6308 31.212 12.5308C31.356 12.5348 31.389 12.6638 31.446 12.7508C32.121 13.7838 32.204 14.8998 31.87 16.0568C31.524 17.2608 30.803 18.2418 29.973 19.1558C29.143 20.0698 28.142 20.8028 27.225 21.6238C26.7244 22.0685 26.2948 22.5872 25.951 23.1618C25.253 24.3348 25.334 25.5068 25.954 26.6808C26.438 27.5988 27.109 28.3958 27.647 29.2788C27.776 29.4918 27.905 29.7038 27.961 29.9588L27.96 29.9608ZM21.232 39.7448C20.422 39.8148 19.704 39.9768 19.018 40.2688C18.8134 40.3481 18.6191 40.4515 18.439 40.5768C18.143 40.7938 18.153 41.0028 18.485 41.1608C18.988 41.4018 19.53 41.5248 20.075 41.6228C21.34 41.8498 22.618 41.9558 23.903 42.0268L28.696 42.0618C31.252 41.9778 33.807 41.8318 36.314 41.2588C36.703 41.1698 37.083 41.0568 37.437 40.8698C37.92 40.6148 37.998 40.4248 37.86 39.9128C38.446 40.1068 38.55 40.5378 38.102 40.9498C37.668 41.3498 37.12 41.5398 36.577 41.7258C35.157 42.2108 33.685 42.4578 32.203 42.6568C29.711 42.9918 27.205 43.0258 24.7 42.9608C22.2572 42.8993 19.8228 42.6509 17.418 42.2178C17.119 42.1638 16.827 42.0818 16.558 41.9368C16.075 41.6758 16.027 41.2858 16.445 40.9108C16.839 40.5568 17.311 40.3268 17.8 40.1388C18.722 39.7848 19.661 39.5098 20.665 39.5608C20.841 39.5688 21.019 39.5658 21.236 39.7448H21.232ZM29.196 31.0208L29.486 30.6588C30.191 29.7638 30.204 28.7688 29.505 27.8738C29.029 27.2638 28.554 26.6598 28.273 25.9228C27.774 24.6088 28.045 23.4438 28.915 22.3838C29.702 21.4268 30.729 20.7878 31.816 20.2408C32.7779 19.7584 33.783 19.3673 34.818 19.0728L35.09 19.0038C35.031 19.1528 34.916 19.1848 34.826 19.2388C33.644 19.9478 32.471 20.6728 31.416 21.5688C30.993 21.9288 30.602 22.3168 30.288 22.7788C29.778 23.5298 29.771 24.2998 30.201 25.0838C30.453 25.5428 30.765 25.9618 31.065 26.3888C31.91 27.5888 31.885 28.5168 30.967 29.6648C30.493 30.2578 29.891 30.6988 29.197 31.0218H29.196V31.0208ZM23.698 37.2588C23.354 37.7028 23.399 37.8658 23.878 38.0198C24.329 38.1648 24.802 38.1868 25.266 38.2378C27.1361 38.4358 29.0257 38.3417 30.867 37.9588C31.137 37.9038 31.369 37.9148 31.608 38.0698C31.968 38.3048 32.367 38.4608 32.76 38.6338C32.833 38.6658 32.948 38.6728 32.954 38.7678C32.96 38.8728 32.842 38.8728 32.77 38.9018C31.5577 39.3899 30.2811 39.7001 28.98 39.8228C27.34 39.9818 25.707 39.9428 24.1 39.5228C23.613 39.3958 23.143 39.2208 22.713 38.9558C22.048 38.5438 22.065 37.9938 22.75 37.6188C23.0445 37.4487 23.3641 37.3265 23.697 37.2568L23.698 37.2588ZM24.247 30.1378L22.337 30.7118C21.9811 30.8334 21.6384 30.9905 21.314 31.1808C21.198 31.2498 21.073 31.3328 21.084 31.4908C21.095 31.6558 21.242 31.7038 21.366 31.7498C21.933 31.9508 22.529 31.9888 23.121 32.0378C24.655 32.1628 26.189 32.0968 27.722 32.0278C29.9424 31.9256 32.1547 31.6902 34.347 31.3228C34.438 31.3078 34.528 31.2678 34.698 31.3518C34.116 31.5858 33.672 31.9798 33.108 32.1248C31.801 32.4618 30.467 32.6298 29.124 32.7548C27.3987 32.9165 25.6651 32.9719 23.933 32.9208C22.672 32.8848 21.411 32.8018 20.168 32.5568C19.8285 32.4946 19.4966 32.3964 19.178 32.2638C18.987 32.1808 18.77 32.0988 18.745 31.8558C18.719 31.6068 18.925 31.4908 19.102 31.3858C19.589 31.0938 20.12 30.9018 20.649 30.7108C21.757 30.3108 22.906 30.1088 24.08 30.0528C24.13 30.0498 24.184 30.0398 24.247 30.1378ZM22.87 33.7718C22.87 33.9078 22.779 33.9588 22.729 34.0328C22.504 34.3808 22.569 34.6048 22.953 34.7728C23.306 34.9258 23.686 34.9358 24.057 34.9758C26.501 35.2338 28.934 35.1558 31.346 34.6878C31.923 34.5758 32.436 34.5258 32.9 34.9808C33.063 35.1408 33.311 35.2148 33.524 35.3298C33.47 35.4778 33.333 35.4538 33.234 35.4818C31.699 35.9008 30.139 36.1708 28.552 36.2728C26.735 36.3908 24.925 36.3988 23.133 36.0118C22.612 35.8988 22.096 35.7598 21.645 35.4578C21.144 35.1218 21.14 34.7178 21.63 34.3568C22.001 34.0828 22.415 33.9028 22.868 33.7718H22.872H22.87ZM35.397 30.3768C35.745 29.9658 36.146 29.8818 36.546 29.8198C37.413 29.6838 38.23 29.8028 38.947 30.3608C39.755 30.9898 40.017 32.0408 39.596 32.9758C39.296 33.6428 38.812 34.1528 38.224 34.5718C37.223 35.2838 36.1 35.7208 34.926 36.0458C34.889 36.0558 34.847 36.0458 34.784 36.0458C34.824 35.8468 34.989 35.8108 35.115 35.7418C35.997 35.2568 36.835 34.7098 37.527 33.9688C37.99 33.4718 38.365 32.9168 38.415 32.2138C38.498 31.0568 37.489 30.0928 36.334 30.2158C36.048 30.2458 35.766 30.3108 35.399 30.3748V30.3778L35.397 30.3768Z" fill="#933C23" fill-opacity="0.8"/>
</g>
</g>
</g>
<defs>
<clipPath id="clip0_11_602">
<rect y="0.529785" width="56" height="56" rx="8" fill="white"/>
</clipPath>
<clipPath id="clip1_11_602">
<rect width="56" height="56" fill="white" transform="translate(0 0.529785)"/>
</clipPath>
<clipPath id="clip2_11_602">
<rect width="56" height="56" fill="white" transform="translate(0 0.529785)"/>
</clipPath>
</defs>
</svg>
