<svg width="56" height="57" viewBox="0 0 56 57" fill="none" xmlns="http://www.w3.org/2000/svg">
<g clip-path="url(#clip0_11_81)">
<g clip-path="url(#clip1_11_81)">
<g clip-path="url(#clip2_11_81)">
<path d="M48 0.599976H8C3.58172 0.599976 0 4.1817 0 8.59998V48.6C0 53.0183 3.58172 56.6 8 56.6H48C52.4183 56.6 56 53.0183 56 48.6V8.59998C56 4.1817 52.4183 0.599976 48 0.599976Z" fill="#FFCE8B"/>
<path d="M26.576 44.6C25.968 44.499 25.351 44.539 24.738 44.489C23.561 44.391 22.39 44.276 21.245 43.975C20.989 43.907 20.731 43.835 20.526 43.636L22.443 43.848C23.928 44.008 25.419 44.036 26.912 44.042C30.094 44.053 33.249 43.815 36.355 43.085C37.311 42.861 38.256 42.59 39.114 42.089C39.328 41.965 39.523 41.806 39.783 41.623C39.75 41.8986 39.6322 42.1571 39.446 42.363C39.03 42.844 38.475 43.117 37.903 43.348C36.712 43.828 35.461 44.057 34.197 44.23C32.863 44.413 31.524 44.534 30.176 44.554C30.085 44.554 29.993 44.584 29.901 44.601H26.578L26.576 44.6ZM27.96 30.031C27.0767 29.2973 26.2494 28.4987 25.485 27.642C24.907 26.992 24.386 26.303 24.039 25.496C23.577 24.424 23.675 23.429 24.38 22.485C25.16 21.442 26.171 20.65 27.179 19.854C28.195 19.051 29.224 18.264 30.059 17.26C31.122 15.982 31.564 14.537 31.218 12.883C31.199 12.795 31.17 12.701 31.212 12.601C31.356 12.605 31.389 12.734 31.446 12.821C32.121 13.854 32.204 14.97 31.87 16.127C31.524 17.331 30.803 18.312 29.973 19.226C29.143 20.14 28.142 20.873 27.225 21.694C26.7244 22.1387 26.2948 22.6574 25.951 23.232C25.253 24.405 25.334 25.577 25.954 26.751C26.438 27.669 27.109 28.466 27.647 29.349C27.776 29.562 27.905 29.774 27.961 30.029L27.96 30.031ZM21.232 39.815C20.422 39.885 19.704 40.047 19.018 40.339C18.8134 40.4183 18.6191 40.5217 18.439 40.647C18.143 40.864 18.153 41.073 18.485 41.231C18.988 41.472 19.53 41.595 20.075 41.693C21.34 41.92 22.618 42.026 23.903 42.097L28.696 42.132C31.252 42.048 33.807 41.902 36.314 41.329C36.703 41.24 37.083 41.127 37.437 40.94C37.92 40.685 37.998 40.495 37.86 39.983C38.446 40.177 38.55 40.608 38.102 41.02C37.668 41.42 37.12 41.61 36.577 41.796C35.157 42.281 33.685 42.528 32.203 42.727C29.711 43.062 27.205 43.096 24.7 43.031C22.2572 42.9695 19.8228 42.7211 17.418 42.288C17.119 42.234 16.827 42.152 16.558 42.007C16.075 41.746 16.027 41.356 16.445 40.981C16.839 40.627 17.311 40.397 17.8 40.209C18.722 39.855 19.661 39.58 20.665 39.631C20.841 39.639 21.019 39.636 21.236 39.815H21.232ZM29.196 31.091L29.486 30.729C30.191 29.834 30.204 28.839 29.505 27.944C29.029 27.334 28.554 26.73 28.273 25.993C27.774 24.679 28.045 23.514 28.915 22.454C29.702 21.497 30.729 20.858 31.816 20.311C32.7779 19.8286 33.783 19.4375 34.818 19.143L35.09 19.074C35.031 19.223 34.916 19.255 34.826 19.309C33.644 20.018 32.471 20.743 31.416 21.639C30.993 21.999 30.602 22.387 30.288 22.849C29.778 23.6 29.771 24.37 30.201 25.154C30.453 25.613 30.765 26.032 31.065 26.459C31.91 27.659 31.885 28.587 30.967 29.735C30.493 30.328 29.891 30.769 29.197 31.092H29.196V31.091ZM23.698 37.329C23.354 37.773 23.399 37.936 23.878 38.09C24.329 38.235 24.802 38.257 25.266 38.308C27.1361 38.506 29.0257 38.4119 30.867 38.029C31.137 37.974 31.369 37.985 31.608 38.14C31.968 38.375 32.367 38.531 32.76 38.704C32.833 38.736 32.948 38.743 32.954 38.838C32.96 38.943 32.842 38.943 32.77 38.972C31.5577 39.4601 30.2811 39.7703 28.98 39.893C27.34 40.052 25.707 40.013 24.1 39.593C23.613 39.466 23.143 39.291 22.713 39.026C22.048 38.614 22.065 38.064 22.75 37.689C23.0445 37.5189 23.3641 37.3967 23.697 37.327L23.698 37.329ZM24.247 30.208L22.337 30.782C21.9811 30.9036 21.6384 31.0607 21.314 31.2509C21.198 31.32 21.073 31.403 21.084 31.561C21.095 31.726 21.242 31.774 21.366 31.82C21.933 32.021 22.529 32.059 23.121 32.108C24.655 32.233 26.189 32.167 27.722 32.0979C29.9424 31.9958 32.1547 31.7604 34.347 31.393C34.438 31.378 34.528 31.338 34.698 31.422C34.116 31.656 33.672 32.0499 33.108 32.195C31.801 32.5319 30.467 32.7 29.124 32.825C27.3987 32.9867 25.6651 33.0421 23.933 32.991C22.672 32.955 21.411 32.872 20.168 32.627C19.8285 32.5648 19.4966 32.4666 19.178 32.334C18.987 32.2509 18.77 32.169 18.745 31.926C18.719 31.677 18.925 31.561 19.102 31.456C19.589 31.164 20.12 30.972 20.649 30.781C21.757 30.381 22.906 30.179 24.08 30.123C24.13 30.12 24.184 30.11 24.247 30.208ZM22.87 33.842C22.87 33.978 22.779 34.029 22.729 34.103C22.504 34.451 22.569 34.675 22.953 34.843C23.306 34.996 23.686 35.006 24.057 35.046C26.501 35.304 28.934 35.226 31.346 34.758C31.923 34.646 32.436 34.596 32.9 35.051C33.063 35.211 33.311 35.285 33.524 35.4C33.47 35.548 33.333 35.524 33.234 35.552C31.699 35.971 30.139 36.241 28.552 36.343C26.735 36.461 24.925 36.469 23.133 36.082C22.612 35.969 22.096 35.83 21.645 35.528C21.144 35.192 21.14 34.788 21.63 34.427C22.001 34.153 22.415 33.973 22.868 33.842H22.872H22.87ZM35.397 30.447C35.745 30.036 36.146 29.952 36.546 29.89C37.413 29.754 38.23 29.8729 38.947 30.431C39.755 31.0599 40.017 32.111 39.596 33.046C39.296 33.713 38.812 34.223 38.224 34.642C37.223 35.354 36.1 35.791 34.926 36.116C34.889 36.126 34.847 36.116 34.784 36.116C34.824 35.917 34.989 35.881 35.115 35.812C35.997 35.327 36.835 34.78 37.527 34.039C37.99 33.542 38.365 32.9869 38.415 32.284C38.498 31.127 37.489 30.163 36.334 30.286C36.048 30.316 35.766 30.381 35.399 30.445V30.448L35.397 30.447Z" fill="#933C23" fill-opacity="0.8"/>
</g>
</g>
</g>
<defs>
<clipPath id="clip0_11_81">
<rect y="0.599976" width="56" height="56" rx="8" fill="white"/>
</clipPath>
<clipPath id="clip1_11_81">
<rect width="56" height="56" fill="white" transform="translate(0 0.599976)"/>
</clipPath>
<clipPath id="clip2_11_81">
<rect width="56" height="56" fill="white" transform="translate(0 0.599976)"/>
</clipPath>
</defs>
</svg>
