<svg width="36" height="36" viewBox="0 0 36 36" fill="none" xmlns="http://www.w3.org/2000/svg">
<g clip-path="url(#clip0_16_77)">
<path d="M19 36C28.9411 36 37 27.9411 37 18C37 8.05888 28.9411 0 19 0C9.05888 0 1 8.05888 1 18C1 27.9411 9.05888 36 19 36Z" fill="#007AB9"/>
<path d="M29.7548 19.4486V26.8696H25.4523V19.946C25.4523 18.2075 24.8311 17.0203 23.2733 17.0203C22.0844 17.0203 21.3782 17.8196 21.0663 18.5935C20.9531 18.8701 20.9239 19.2542 20.9239 19.6421V26.8693H16.621C16.621 26.8693 16.6788 15.1429 16.621 13.9291H20.9242V15.7628C20.9155 15.7773 20.9033 15.7914 20.8956 15.8052H20.9242V15.7628C21.496 14.883 22.5157 13.6252 24.8019 13.6252C27.6326 13.6252 29.7548 15.4747 29.7548 19.4486ZM12.1199 7.69141C10.6481 7.69141 9.68518 8.65754 9.68518 9.92689C9.68518 11.1693 10.6202 12.1633 12.0634 12.1633H12.0914C13.5921 12.1633 14.5251 11.1693 14.5251 9.92689C14.4966 8.65754 13.5921 7.69141 12.1199 7.69141ZM9.94091 26.8696H14.2421V13.9291H9.94091V26.8696Z" fill="#F1F2F2"/>
</g>
<defs>
<clipPath id="clip0_16_77">
<rect width="36" height="36" fill="white"/>
</clipPath>
</defs>
</svg>
