<svg width="56" height="57" viewBox="0 0 56 57" fill="none" xmlns="http://www.w3.org/2000/svg">
<g clip-path="url(#clip0_11_655)">
<g clip-path="url(#clip1_11_655)">
<g clip-path="url(#clip2_11_655)">
<path d="M48 0.129883H8C3.58172 0.129883 0 3.7116 0 8.12988V48.1301C0 52.5484 3.58172 56.1301 8 56.1301H48C52.4183 56.1301 56 52.5484 56 48.1301V8.12988C56 3.7116 52.4183 0.129883 48 0.129883Z" fill="#FFE379"/>
<path d="M29.2686 12.1299C29.8848 12.2101 30.503 12.2671 31.1149 12.3747C32.3936 12.6047 33.6196 12.9824 34.6197 13.8665C35.3287 14.4932 35.7423 15.276 35.7465 16.2382C35.7529 18.5529 35.7507 20.8655 35.7423 23.1803C35.7402 23.7922 35.6895 24.4041 35.4743 24.9865C34.9531 26.3981 33.8643 27.124 32.4548 27.4447C32.0307 27.5418 31.596 27.5818 31.1593 27.5818C28.5955 27.5776 26.0339 27.5734 23.4702 27.5861C22.5924 27.5903 21.7632 27.8076 21.0352 28.3225C20.0688 29.0061 19.6025 29.9894 19.3809 31.1141C19.3155 31.4411 19.3028 31.7724 19.305 32.1058C19.305 33.2473 19.305 34.3889 19.305 35.5304C19.305 35.7288 19.3007 35.9145 19.0264 35.9123C18.1761 35.9081 17.3215 35.9482 16.4754 35.8955C14.9751 35.8005 13.9433 34.9544 13.2111 33.701C12.5971 32.6523 12.3038 31.496 12.154 30.3059C11.9261 28.4934 11.9261 26.683 12.3249 24.8915C12.6076 23.6149 13.1056 22.4417 14.091 21.5281C14.9203 20.76 15.9014 20.3549 17.024 20.3528C20.5204 20.3401 24.0188 20.3507 27.5152 20.3528C27.8472 20.3528 28.0132 20.1889 28.0132 19.8611C28.0132 19.494 27.8275 19.3104 27.4561 19.3104C25.2152 19.3104 22.9722 19.3104 20.7314 19.3104C20.2882 19.3104 20.2925 19.3104 20.2861 18.8568C20.2735 17.8819 20.2756 16.9071 20.2397 15.9322C20.1975 14.7801 20.7398 13.9741 21.6703 13.3812C22.6536 12.7524 23.7635 12.4928 24.8966 12.3156C25.3967 12.2375 25.9031 12.1932 26.4053 12.132C27.3612 12.132 28.3149 12.132 29.2708 12.132L29.2686 12.1299ZM24.9705 16.0103C24.9789 15.2211 24.4197 14.6324 23.6517 14.6261C22.8667 14.6177 22.2527 15.2106 22.2485 15.9808C22.2443 16.7151 22.8752 17.3438 23.6221 17.3481C24.367 17.3523 24.962 16.7615 24.9705 16.0103Z" fill="#B97A00" fill-opacity="0.8"/>
<path d="M33.7841 35.6743C31.9884 35.6743 30.1927 35.6743 28.3971 35.6743C27.9751 35.6743 27.9708 35.6743 27.973 36.0837C27.973 36.7969 27.9097 36.7251 28.6018 36.7251C30.8342 36.7251 33.0645 36.7251 35.297 36.7251C35.7401 36.7251 35.7422 36.7294 35.7443 37.1809C35.7443 38.198 35.7274 39.215 35.7527 40.2321C35.7781 41.2069 35.3307 41.9201 34.588 42.4835C33.879 43.0216 33.0603 43.3338 32.2036 43.509C29.4669 44.0703 26.7238 44.1019 23.9955 43.4562C23.0164 43.2241 22.1049 42.8253 21.3516 42.129C20.6658 41.4939 20.2776 40.7343 20.286 39.77C20.305 37.3096 20.2902 34.8493 20.3008 32.3911C20.305 31.5492 20.5456 30.7727 21.0562 30.0932C21.7251 29.2028 22.6683 28.7892 23.7212 28.5677C24.0483 28.498 24.3795 28.4959 24.7129 28.4959C27.1416 28.4959 29.5703 28.5023 31.9989 28.4917C32.6826 28.4896 33.3684 28.4411 34.0246 28.209C35.5143 27.6793 36.2803 26.5547 36.601 25.0692C36.6938 24.6324 36.7381 24.1893 36.736 23.7399C36.7318 22.6701 36.7424 21.6024 36.7297 20.5326C36.7276 20.2519 36.8162 20.1464 37.1032 20.1528C37.7868 20.1675 38.4726 20.1739 39.1584 20.1528C40.5405 20.1127 41.5976 20.7119 42.4142 21.7838C43.1696 22.7756 43.5452 23.9255 43.7456 25.1367C44.0959 27.2552 44.1191 29.3737 43.5958 31.469C43.2709 32.773 42.6906 33.9441 41.5892 34.7881C40.8401 35.3599 39.9961 35.6722 39.0486 35.6765C37.2952 35.6828 35.5396 35.6765 33.7862 35.6765L33.7841 35.6743ZM31.0157 40.0675C31.0178 40.8165 31.636 41.4369 32.3788 41.439C33.132 41.439 33.7524 40.806 33.7461 40.04C33.7397 39.2889 33.1173 38.6812 32.3661 38.6917C31.6065 38.7023 31.0114 39.3079 31.0136 40.0675H31.0157Z" fill="#B97A00" fill-opacity="0.8"/>
</g>
</g>
</g>
<defs>
<clipPath id="clip0_11_655">
<rect y="0.129883" width="56" height="56" rx="8" fill="white"/>
</clipPath>
<clipPath id="clip1_11_655">
<rect width="56" height="56" fill="white" transform="translate(0 0.129883)"/>
</clipPath>
<clipPath id="clip2_11_655">
<rect width="56" height="56" fill="white" transform="translate(0 0.129883)"/>
</clipPath>
</defs>
</svg>
