<svg width="56" height="57" viewBox="0 0 56 57" fill="none" xmlns="http://www.w3.org/2000/svg">
<g clip-path="url(#clip0_11_155)">
<g clip-path="url(#clip1_11_155)">
<g clip-path="url(#clip2_11_155)">
<path d="M48 0.190002H8C3.58172 0.190002 0 3.77172 0 8.19V48.1902C0 52.6085 3.58172 56.1902 8 56.1902H48C52.4183 56.1902 56 52.6085 56 48.1902V8.19C56 3.77172 52.4183 0.190002 48 0.190002Z" fill="#FFE379"/>
<path d="M29.2686 12.19C29.8848 12.2702 30.503 12.3272 31.1149 12.4348C32.3936 12.6648 33.6196 13.0425 34.6197 13.9266C35.3287 14.5533 35.7423 15.3361 35.7465 16.2983C35.7529 18.613 35.7507 20.9256 35.7423 23.2404C35.7402 23.8523 35.6895 24.4642 35.4743 25.0466C34.9531 26.4582 33.8643 27.1841 32.4548 27.5048C32.0307 27.6019 31.596 27.6419 31.1593 27.6419C28.5955 27.6377 26.0339 27.6335 23.4702 27.6462C22.5924 27.6504 21.7632 27.8677 21.0352 28.3826C20.0688 29.0662 19.6025 30.0495 19.3809 31.1742C19.3155 31.5012 19.3028 31.8325 19.305 32.1659C19.305 33.3074 19.305 34.449 19.305 35.5905C19.305 35.7889 19.3007 35.9746 19.0264 35.9724C18.1761 35.9682 17.3215 36.0083 16.4754 35.9556C14.9751 35.8606 13.9433 35.0145 13.2111 33.7611C12.5971 32.7124 12.3038 31.5561 12.154 30.366C11.9261 28.5535 11.9261 26.7431 12.3249 24.9516C12.6076 23.675 13.1056 22.5018 14.091 21.5882C14.9203 20.8201 15.9014 20.415 17.024 20.4129C20.5204 20.4002 24.0188 20.4108 27.5152 20.4129C27.8472 20.4129 28.0132 20.249 28.0132 19.9212C28.0132 19.5541 27.8275 19.3705 27.4561 19.3705C25.2152 19.3705 22.9722 19.3705 20.7314 19.3705C20.2882 19.3705 20.2925 19.3705 20.2861 18.9169C20.2735 17.942 20.2756 16.9672 20.2397 15.9923C20.1975 14.8402 20.7398 14.0342 21.6703 13.4413C22.6536 12.8125 23.7635 12.5529 24.8966 12.3757C25.3967 12.2976 25.9031 12.2533 26.4053 12.1921C27.3612 12.1921 28.3149 12.1921 29.2708 12.1921L29.2686 12.19ZM24.9705 16.0704C24.9789 15.2812 24.4197 14.6925 23.6517 14.6862C22.8667 14.6778 22.2527 15.2707 22.2485 16.0409C22.2443 16.7752 22.8752 17.4039 23.6221 17.4082C24.367 17.4124 24.962 16.8216 24.9705 16.0704Z" fill="#B97A00" fill-opacity="0.8"/>
<path d="M33.7841 35.7343C31.9884 35.7343 30.1927 35.7343 28.3971 35.7343C27.9751 35.7343 27.9708 35.7343 27.973 36.1437C27.973 36.8569 27.9097 36.7851 28.6018 36.7851C30.8342 36.7851 33.0645 36.7851 35.297 36.7851C35.7401 36.7851 35.7422 36.7894 35.7443 37.2409C35.7443 38.258 35.7274 39.275 35.7527 40.2921C35.7781 41.2669 35.3307 41.9801 34.588 42.5435C33.879 43.0816 33.0603 43.3938 32.2036 43.569C29.4669 44.1303 26.7238 44.1619 23.9955 43.5162C23.0164 43.2841 22.1049 42.8853 21.3516 42.189C20.6658 41.5539 20.2776 40.7943 20.286 39.83C20.305 37.3696 20.2902 34.9093 20.3008 32.4511C20.305 31.6092 20.5456 30.8327 21.0562 30.1532C21.7251 29.2628 22.6683 28.8492 23.7212 28.6277C24.0483 28.558 24.3795 28.5559 24.7129 28.5559C27.1416 28.5559 29.5703 28.5623 31.9989 28.5517C32.6826 28.5496 33.3684 28.5011 34.0246 28.269C35.5143 27.7393 36.2803 26.6147 36.601 25.1292C36.6938 24.6924 36.7381 24.2493 36.736 23.7999C36.7318 22.7301 36.7424 21.6624 36.7297 20.5926C36.7276 20.3119 36.8162 20.2064 37.1032 20.2128C37.7868 20.2275 38.4726 20.2339 39.1584 20.2128C40.5405 20.1727 41.5976 20.7719 42.4142 21.8438C43.1696 22.8356 43.5452 23.9855 43.7456 25.1967C44.0959 27.3152 44.1191 29.4337 43.5958 31.529C43.2709 32.833 42.6906 34.0041 41.5892 34.8481C40.8401 35.4199 39.9961 35.7322 39.0486 35.7365C37.2952 35.7428 35.5396 35.7365 33.7862 35.7365L33.7841 35.7343ZM31.0157 40.1275C31.0178 40.8765 31.636 41.4969 32.3788 41.499C33.132 41.499 33.7524 40.866 33.7461 40.1C33.7397 39.3489 33.1173 38.7412 32.3661 38.7517C31.6065 38.7623 31.0114 39.3679 31.0136 40.1275H31.0157Z" fill="#B97A00" fill-opacity="0.8"/>
</g>
</g>
</g>
<defs>
<clipPath id="clip0_11_155">
<rect y="0.190002" width="56" height="56" rx="8" fill="white"/>
</clipPath>
<clipPath id="clip1_11_155">
<rect width="56" height="56" fill="white" transform="translate(0 0.190002)"/>
</clipPath>
<clipPath id="clip2_11_155">
<rect width="56" height="56" fill="white" transform="translate(0 0.190002)"/>
</clipPath>
</defs>
</svg>
