<svg width="56" height="57" viewBox="0 0 56 57" fill="none" xmlns="http://www.w3.org/2000/svg">
<g clip-path="url(#clip0_11_466)">
<g clip-path="url(#clip1_11_466)">
<g clip-path="url(#clip2_11_466)">
<path d="M48 0.75H8C3.58172 0.75 0 4.33172 0 8.75V48.7502C0 53.1685 3.58172 56.7502 8 56.7502H48C52.4183 56.7502 56 53.1685 56 48.7502V8.75C56 4.33172 52.4183 0.75 48 0.75Z" fill="#FFE379"/>
<path d="M29.2686 12.75C29.8848 12.8302 30.503 12.8872 31.1149 12.9948C32.3936 13.2248 33.6196 13.6025 34.6197 14.4866C35.3287 15.1133 35.7423 15.8961 35.7465 16.8583C35.7529 19.173 35.7507 21.4856 35.7423 23.8004C35.7402 24.4123 35.6895 25.0242 35.4743 25.6066C34.9531 27.0182 33.8643 27.7441 32.4548 28.0648C32.0307 28.1619 31.596 28.2019 31.1593 28.2019C28.5955 28.1977 26.0339 28.1935 23.4702 28.2062C22.5924 28.2104 21.7632 28.4277 21.0352 28.9426C20.0688 29.6262 19.6025 30.6095 19.3809 31.7342C19.3155 32.0612 19.3028 32.3925 19.305 32.7259C19.305 33.8674 19.305 35.009 19.305 36.1505C19.305 36.3489 19.3007 36.5346 19.0264 36.5324C18.1761 36.5282 17.3215 36.5683 16.4754 36.5156C14.9751 36.4206 13.9433 35.5745 13.2111 34.3211C12.5971 33.2724 12.3038 32.1161 12.154 30.926C11.9261 29.1135 11.9261 27.3031 12.3249 25.5116C12.6076 24.235 13.1056 23.0618 14.091 22.1482C14.9203 21.3801 15.9014 20.975 17.024 20.9729C20.5204 20.9602 24.0188 20.9708 27.5152 20.9729C27.8472 20.9729 28.0132 20.809 28.0132 20.4812C28.0132 20.1141 27.8275 19.9305 27.4561 19.9305C25.2152 19.9305 22.9722 19.9305 20.7314 19.9305C20.2882 19.9305 20.2925 19.9305 20.2861 19.4769C20.2735 18.502 20.2756 17.5272 20.2397 16.5523C20.1975 15.4002 20.7398 14.5942 21.6703 14.0013C22.6536 13.3725 23.7635 13.1129 24.8966 12.9357C25.3967 12.8576 25.9031 12.8133 26.4053 12.7521C27.3612 12.7521 28.3149 12.7521 29.2708 12.7521L29.2686 12.75ZM24.9705 16.6304C24.9789 15.8412 24.4197 15.2525 23.6517 15.2462C22.8667 15.2378 22.2527 15.8307 22.2485 16.6009C22.2443 17.3352 22.8752 17.9639 23.6221 17.9682C24.367 17.9724 24.962 17.3816 24.9705 16.6304Z" fill="#B97A00" fill-opacity="0.8"/>
<path d="M33.7841 36.2943C31.9884 36.2943 30.1927 36.2943 28.3971 36.2943C27.9751 36.2943 27.9708 36.2943 27.973 36.7037C27.973 37.4169 27.9097 37.3451 28.6018 37.3451C30.8342 37.3451 33.0645 37.3451 35.297 37.3451C35.7401 37.3451 35.7422 37.3494 35.7443 37.8009C35.7443 38.818 35.7274 39.835 35.7527 40.8521C35.7781 41.8269 35.3307 42.5401 34.588 43.1035C33.879 43.6416 33.0603 43.9538 32.2036 44.129C29.4669 44.6903 26.7238 44.7219 23.9955 44.0762C23.0164 43.8441 22.1049 43.4453 21.3516 42.749C20.6658 42.1139 20.2776 41.3543 20.286 40.39C20.305 37.9296 20.2902 35.4693 20.3008 33.0111C20.305 32.1692 20.5456 31.3927 21.0562 30.7132C21.7251 29.8228 22.6683 29.4092 23.7212 29.1877C24.0483 29.118 24.3795 29.1159 24.7129 29.1159C27.1416 29.1159 29.5703 29.1223 31.9989 29.1117C32.6826 29.1096 33.3684 29.0611 34.0246 28.829C35.5143 28.2993 36.2803 27.1747 36.601 25.6892C36.6938 25.2524 36.7381 24.8093 36.736 24.3599C36.7318 23.2901 36.7424 22.2224 36.7297 21.1526C36.7276 20.8719 36.8162 20.7664 37.1032 20.7728C37.7868 20.7875 38.4726 20.7939 39.1584 20.7728C40.5405 20.7327 41.5976 21.3319 42.4142 22.4038C43.1696 23.3956 43.5452 24.5455 43.7456 25.7567C44.0959 27.8752 44.1191 29.9937 43.5958 32.089C43.2709 33.393 42.6906 34.5641 41.5892 35.4081C40.8401 35.9799 39.9961 36.2922 39.0486 36.2965C37.2952 36.3028 35.5396 36.2965 33.7862 36.2965L33.7841 36.2943ZM31.0157 40.6875C31.0178 41.4365 31.636 42.0569 32.3788 42.059C33.132 42.059 33.7524 41.426 33.7461 40.66C33.7397 39.9089 33.1173 39.3012 32.3661 39.3117C31.6065 39.3223 31.0114 39.9279 31.0136 40.6875H31.0157Z" fill="#B97A00" fill-opacity="0.8"/>
</g>
</g>
</g>
<defs>
<clipPath id="clip0_11_466">
<rect y="0.75" width="56" height="56" rx="8" fill="white"/>
</clipPath>
<clipPath id="clip1_11_466">
<rect width="56" height="56" fill="white" transform="translate(0 0.75)"/>
</clipPath>
<clipPath id="clip2_11_466">
<rect width="56" height="56" fill="white" transform="translate(0 0.75)"/>
</clipPath>
</defs>
</svg>
