<svg width="56" height="57" viewBox="0 0 56 57" fill="none" xmlns="http://www.w3.org/2000/svg">
<g clip-path="url(#clip0_11_53)">
<g clip-path="url(#clip1_11_53)">
<g clip-path="url(#clip2_11_53)">
<path d="M48 0.599976H8C3.58172 0.599976 0 4.1817 0 8.59998V48.6002C0 53.0185 3.58172 56.6002 8 56.6002H48C52.4183 56.6002 56 53.0185 56 48.6002V8.59998C56 4.1817 52.4183 0.599976 48 0.599976Z" fill="#FFE379"/>
<path d="M29.2686 12.6C29.8848 12.6802 30.503 12.7372 31.1149 12.8448C32.3936 13.0748 33.6196 13.4525 34.6197 14.3366C35.3287 14.9633 35.7423 15.7461 35.7465 16.7083C35.7529 19.023 35.7507 21.3356 35.7423 23.6504C35.7402 24.2623 35.6895 24.8742 35.4743 25.4566C34.9531 26.8682 33.8643 27.5941 32.4548 27.9148C32.0307 28.0119 31.596 28.0519 31.1593 28.0519C28.5955 28.0477 26.0339 28.0435 23.4702 28.0562C22.5924 28.0604 21.7632 28.2777 21.0352 28.7926C20.0688 29.4762 19.6025 30.4595 19.3809 31.5842C19.3155 31.9112 19.3028 32.2425 19.305 32.5759C19.305 33.7174 19.305 34.859 19.305 36.0005C19.305 36.1989 19.3007 36.3846 19.0264 36.3824C18.1761 36.3782 17.3215 36.4183 16.4754 36.3656C14.9751 36.2706 13.9433 35.4245 13.2111 34.1711C12.5971 33.1224 12.3038 31.9661 12.154 30.776C11.9261 28.9635 11.9261 27.1531 12.3249 25.3616C12.6076 24.085 13.1056 22.9118 14.091 21.9982C14.9203 21.2301 15.9014 20.825 17.024 20.8229C20.5204 20.8102 24.0188 20.8208 27.5152 20.8229C27.8472 20.8229 28.0132 20.659 28.0132 20.3312C28.0132 19.9641 27.8275 19.7805 27.4561 19.7805C25.2152 19.7805 22.9722 19.7805 20.7314 19.7805C20.2882 19.7805 20.2925 19.7805 20.2861 19.3269C20.2735 18.352 20.2756 17.3772 20.2397 16.4023C20.1975 15.2502 20.7398 14.4442 21.6703 13.8513C22.6536 13.2225 23.7635 12.9629 24.8966 12.7857C25.3967 12.7076 25.9031 12.6633 26.4053 12.6021C27.3612 12.6021 28.3149 12.6021 29.2708 12.6021L29.2686 12.6ZM24.9705 16.4804C24.9789 15.6912 24.4197 15.1025 23.6517 15.0962C22.8667 15.0878 22.2527 15.6807 22.2485 16.4509C22.2443 17.1852 22.8752 17.8139 23.6221 17.8182C24.367 17.8224 24.962 17.2316 24.9705 16.4804Z" fill="#B97A00" fill-opacity="0.8"/>
<path d="M33.7841 36.1442C31.9884 36.1442 30.1927 36.1442 28.3971 36.1442C27.9751 36.1442 27.9708 36.1442 27.973 36.5536C27.973 37.2668 27.9097 37.195 28.6018 37.195C30.8342 37.195 33.0645 37.195 35.297 37.195C35.7401 37.195 35.7422 37.1993 35.7443 37.6508C35.7443 38.6679 35.7274 39.6849 35.7527 40.702C35.7781 41.6768 35.3307 42.39 34.588 42.9534C33.879 43.4915 33.0603 43.8037 32.2036 43.9789C29.4669 44.5402 26.7238 44.5718 23.9955 43.9261C23.0164 43.694 22.1049 43.2952 21.3516 42.5989C20.6658 41.9638 20.2776 41.2042 20.286 40.2399C20.305 37.7795 20.2902 35.3192 20.3008 32.861C20.305 32.0191 20.5456 31.2426 21.0562 30.5631C21.7251 29.6727 22.6683 29.2591 23.7212 29.0376C24.0483 28.9679 24.3795 28.9658 24.7129 28.9658C27.1416 28.9658 29.5703 28.9722 31.9989 28.9616C32.6826 28.9595 33.3684 28.911 34.0246 28.6789C35.5143 28.1492 36.2803 27.0246 36.601 25.5391C36.6938 25.1023 36.7381 24.6592 36.736 24.2098C36.7318 23.14 36.7424 22.0723 36.7297 21.0025C36.7276 20.7218 36.8162 20.6163 37.1032 20.6227C37.7868 20.6374 38.4726 20.6438 39.1584 20.6227C40.5405 20.5826 41.5976 21.1818 42.4142 22.2537C43.1696 23.2455 43.5452 24.3954 43.7456 25.6066C44.0959 27.7251 44.1191 29.8436 43.5958 31.9389C43.2709 33.2429 42.6906 34.414 41.5892 35.258C40.8401 35.8298 39.9961 36.1421 39.0486 36.1464C37.2952 36.1527 35.5396 36.1464 33.7862 36.1464L33.7841 36.1442ZM31.0157 40.5374C31.0178 41.2864 31.636 41.9068 32.3788 41.9089C33.132 41.9089 33.7524 41.2759 33.7461 40.5099C33.7397 39.7588 33.1173 39.1511 32.3661 39.1616C31.6065 39.1722 31.0114 39.7778 31.0136 40.5374H31.0157Z" fill="#B97A00" fill-opacity="0.8"/>
</g>
</g>
</g>
<defs>
<clipPath id="clip0_11_53">
<rect y="0.599976" width="56" height="56" rx="8" fill="white"/>
</clipPath>
<clipPath id="clip1_11_53">
<rect width="56" height="56" fill="white" transform="translate(0 0.599976)"/>
</clipPath>
<clipPath id="clip2_11_53">
<rect width="56" height="56" fill="white" transform="translate(0 0.599976)"/>
</clipPath>
</defs>
</svg>
