<svg width="56" height="57" viewBox="0 0 56 57" fill="none" xmlns="http://www.w3.org/2000/svg">
<g clip-path="url(#clip0_11_503)">
<g clip-path="url(#clip1_11_503)">
<g clip-path="url(#clip2_11_503)">
<path d="M47.7037 0.75H8.2963C3.71438 0.75 0 4.33172 0 8.75V48.75C0 53.1683 3.71438 56.75 8.2963 56.75H47.7037C52.2856 56.75 56 53.1683 56 48.75V8.75C56 4.33172 52.2856 0.75 47.7037 0.75Z" fill="#9CBCE2"/>
<path d="M28 14.75C20.818 14.75 15 17.5344 15 20.9722C15 24.41 20.818 27.1945 28 27.1945C35.182 27.1945 41 24.41 41 20.9722C41 17.5344 35.182 14.75 28 14.75ZM15 24.0834V28.75C15 32.1878 20.818 34.9722 28 34.9722C35.182 34.9722 41 32.1878 41 28.75V24.0834C41 27.5211 35.182 30.3055 28 30.3055C20.818 30.3055 15 27.5211 15 24.0834ZM15 31.8611V36.5278C15 39.9655 20.818 42.75 28 42.75C35.182 42.75 41 39.9655 41 36.5278V31.8611C41 35.2989 35.182 38.0833 28 38.0833C20.818 38.0833 15 35.2989 15 31.8611Z" fill="#115FB7"/>
</g>
</g>
</g>
<defs>
<clipPath id="clip0_11_503">
<rect y="0.75" width="56" height="56" rx="8" fill="white"/>
</clipPath>
<clipPath id="clip1_11_503">
<rect width="56" height="56" fill="white" transform="translate(0 0.75)"/>
</clipPath>
<clipPath id="clip2_11_503">
<rect width="56" height="56" fill="white" transform="translate(0 0.75)"/>
</clipPath>
</defs>
</svg>
