<svg width="56" height="57" viewBox="0 0 56 57" fill="none" xmlns="http://www.w3.org/2000/svg">
<g clip-path="url(#clip0_11_686)">
<g clip-path="url(#clip1_11_686)">
<g clip-path="url(#clip2_11_686)">
<path d="M47.7037 0.720215H8.2963C3.71438 0.720215 0 4.30193 0 8.72021V48.7202C0 53.1385 3.71438 56.7202 8.2963 56.7202H47.7037C52.2856 56.7202 56 53.1385 56 48.7202V8.72021C56 4.30193 52.2856 0.720215 47.7037 0.720215Z" fill="#9CBCE2"/>
<path d="M28 14.7202C20.818 14.7202 15 17.5046 15 20.9424C15 24.3802 20.818 27.1647 28 27.1647C35.182 27.1647 41 24.3802 41 20.9424C41 17.5046 35.182 14.7202 28 14.7202ZM15 24.0536V28.7202C15 32.158 20.818 34.9424 28 34.9424C35.182 34.9424 41 32.158 41 28.7202V24.0536C41 27.4913 35.182 30.2757 28 30.2757C20.818 30.2757 15 27.4913 15 24.0536ZM15 31.8313V36.498C15 39.9357 20.818 42.7202 28 42.7202C35.182 42.7202 41 39.9357 41 36.498V31.8313C41 35.2691 35.182 38.0535 28 38.0535C20.818 38.0535 15 35.2691 15 31.8313Z" fill="#115FB7"/>
</g>
</g>
</g>
<defs>
<clipPath id="clip0_11_686">
<rect y="0.720215" width="56" height="56" rx="8" fill="white"/>
</clipPath>
<clipPath id="clip1_11_686">
<rect width="56" height="56" fill="white" transform="translate(0 0.720215)"/>
</clipPath>
<clipPath id="clip2_11_686">
<rect width="56" height="56" fill="white" transform="translate(0 0.720215)"/>
</clipPath>
</defs>
</svg>
