<svg width="56" height="57" viewBox="0 0 56 57" fill="none" xmlns="http://www.w3.org/2000/svg">
<g clip-path="url(#clip0_11_333)">
<g clip-path="url(#clip1_11_333)">
<g clip-path="url(#clip2_11_333)">
<path d="M47.7037 0.380005H8.2963C3.71438 0.380005 0 3.96172 0 8.38V48.38C0 52.7983 3.71438 56.38 8.2963 56.38H47.7037C52.2856 56.38 56 52.7983 56 48.38V8.38C56 3.96172 52.2856 0.380005 47.7037 0.380005Z" fill="#9CBCE2"/>
<path d="M28 14.38C20.818 14.38 15 17.1644 15 20.6022C15 24.04 20.818 26.8245 28 26.8245C35.182 26.8245 41 24.04 41 20.6022C41 17.1644 35.182 14.38 28 14.38ZM15 23.7134V28.38C15 31.8178 20.818 34.6022 28 34.6022C35.182 34.6022 41 31.8178 41 28.38V23.7134C41 27.1511 35.182 29.9355 28 29.9355C20.818 29.9355 15 27.1511 15 23.7134ZM15 31.4911V36.1578C15 39.5955 20.818 42.38 28 42.38C35.182 42.38 41 39.5955 41 36.1578V31.4911C41 34.9289 35.182 37.7133 28 37.7133C20.818 37.7133 15 34.9289 15 31.4911Z" fill="#115FB7"/>
</g>
</g>
</g>
<defs>
<clipPath id="clip0_11_333">
<rect y="0.380005" width="56" height="56" rx="8" fill="white"/>
</clipPath>
<clipPath id="clip1_11_333">
<rect width="56" height="56" fill="white" transform="translate(0 0.380005)"/>
</clipPath>
<clipPath id="clip2_11_333">
<rect width="56" height="56" fill="white" transform="translate(0 0.380005)"/>
</clipPath>
</defs>
</svg>
