<svg width="56" height="57" viewBox="0 0 56 57" fill="none" xmlns="http://www.w3.org/2000/svg">
<g clip-path="url(#clip0_11_375)">
<g clip-path="url(#clip1_11_375)">
<g clip-path="url(#clip2_11_375)">
<path d="M48.2759 0.969971H7.72414C3.45821 0.969971 0 4.42818 0 8.69411V49.2458C0 53.5118 3.45821 56.97 7.72414 56.97H48.2759C52.5418 56.97 56 53.5118 56 49.2458V8.69411C56 4.42818 52.5418 0.969971 48.2759 0.969971Z" fill="#FFAF8C"/>
<path d="M21.7118 19.6001C21.7118 18.476 22.623 17.5648 23.7471 17.5648C24.8712 17.5648 25.7823 18.476 25.7823 19.6001V32.245C25.7823 33.8542 25.402 35.2696 24.6413 36.4911C23.8879 37.7126 22.8273 38.6672 21.4595 39.3548C20.0917 40.035 18.4934 40.3751 16.6648 40.3751C14.8288 40.3751 13.2269 40.035 11.8592 39.3548C10.4913 38.6672 9.43073 37.7126 8.67734 36.4911C7.92394 35.2696 7.54724 33.8542 7.54724 32.245V19.6001C7.54724 18.476 8.45847 17.5648 9.58251 17.5648C10.7065 17.5648 11.6178 18.476 11.6178 19.6001V31.9049C11.6178 32.8412 11.8226 33.675 12.2322 34.4065C12.6492 35.138 13.2343 35.7122 13.9877 36.1291C14.741 36.5386 15.6335 36.7434 16.6648 36.7434C17.6961 36.7434 18.5885 36.5386 19.3419 36.1291C20.1027 35.7122 20.6878 35.138 21.0974 34.4065C21.507 33.675 21.7118 32.8412 21.7118 31.9049V19.6001Z" fill="#F16529"/>
<path d="M32.4945 17.5648C33.1854 17.5648 33.8258 17.927 34.1818 18.5191L38.5109 25.7183C38.5391 25.765 38.5896 25.7936 38.6442 25.7936C38.6985 25.7936 38.749 25.7651 38.7771 25.7186L43.1272 18.5166C43.4839 17.9258 44.1239 17.5648 44.814 17.5648C46.3562 17.5648 47.3007 19.2563 46.4917 20.5693L42.3636 27.2683C41.7857 28.2062 41.7898 29.3909 42.3744 30.3248L46.5424 36.9831C47.3737 38.3111 46.419 40.035 44.8523 40.035C44.1581 40.035 43.514 39.6741 43.1516 39.082L38.7776 31.9359C38.7491 31.8894 38.6985 31.861 38.6441 31.861C38.5895 31.861 38.5389 31.8894 38.5104 31.9359L34.1315 39.09C33.7722 39.6771 33.1335 40.035 32.4452 40.035C30.8879 40.035 29.9419 38.3183 30.7738 37.0017L34.9845 30.3375C35.5785 29.3974 35.5817 28.2003 34.9931 27.2568L30.8241 20.576C30.0057 19.2646 30.9486 17.5648 32.4945 17.5648Z" fill="#F16529"/>
</g>
</g>
</g>
<defs>
<clipPath id="clip0_11_375">
<rect y="0.969971" width="56" height="56" rx="8" fill="white"/>
</clipPath>
<clipPath id="clip1_11_375">
<rect width="56" height="56" fill="white" transform="translate(0 0.969971)"/>
</clipPath>
<clipPath id="clip2_11_375">
<rect width="56" height="56" fill="white" transform="translate(0 0.969971)"/>
</clipPath>
</defs>
</svg>
